{
.formatVersion = 3;
date = "2012-04-05 14:36:00 +0000";
familyName = CantataOne;
fontMaster = (
{
customParameters = (
{
name = typoAscender;
value = 2040;
},
{
name = typoDescender;
value = -560;
},
{
name = typoLineGap;
value = 0;
},
{
name = winAscent;
value = 2040;
},
{
name = winDescent;
value = 560;
},
{
name = hheaAscender;
value = 2040;
},
{
name = hheaDescender;
value = -560;
},
{
name = hheaLineGap;
value = 0;
}
);
id = "2adea82c-006a-4377-a520-f6b591c948da";
metricValues = (
{
},
{
pos = -103;
},
{
pos = 102;
},
{
pos = 1638;
},
{
pos = -410;
},
{
pos = 1434;
},
{
pos = 1331;
},
{
},
{
pos = 287;
},
{
pos = 1434;
},
{
pos = 1331;
},
{
},
{
pos = 977;
},
{
pos = 102;
},
{
pos = 512;
}
);
name = Regular;
visible = 1;
}
);
glyphs = (
{
glyphname = .notdef;
layers = (
{
layerId = "2adea82c-006a-4377-a520-f6b591c948da";
name = Fore;
shapes = (
{
closed = 1;
nodes = (
(1530,2040,l),
(1530,-340,l),
(0,-340,l),
(0,2040,l)
);
},
{
closed = 1;
nodes = (
(1430,1940,l),
(100,1940,l),
(100,-240,l),
(1430,-240,l)
);
},
{
closed = 1;
nodes = (
(800,821,o),
(925,976.5,q),
(1050,1132,o),
(1050,1316,q),
(1050,1452,o),
(965,1535,q),
(880,1618,o),
(709.5,1618,q),
(539,1618,o),
(443,1502,q),
(495,1487,o),
(527.5,1444,q),
(560,1401,o),
(560,1354,q),
(560,1275,o),
(513.5,1227,q),
(467,1179,o),
(394,1179,q),
(321,1179,o),
(274,1234,q),
(228,1290,o),
(232,1356,q),
(240,1491,o),
(383,1597.5,q),
(526,1704,o),
(749,1704,q),
(972,1704,o),
(1135.5,1587,q),
(1299,1470,o),
(1299,1279,q),
(1299,1000,o),
(1030,826,q),
(922,756,o),
(800,730,q),
(747,447,l),
(650,447,l),
(590,750,l)
);
},
{
closed = 1;
nodes = (
(541,248,o),
(637,290,q),
(666,302,o),
(700,302,q),
(768,302,o),
(814,256,q),
(860,210,o),
(860,141.5,q),
(860,73,o),
(814.5,27.5,q),
(769,-18,o),
(700.5,-18,q),
(632,-18,o),
(586.5,27.5,q),
(541,73,o),
(541,141,q)
);
}
);
width = 1530;
}
);
},
{
category = Letter;
glyphname = exclam;
layers = (
{
layerId = "2adea82c-006a-4377-a520-f6b591c948da";
name = Fore;
shapes = (
{
closed = 1;
nodes = (
(265,1504,o),
(265,1531,q),
(265,1592,o),
(313,1638.5,q),
(361,1685,o),
(426,1685,q),
(491,1685,o),
(539,1638.5,q),
(587,1592,o),
(587,1523,q),
(587,1504,o),
(584,1489,q),
(473,447,l),
(379,447,l),
(268,1489,l)
);
},
{
closed = 1;
nodes = (
(267,248,o),
(363,290,q),
(392,302,o),
(426,302,q),
(494,302,o),
(540,256,q),
(586,210,o),
(586,141.5,q),
(586,73,o),
(540.5,27.5,q),
(495,-18,o),
(426.5,-18,q),
(358,-18,o),
(312.5,27.5,q),
(267,73,o),
(267,141,q)
);
}
);
width = 852;
}
);
unicode = 33;
},
{
category = Letter;
glyphname = quotedbl;
layers = (
{
layerId = "2adea82c-006a-4377-a520-f6b591c948da";
name = Fore;
shapes = (
{
closed = 1;
nodes = (
(275,1607,o),
(315,1645.5,q),
(355,1684,o),
(410.5,1684,q),
(466,1684,o),
(494,1659,q),
(545,1612,o),
(534,1556,q),
(445,1020,l),
(367,1020,l),
(283,1559,l)
);
},
{
closed = 1;
nodes = (
(653,1607,o),
(693,1645.5,q),
(733,1684,o),
(788.5,1684,q),
(844,1684,o),
(872,1659,q),
(923,1612,o),
(912,1556,q),
(823,1020,l),
(745,1020,l),
(661,1559,l)
);
}
);
width = 1196;
}
);
unicode = 34;
},
{
category = Letter;
glyphname = numbersign;
layers = (
{
layerId = "2adea82c-006a-4377-a520-f6b591c948da";
name = Fore;
shapes = (
{
closed = 1;
nodes = (
(201,392,l),
(201,510,l),
(490,510,l),
(595,902,l),
(271,902,l),
(271,1020,l),
(626,1020,l),
(770,1554,l),
(904,1521,l),
(769,1020,l),
(1074,1020,l),
(1218,1554,l),
(1352,1521,l),
(1217,1020,l),
(1506,1020,l),
(1506,902,l),
(1186,902,l),
(1081,510,l),
(1436,510,l),
(1436,392,l),
(1049,392,l),
(917,-102,l),
(783,-69,l),
(906,392,l),
(601,392,l),
(469,-102,l),
(335,-69,l),
(458,392,l)
);
},
{
closed = 1;
nodes = (
(1043,902,l),
(738,902,l),
(633,510,l),
(938,510,l)
);
}
);
width = 1707;
}
);
unicode = 35;
},
{
category = Letter;
glyphname = dollar;
layers = (
{
layerId = "2adea82c-006a-4377-a520-f6b591c948da";
name = Fore;
shapes = (
{
closed = 1;
nodes = (
(266,70,o),
(266,0,q),
(177,0,l),
(177,408,l),
(280,408,l),
(307,299,o),
(378.5,217.5,q),
(450,136,o),
(556,95,q),
(590,580,l),
(260,707,o),
(206,898,q),
(188,959,o),
(188,1035,q),
(188,1188,o),
(316.5,1289,q),
(445,1390,o),
(647,1407,q),
(660,1596,l),
(739,1596,l),
(726,1410,l),
(772,1408,l),
(795,1407,o),
(816,1404,q),
(830,1596,l),
(909,1596,l),
(895,1391,l),
(1004,1364,o),
(1064,1313,q),
(1088,1348,o),
(1090,1390,q),
(1183,1390,l),
(1183,1018,l),
(1087,1018,l),
(1064,1214,o),
(888,1291,q),
(853,788,l),
(1079,703,o),
(1165.5,615.5,q),
(1252,528,o),
(1252,416,q),
(1252,217,o),
(1122.5,107,q),
(993,-3,o),
(797,-18,q),
(787,-170,l),
(708,-170,l),
(718,-19,l),
(661,-17,o),
(628,-12,q),
(617,-170,l),
(538,-170,l),
(550,2,l),
(392,40,o),
(307,116,q)
);
},
{
closed = 1;
nodes = (
(776,819,l),
(810,1316,l),
(764,1326,o),
(720,1327,q),
(688,857,l)
);
},
{
closed = 1;
nodes = (
(466,1305,o),
(409,1212,q),
(390,1182,o),
(390,1146,q),
(390,1068,o),
(434.5,1013.5,q),
(479,959,o),
(611,893,q),
(641,1324,l)
);
},
{
closed = 1;
nodes = (
(675,65,o),
(724,63,q),
(755,522,l),
(679,548,l),
(671,550,o),
(667,552,q),
(634,73,l)
);
},
{
closed = 1;
nodes = (
(982,82,o),
(1039,176,q),
(1058,208,o),
(1058,246,q),
(1058,327,o),
(1010.5,382,q),
(963,437,o),
(833,491,q),
(803,66,l)
);
}
);
width = 1366;
}
);
unicode = 36;
},
{
category = Letter;
glyphname = percent;
layers = (
{
layerId = "2adea82c-006a-4377-a520-f6b591c948da";
name = Fore;
shapes = (
{
closed = 1;
nodes = (
(198,1027,o),
(198,1189.5,q),
(198,1352,o),
(292,1455.5,q),
(386,1559,o),
(524.5,1559,q),
(663,1559,o),
(754,1456.5,q),
(845,1354,o),
(845,1189.5,q),
(845,1025,o),
(754.5,924,q),
(664,823,o),
(524,823,q),
(384,823,o),
(291,925,q)
);
},
{
closed = 1;
nodes = (
(667,897,o),
(667,1189,q),
(667,1327,o),
(644.5,1382.5,q),
(622,1438,o),
(593.5,1460.5,q),
(565,1483,o),
(522,1483,q),
(440,1483,o),
(406,1398,q),
(378,1329,o),
(378,1230,q),
(378,1054,o),
(409.5,975.5,q),
(441,897,o),
(522,897,q)
);
},
{
closed = 1;
nodes = (
(1032,508,o),
(1126,611.5,q),
(1220,715,o),
(1358.5,715,q),
(1497,715,o),
(1588,612.5,q),
(1679,510,o),
(1679,345.5,q),
(1679,181,o),
(1588.5,80,q),
(1498,-21,o),
(1357.5,-21,q),
(1217,-21,o),
(1124.5,81,q),
(1032,183,o),
(1032,345.5,q)
);
},
{
closed = 1;
nodes = (
(1501,53,o),
(1501,345,q),
(1501,559,o),
(1428,618,q),
(1399,640,o),
(1356,640,q),
(1274,640,o),
(1243,562.5,q),
(1212,485,o),
(1212,386,q),
(1212,210,o),
(1243.5,131.5,q),
(1275,53,o),
(1356,53,q)
);
},
{
closed = 1;
nodes = (
(1535,1530,l),
(400,0,l),
(298,0,l),
(1436,1530,l)
);
}
);
width = 1877;
}
);
unicode = 37;
},
{
category = Letter;
glyphname = ampersand;
layers = (
{
layerId = "2adea82c-006a-4377-a520-f6b591c948da";
name = Fore;
shapes = (
{
closed = 1;
nodes = (
(1456,117,o),
(1572,117,q),
(1630,117,o),
(1667,142,q),
(1704,91,l),
(1615,-20,o),
(1447.5,-20,q),
(1280,-20,o),
(1118,118,q),
(959,-20,o),
(721.5,-20,q),
(484,-20,o),
(314,93,q),
(144,206,o),
(144,396,q),
(144,554,o),
(252,669,q),
(340,764,o),
(476,808,q),
(308,1012,o),
(308,1175.5,q),
(308,1339,o),
(446.5,1434,q),
(585,1529,o),
(749.5,1529,q),
(914,1529,o),
(1021,1466,q),
(1128,1403,o),
(1138,1297,q),
(1142,1283,o),
(1142,1262,q),
(1142,1211,o),
(1100,1170.5,q),
(1058,1130,o),
(1002,1130,q),
(946,1130,o),
(905,1171,q),
(864,1212,o),
(864,1261,q),
(864,1357,o),
(945,1395,q),
(883,1452,o),
(771.5,1452,q),
(660,1452,o),
(601.5,1397,q),
(543,1342,o),
(543,1248,q),
(543,1108,o),
(748,866,q),
(1138,435,o),
(1192,379,q),
(1266,546,o),
(1266,769,q),
(1093,769,l),
(1093,847,l),
(1527,847,l),
(1527,769,l),
(1367,769,l),
(1361,497,o),
(1262,307,q)
);
},
{
closed = 1;
nodes = (
(386,469,o),
(386,406,q),
(386,268,o),
(488.5,171.5,q),
(591,75,o),
(759,75,q),
(927,75,o),
(1050,181,q),
(971,258,o),
(888,354,q),
(706,556,l),
(581,687,o),
(538,736,q),
(438,657,o),
(400,518,q)
);
}
);
width = 1708;
}
);
unicode = 38;
},
{
category = Letter;
glyphname = quotesingle;
layers = (
{
layerId = "2adea82c-006a-4377-a520-f6b591c948da";
name = Fore;
shapes = (
{
closed = 1;
nodes = (
(293,1607,o),
(333,1645.5,q),
(373,1684,o),
(428.5,1684,q),
(484,1684,o),
(512,1659,q),
(563,1612,o),
(552,1556,q),
(463,1020,l),
(385,1020,l),
(301,1559,l)
);
}
);
width = 855;
}
);
unicode = 39;
},
{
category = Letter;
glyphname = parenleft;
layers = (
{
layerId = "2adea82c-006a-4377-a520-f6b591c948da";
name = Fore;
shapes = (
{
closed = 1;
nodes = (
(511,-180,o),
(1023,-503,q),
(975,-560,l),
(683,-419,o),
(479.5,-111,q),
(276,197,o),
(276,610,q),
(276,1165,o),
(632,1516,q),
(768,1649,o),
(975,1765,q),
(1023,1709,l),
(613,1419,o),
(536,926,q),
(511,771,o),
(511,634,q)
);
}
);
width = 1024;
}
);
unicode = 40;
},
{
category = Letter;
glyphname = parenright;
layers = (
{
layerId = "2adea82c-006a-4377-a520-f6b591c948da";
name = Fore;
shapes = (
{
closed = 1;
nodes = (
(513,1385,o),
(1,1708,q),
(49,1765,l),
(341,1624,o),
(544.5,1316,q),
(748,1008,o),
(748,595,q),
(748,40,o),
(392,-311,q),
(256,-444,o),
(49,-560,q),
(1,-504,l),
(411,-214,o),
(488,279,q),
(513,434,o),
(513,571,q)
);
}
);
width = 1024;
}
);
unicode = 41;
},
{
category = Letter;
glyphname = asterisk;
layers = (
{
layerId = "2adea82c-006a-4377-a520-f6b591c948da";
name = Fore;
shapes = (
{
closed = 1;
nodes = (
(443,843,o),
(386,843,q),
(329,843,o),
(309,866,q),
(278,904,o),
(278,938,q),
(278,972,o),
(289,990.5,q),
(300,1009,o),
(323,1029,q),
(543,1208,l),
(238,1251,l),
(195,1256,o),
(171,1288.5,q),
(147,1321,o),
(147,1350,q),
(147,1399,o),
(178.5,1426.5,q),
(210,1454,o),
(245,1454,q),
(280,1454,o),
(313,1431,q),
(562,1267,l),
(500,1582,l),
(501,1581,l),
(498,1593,o),
(498,1609,q),
(498,1644,o),
(531,1674,q),
(564,1704,o),
(592,1704,q),
(640,1704,o),
(670,1672,q),
(700,1640,o),
(700,1616,q),
(700,1592,o),
(695,1567,q),
(626,1266,l),
(893,1434,l),
(918,1448,o),
(942,1448,q),
(986,1448,o),
(1016,1416.5,q),
(1046,1385,o),
(1046,1354,q),
(1046,1300,o),
(1016,1275.5,q),
(986,1251,o),
(940,1244,q),
(645,1206,l),
(876,1013,l),
(908,986,o),
(908,950,q),
(908,891,o),
(878,864,q),
(848,837,o),
(807.5,837,q),
(767,837,o),
(745.5,859,q),
(724,881,o),
(710,911,q),
(592,1171,l),
(470,902,l)
);
}
);
width = 1193;
}
);
unicode = 42;
},
{
category = Letter;
glyphname = plus;
layers = (
{
layerId = "2adea82c-006a-4377-a520-f6b591c948da";
name = Fore;
shapes = (
{
closed = 1;
nodes = (
(716,645,l),
(716,1114,l),
(820,1114,l),
(820,645,l),
(1266,645,l),
(1266,545,l),
(820,545,l),
(820,98,l),
(716,98,l),
(716,545,l),
(270,545,l),
(270,645,l)
);
}
);
width = 1536;
}
);
unicode = 43;
},
{
category = Letter;
glyphname = comma;
layers = (
{
layerId = "2adea82c-006a-4377-a520-f6b591c948da";
name = Fore;
shapes = (
{
closed = 1;
nodes = (
(281,310,o),
(330,310,q),
(419,310,o),
(466,257.5,q),
(513,205,o),
(513,122,q),
(513,-18,o),
(434.5,-158.5,q),
(356,-299,o),
(275,-351,q),
(223,-313,l),
(300,-249,o),
(336,-94,q),
(347,-47,o),
(349,-2,q),
(283,-2,o),
(233.5,43.5,q),
(184,89,o),
(184,156,q),
(184,223,o),
(232,267,q)
);
}
);
width = 683;
}
);
unicode = 44;
},
{
category = Letter;
glyphname = hyphen;
layers = (
{
layerId = "2adea82c-006a-4377-a520-f6b591c948da";
name = Fore;
shapes = (
{
closed = 1;
nodes = (
(961,646,l),
(961,546,l),
(237,546,l),
(237,646,l)
);
}
);
width = 1198;
}
);
unicode = 45;
},
{
category = Letter;
glyphname = period;
layers = (
{
layerId = "2adea82c-006a-4377-a520-f6b591c948da";
name = Fore;
shapes = (
{
closed = 1;
nodes = (
(182,248,o),
(278,290,q),
(307,302,o),
(341,302,q),
(409,302,o),
(455,256,q),
(501,210,o),
(501,141.5,q),
(501,73,o),
(455.5,27.5,q),
(410,-18,o),
(341.5,-18,q),
(273,-18,o),
(227.5,27.5,q),
(182,73,o),
(182,141,q)
);
}
);
width = 683;
}
);
unicode = 46;
},
{
category = Letter;
glyphname = slash;
layers = (
{
layerId = "2adea82c-006a-4377-a520-f6b591c948da";
name = Fore;
shapes = (
{
closed = 1;
nodes = (
(1019,1683,l),
(164,-554,l),
(6,-554,l),
(862,1683,l)
);
}
);
width = 1025;
}
);
unicode = 47;
},
{
category = Letter;
glyphname = zero;
layers = (
{
layerId = "2adea82c-006a-4377-a520-f6b591c948da";
name = Fore;
shapes = (
{
closed = 1;
nodes = (
(903,-20,o),
(770,-20,q),
(502,-20,o),
(322,196.5,q),
(142,413,o),
(142,761,q),
(142,1109,o),
(322.5,1329.5,q),
(503,1550,o),
(768,1550,q),
(902,1550,o),
(1017,1493,q),
(1132,1436,o),
(1216,1332,q),
(1395,1112,o),
(1395,761.5,q),
(1395,411,o),
(1216,193,q),
(1133,91,o),
(1018,35.5,q)
);
},
{
closed = 1;
nodes = (
(1058,63,o),
(1093,576,q),
(1099,665,o),
(1099,790,q),
(1099,1103,o),
(1034,1268,q),
(956,1467,o),
(768,1467,q),
(497,1467,o),
(452,1044,q),
(439,915,o),
(439,790,q),
(439,665,o),
(445,576,q),
(451,487,o),
(465,410,q),
(495,244,o),
(567.5,153.5,q),
(640,63,o),
(768,63,q)
);
}
);
width = 1537;
}
);
unicode = 48;
},
{
category = Letter;
glyphname = one;
layers = (
{
layerId = "2adea82c-006a-4377-a520-f6b591c948da";
name = Fore;
shapes = (
{
closed = 1;
nodes = (
(382,78,l),
(382,1446,l),
(210,1430,l),
(210,1507,l),
(648,1554,l),
(648,78,l),
(827,78,l),
(827,0,l),
(204,0,l),
(204,78,l)
);
}
);
width = 1024;
}
);
unicode = 49;
},
{
category = Letter;
glyphname = two;
layers = (
{
layerId = "2adea82c-006a-4377-a520-f6b591c948da";
name = Fore;
shapes = (
{
closed = 1;
nodes = (
(1092,225,o),
(1123,388,q),
(1197,388,l),
(1197,0,l),
(150,0,l),
(150,89,l),
(296,210,l),
(469,360,o),
(618,540,q),
(890,868,o),
(890,1146,q),
(890,1321,o),
(813.5,1395.5,q),
(737,1470,o),
(628,1470,q),
(427,1470,o),
(331,1331,q),
(416,1322,o),
(446,1242,q),
(454,1219,o),
(454,1192,q),
(454,1134,o),
(410.5,1095,q),
(367,1056,o),
(321,1056,q),
(242,1056,o),
(199,1098,q),
(156,1140,o),
(156,1210,q),
(156,1344,o),
(308,1448,q),
(462,1550,o),
(677.5,1550,q),
(893,1550,o),
(1034,1447,q),
(1175,1344,o),
(1175,1143,q),
(1175,904,o),
(934,643,q),
(797,495,o),
(662,390,q),
(445,225,l),
(984,225,l)
);
}
);
width = 1366;
}
);
unicode = 50;
},
{
category = Letter;
glyphname = three;
layers = (
{
layerId = "2adea82c-006a-4377-a520-f6b591c948da";
name = Fore;
shapes = (
{
closed = 1;
nodes = (
(869,1467,o),
(606,1467,q),
(445,1467,o),
(368,1390,q),
(419,1378,o),
(448,1338.5,q),
(477,1299,o),
(477,1261,q),
(477,1191,o),
(436,1149,q),
(395,1107,o),
(344,1107,q),
(261,1107,o),
(225,1153,q),
(189,1199,o),
(189,1248.5,q),
(189,1298,o),
(209,1336,q),
(229,1374,o),
(264,1406,q),
(332,1471,o),
(440.5,1510.5,q),
(549,1550,o),
(663,1550,q),
(894,1550,o),
(1019.5,1453.5,q),
(1145,1357,o),
(1145,1195,q),
(1145,1064,o),
(1048.5,957,q),
(952,850,o),
(793,819,q),
(989,807,o),
(1110.5,706.5,q),
(1232,606,o),
(1232,451,q),
(1232,230,o),
(1059,105,q),
(886,-20,o),
(613,-20,q),
(431,-20,o),
(296.5,62,q),
(162,144,o),
(162,278,q),
(162,339,o),
(204.5,381.5,q),
(247,424,o),
(293,424,q),
(369,424,o),
(412,381,q),
(455,338,o),
(455,286,q),
(455,234,o),
(428.5,194,q),
(402,154,o),
(352,138,q),
(423,80,o),
(524,68,q),
(566,63,o),
(640,63,q),
(790,63,o),
(871.5,156,q),
(953,249,o),
(953,398,q),
(953,547,o),
(846.5,645,q),
(740,743,o),
(581,743,q),
(526,743,o),
(471,730,q),
(471,823,l),
(662,823,o),
(765.5,925,q),
(869,1027,o),
(869,1185,q)
);
}
);
width = 1366;
}
);
unicode = 51;
},
{
category = Letter;
glyphname = four;
layers = (
{
layerId = "2adea82c-006a-4377-a520-f6b591c948da";
name = Fore;
shapes = (
{
closed = 1;
nodes = (
(816,1530,l),
(1003,1530,l),
(1003,485,l),
(1317,485,l),
(1315,399,l),
(1003,399,l),
(1003,78,l),
(1232,78,l),
(1232,0,l),
(469,0,l),
(469,78,l),
(737,78,l),
(737,399,l),
(40,399,l),
(40,466,l)
);
},
{
closed = 1;
nodes = (
(737,1267,l),
(177,485,l),
(737,485,l)
);
}
);
width = 1366;
}
);
unicode = 52;
},
{
category = Letter;
glyphname = five;
layers = (
{
layerId = "2adea82c-006a-4377-a520-f6b591c948da";
name = Fore;
shapes = (
{
closed = 1;
nodes = (
(440,854,o),
(252,761,q),
(306,1530,l),
(1183,1530,l),
(1132,1148,l),
(1054,1148,l),
(1048,1211,l),
(1039,1294,o),
(957,1310,q),
(928,1315,o),
(887,1315,q),
(394,1315,l),
(357,873,l),
(454,939,o),
(613,964,q),
(661,971,o),
(704,971,q),
(951,971,o),
(1088,842,q),
(1225,713,o),
(1225,503,q),
(1225,258,o),
(1053.5,119,q),
(882,-20,o),
(610,-20,q),
(435,-20,o),
(300,62.5,q),
(165,145,o),
(165,278,q),
(165,339,o),
(207.5,381.5,q),
(250,424,o),
(296,424,q),
(372,424,o),
(415,381,q),
(458,338,o),
(458,269.5,q),
(458,201,o),
(394,156,q),
(374,142,o),
(347,135,q),
(431,60,o),
(600,60,q),
(855,60,o),
(930,290,q),
(956,370,o),
(956,466,q),
(956,649,o),
(864,751.5,q),
(772,854,o),
(626,854,q)
);
}
);
width = 1365;
}
);
unicode = 53;
},
{
category = Letter;
glyphname = six;
layers = (
{
layerId = "2adea82c-006a-4377-a520-f6b591c948da";
name = Fore;
shapes = (
{
closed = 1;
nodes = (
(544,981,o),
(792,981,q),
(869,981,o),
(957,955,q),
(1045,929,o),
(1114,872,q),
(1267,747,o),
(1267,520,q),
(1267,293,o),
(1102.5,136.5,q),
(938,-20,o),
(711,-20,q),
(446,-20,o),
(280.5,177,q),
(115,374,o),
(115,714,q),
(115,1054,o),
(288,1291,q),
(406,1454,o),
(590,1518,q),
(684,1550,o),
(780,1550,q),
(953,1550,o),
(1059.5,1488.5,q),
(1166,1427,o),
(1166,1326,q),
(1166,1262,o),
(1130.5,1221,q),
(1095,1180,o),
(1046,1180,q),
(969,1180,o),
(930.5,1222,q),
(892,1264,o),
(892,1330,q),
(892,1396,o),
(947,1430,q),
(896,1479,o),
(792,1479,q),
(598,1479,o),
(498,1297,q),
(398,1115,o),
(392,804,q)
);
},
{
closed = 1;
nodes = (
(521,881,o),
(392,676,q),
(402,240,o),
(572,108,q),
(631,63,o),
(705,63,q),
(847,63,o),
(926,177,q),
(1003,291,o),
(1003,480,q),
(1003,768,o),
(852,852,q),
(800,881,o),
(738,881,q)
);
}
);
width = 1365;
}
);
unicode = 54;
},
{
category = Letter;
glyphname = seven;
layers = (
{
layerId = "2adea82c-006a-4377-a520-f6b591c948da";
name = Fore;
shapes = (
{
closed = 1;
nodes = (
(419,30,o),
(419,101,q),
(419,172,o),
(443.5,291,q),
(468,410,o),
(510,528,q),
(590,752,o),
(713.5,962,q),
(837,1172,o),
(960,1315,q),
(411,1315,l),
(328,1315,o),
(275.5,1287.5,q),
(223,1260,o),
(199,1191,q),
(193,1171,o),
(185,1141,q),
(171,1088,l),
(93,1088,l),
(158,1530,l),
(1126,1530,l),
(1126,1460,l),
(845,1023,o),
(764,481,q),
(739,313,o),
(739,189.5,q),
(739,66,o),
(746,0,q),
(421,0,l)
);
}
);
width = 1195;
}
);
unicode = 55;
},
{
category = Letter;
glyphname = eight;
layers = (
{
layerId = "2adea82c-006a-4377-a520-f6b591c948da";
name = Fore;
shapes = (
{
closed = 1;
nodes = (
(193,604,o),
(487,748,q),
(218,911,o),
(218,1129,q),
(218,1322,o),
(384,1442,q),
(532,1550,o),
(706,1550,q),
(716,1550,l),
(933,1550,o),
(1062,1450.5,q),
(1191,1351,o),
(1191,1204,q),
(1191,1016,o),
(1002,896,q),
(948,862,o),
(893,840,q),
(1061,759,o),
(1126.5,696.5,q),
(1192,634,o),
(1222.5,573,q),
(1253,512,o),
(1253,429,q),
(1253,346,o),
(1214,264.5,q),
(1175,183,o),
(1105,120,q),
(949,-20,o),
(714,-20,q),
(479,-20,o),
(336,89.5,q),
(193,199,o),
(193,374,q)
);
},
{
closed = 1;
nodes = (
(997,966,o),
(997,1186,q),
(997,1338,o),
(916.5,1403.5,q),
(836,1469,o),
(718,1469,q),
(538,1469,o),
(469,1334,q),
(444,1286,o),
(444,1223,q),
(444,1116,o),
(554,1028,q),
(630,967,o),
(806,883,q),
(826,873,l)
);
},
{
closed = 1;
nodes = (
(591,75,o),
(726.5,75,q),
(862,75,o),
(938,155,q),
(1014,235,o),
(1014,354,q),
(1014,473,o),
(811,578,q),
(688,641,l),
(623,672,o),
(559,707,q),
(481,650,o),
(451,602,q),
(394,511,o),
(394,381.5,q),
(394,252,o),
(492.5,163.5,q)
);
}
);
width = 1366;
}
);
unicode = 56;
},
{
category = Letter;
glyphname = nine;
layers = (
{
layerId = "2adea82c-006a-4377-a520-f6b591c948da";
name = Fore;
shapes = (
{
closed = 1;
nodes = (
(837,549,o),
(590,549,q),
(513,549,o),
(425,576,q),
(337,603,o),
(268,662,q),
(115,793,o),
(115,1039,q),
(115,1249,o),
(280,1399.5,q),
(445,1550,o),
(671,1550,q),
(936,1550,o),
(1101.5,1353,q),
(1267,1156,o),
(1267,816,q),
(1267,476,o),
(1094,239,q),
(976,76,o),
(792,12,q),
(698,-20,o),
(602,-20,q),
(427,-20,o),
(325.5,38.5,q),
(224,97,o),
(216,191,q),
(216,204,l),
(216,268,o),
(251.5,309,q),
(287,350,o),
(336,350,q),
(413,350,o),
(451.5,308,q),
(490,266,o),
(490,201,q),
(490,136,o),
(434,99,q),
(489,51,o),
(592,51,q),
(784,51,o),
(883.5,233.5,q),
(983,416,o),
(989,726,q)
);
},
{
closed = 1;
nodes = (
(582,649,o),
(644,649,q),
(755,649,o),
(844,705,q),
(932,761,o),
(989,854,q),
(979,1290,o),
(810,1422,q),
(751,1467,o),
(677,1467,q),
(536,1467,o),
(457.5,1359.5,q),
(379,1252,o),
(379,1070,q),
(379,768,o),
(530,680,q)
);
},
{
closed = 1;
nodes = (
(363,80,l),
(358,80,l),
(361,78,l)
);
}
);
width = 1365;
}
);
unicode = 57;
},
{
category = Letter;
glyphname = colon;
layers = (
{
layerId = "2adea82c-006a-4377-a520-f6b591c948da";
name = Fore;
shapes = (
{
closed = 1;
nodes = (
(182,248,o),
(278,290,q),
(307,302,o),
(341,302,q),
(409,302,o),
(455,256,q),
(501,210,o),
(501,141.5,q),
(501,73,o),
(455.5,27.5,q),
(410,-18,o),
(341.5,-18,q),
(273,-18,o),
(227.5,27.5,q),
(182,73,o),
(182,141,q)
);
},
{
closed = 1;
nodes = (
(182,248,o),
(278,290,q),
(307,302,o),
(341,302,q),
(409,302,o),
(455,256,q),
(501,210,o),
(501,141.5,q),
(501,73,o),
(455.5,27.5,q),
(410,-18,o),
(341.5,-18,q),
(273,-18,o),
(227.5,27.5,q),
(182,73,o),
(182,141,q)
);
},
{
closed = 1;
nodes = (
(182,985,o),
(278,1026,q),
(307,1039,o),
(341,1039,q),
(409,1039,o),
(455,993,q),
(501,947,o),
(501,878.5,q),
(501,810,o),
(455.5,764.5,q),
(410,719,o),
(341.5,719,q),
(273,719,o),
(227.5,764.5,q),
(182,810,o),
(182,878,q)
);
}
);
width = 683;
}
);
unicode = 58;
},
{
category = Letter;
glyphname = semicolon;
layers = (
{
layerId = "2adea82c-006a-4377-a520-f6b591c948da";
name = Fore;
shapes = (
{
closed = 1;
nodes = (
(281,310,o),
(330,310,q),
(419,310,o),
(466,257.5,q),
(513,205,o),
(513,122,q),
(513,-18,o),
(434.5,-158.5,q),
(356,-299,o),
(275,-351,q),
(223,-313,l),
(300,-249,o),
(336,-94,q),
(347,-47,o),
(349,-2,q),
(283,-2,o),
(233.5,43.5,q),
(184,89,o),
(184,156,q),
(184,223,o),
(232,267,q)
);
},
{
closed = 1;
nodes = (
(182,985,o),
(278,1027,q),
(307,1039,o),
(341,1039,q),
(409,1039,o),
(455,993,q),
(501,947,o),
(501,878.5,q),
(501,810,o),
(455.5,764.5,q),
(410,719,o),
(341.5,719,q),
(273,719,o),
(227.5,764.5,q),
(182,810,o),
(182,878,q)
);
}
);
width = 683;
}
);
unicode = 59;
},
{
category = Letter;
glyphname = less;
layers = (
{
layerId = "2adea82c-006a-4377-a520-f6b591c948da";
name = Fore;
shapes = (
{
closed = 1;
nodes = (
(1159,1060,l),
(1159,946,l),
(468,545,l),
(1159,154,l),
(1159,30,l),
(340,508,l),
(340,582,l)
);
}
);
width = 1535;
}
);
unicode = 60;
},
{
category = Letter;
glyphname = equal;
layers = (
{
layerId = "2adea82c-006a-4377-a520-f6b591c948da";
name = Fore;
shapes = (
{
closed = 1;
nodes = (
(1266,780,l),
(1266,680,l),
(270,680,l),
(270,780,l)
);
},
{
closed = 1;
nodes = (
(1266,440,l),
(1266,340,l),
(270,340,l),
(270,440,l)
);
}
);
width = 1536;
}
);
unicode = 61;
},
{
category = Letter;
glyphname = greater;
layers = (
{
layerId = "2adea82c-006a-4377-a520-f6b591c948da";
name = Fore;
shapes = (
{
closed = 1;
nodes = (
(343,1060,l),
(343,946,l),
(1034,545,l),
(343,154,l),
(343,30,l),
(1162,508,l),
(1162,582,l)
);
}
);
width = 1535;
}
);
unicode = 62;
},
{
category = Letter;
glyphname = question;
layers = (
{
layerId = "2adea82c-006a-4377-a520-f6b591c948da";
name = Fore;
shapes = (
{
closed = 1;
nodes = (
(719,821,o),
(844,976.5,q),
(969,1132,o),
(969,1316,q),
(969,1452,o),
(884,1535,q),
(799,1618,o),
(628.5,1618,q),
(458,1618,o),
(362,1502,q),
(414,1487,o),
(446.5,1444,q),
(479,1401,o),
(479,1354,q),
(479,1275,o),
(432.5,1227,q),
(386,1179,o),
(315.5,1179,q),
(245,1179,o),
(197.5,1226.5,q),
(150,1274,o),
(150,1343,q),
(150,1354,l),
(150,1359,o),
(151,1364,q),
(151,1423,o),
(189,1483.5,q),
(227,1544,o),
(293,1593,q),
(443,1704,o),
(667,1704,q),
(891,1704,o),
(1054.5,1587,q),
(1218,1470,o),
(1218,1279,q),
(1218,1000,o),
(950,826,q),
(841,756,o),
(719,730,q),
(666,447,l),
(569,447,l),
(509,750,l)
);
},
{
closed = 1;
nodes = (
(460,248,o),
(556,290,q),
(585,302,o),
(619,302,q),
(687,302,o),
(733,256,q),
(779,210,o),
(779,141.5,q),
(779,73,o),
(733.5,27.5,q),
(688,-18,o),
(619.5,-18,q),
(551,-18,o),
(505.5,27.5,q),
(460,73,o),
(460,141,q)
);
}
);
width = 1364;
}
);
unicode = 63;
},
{
category = Letter;
glyphname = at;
layers = (
{
layerId = "2adea82c-006a-4377-a520-f6b591c948da";
name = Fore;
shapes = (
{
closed = 1;
nodes = (
(1551,-420,o),
(1184.5,-420,q),
(818,-420,o),
(544,-238,q),
(333,-98,o),
(246,149,q),
(200,278,o),
(200,444.5,q),
(200,611,o),
(245.5,750.5,q),
(291,890,o),
(370,1002,q),
(524,1218,o),
(783,1335.5,q),
(1042,1453,o),
(1323,1453,q),
(1696,1453,o),
(1940,1271,q),
(2184,1089,o),
(2184,783.5,q),
(2184,478,o),
(2017,238,q),
(1905,77,o),
(1741,13,q),
(1657,-20,o),
(1555.5,-20,q),
(1454,-20,o),
(1392,8.5,q),
(1330,37,o),
(1317,108,q),
(1176,-18,o),
(999,-18,q),
(871,-18,o),
(777.5,106,q),
(684,230,o),
(684,444,q),
(684,709,o),
(860,882,q),
(1022,1040,o),
(1242,1040,q),
(1347,1040,o),
(1429,981,q),
(1435,1020,l),
(1675,1020,l),
(1565,219,l),
(1562,204,l),
(1556,153,l),
(1556,71,o),
(1608,71,q),
(1733,71,o),
(1850,180,q),
(2018,338,o),
(2076,611,q),
(2094,696,o),
(2094,807.5,q),
(2094,919,o),
(2040,1028.5,q),
(1986,1138,o),
(1886,1214,q),
(1679,1371,o),
(1323,1371,q),
(1037,1371,o),
(801.5,1256,q),
(566,1141,o),
(429.5,929.5,q),
(293,718,o),
(293,446,q),
(293,174,o),
(422,-2.5,q),
(551,-179,o),
(750.5,-260.5,q),
(950,-342,o),
(1167,-342,q),
(1520,-342,o),
(1807,-222,q),
(1838,-299,l)
);
},
{
closed = 1;
nodes = (
(1359,944,o),
(1283.5,944,q),
(1208,944,o),
(1161,923,q),
(1114,902,o),
(1078,867,q),
(1012,803,o),
(977,694,q),
(942,585,o),
(942,514.5,q),
(942,444,o),
(945.5,404,q),
(949,364,o),
(958,324,q),
(1001,123,o),
(1130,123,q),
(1232,123,o),
(1323,234,q),
(1417,895,l)
);
}
);
width = 2385;
}
);
unicode = 64;
},
{
category = Letter;
glyphname = A;
layers = (
{
layerId = "2adea82c-006a-4377-a520-f6b591c948da";
name = Fore;
shapes = (
{
closed = 1;
nodes = (
(129,78,l),
(693,1530,l),
(809,1530,l),
(1412,78,l),
(1514,78,l),
(1514,0,l),
(969,0,l),
(969,78,l),
(1119,78,l),
(975,427,l),
(368,427,l),
(236,78,l),
(416,78,l),
(416,0,l),
(21,0,l),
(21,78,l)
);
},
{
closed = 1;
nodes = (
(659,1196,l),
(398,505,l),
(943,505,l)
);
}
);
width = 1534;
}
);
unicode = 65;
},
{
category = Letter;
glyphname = B;
layers = (
{
layerId = "2adea82c-006a-4377-a520-f6b591c948da";
name = Fore;
shapes = (
{
closed = 1;
nodes = (
(276,78,l),
(277,1452,l),
(106,1452,l),
(106,1530,l),
(860,1530,l),
(1095,1530,o),
(1209.5,1422.5,q),
(1324,1315,o),
(1324,1146,q),
(1324,949,o),
(1142,855,q),
(1088,827,o),
(1028,811,q),
(1221,788,o),
(1323,687,q),
(1425,586,o),
(1425,439,q),
(1425,237,o),
(1277.5,118.5,q),
(1130,0,o),
(856,0,q),
(106,0,l),
(106,78,l)
);
},
{
closed = 1;
nodes = (
(1008,832,o),
(1050,1018,q),
(1063,1074,o),
(1063,1138,q),
(1063,1290,o),
(1014,1358,q),
(948,1452,o),
(764,1452,q),
(546,1452,l),
(546,832,l),
(791,832,l)
);
},
{
closed = 1;
nodes = (
(960,78,o),
(1056.5,165,q),
(1153,252,o),
(1153,412,q),
(1153,647,o),
(966,726,q),
(898,755,o),
(800,755,q),
(546,755,l),
(546,78,l),
(778,78,l)
);
}
);
width = 1534;
}
);
unicode = 66;
},
{
category = Letter;
glyphname = C;
layers = (
{
layerId = "2adea82c-006a-4377-a520-f6b591c948da";
name = Fore;
shapes = (
{
closed = 1;
nodes = (
(1347,1469,o),
(1349,1530,q),
(1431,1530,l),
(1431,1111,l),
(1346,1111,l),
(1317,1277,o),
(1187.5,1372,q),
(1058,1467,o),
(906,1467,q),
(400,1467,o),
(404,760,q),
(407,479,o),
(516,293,q),
(642,78,o),
(882,78,q),
(1065,78,o),
(1191.5,142.5,q),
(1318,207,o),
(1390,317,q),
(1442,269,l),
(1404,178,o),
(1284,95,q),
(1119,-20,o),
(870,-20,q),
(516,-20,o),
(306,200.5,q),
(96,421,o),
(96,762,q),
(96,1103,o),
(305.5,1326.5,q),
(515,1550,o),
(888,1550,q),
(1090,1550,o),
(1240,1468,q),
(1282,1445,o),
(1307,1422,q)
);
}
);
width = 1534;
}
);
unicode = 67;
},
{
category = Letter;
glyphname = D;
layers = (
{
layerId = "2adea82c-006a-4377-a520-f6b591c948da";
name = Fore;
shapes = (
{
closed = 1;
nodes = (
(283,78,l),
(284,1452,l),
(83,1452,l),
(83,1530,l),
(757,1530,l),
(1360,1530,o),
(1537,1149,q),
(1610,992,o),
(1610,777,q),
(1610,491,o),
(1444,278,q),
(1310,107,o),
(1055,37,q),
(921,0,o),
(743,0,q),
(83,0,l),
(83,78,l)
);
},
{
closed = 1;
nodes = (
(1046,78,o),
(1182,235,q),
(1318,392,o),
(1318,770,q),
(1318,801,l),
(1312,1163,o),
(1172.5,1307.5,q),
(1033,1452,o),
(744,1452,q),
(553,1452,l),
(553,78,l),
(731,78,l)
);
}
);
width = 1707;
}
);
unicode = 68;
},
{
category = Letter;
glyphname = E;
layers = (
{
layerId = "2adea82c-006a-4377-a520-f6b591c948da";
name = Fore;
shapes = (
{
closed = 1;
nodes = (
(271,79,l),
(272,1452,l),
(71,1452,l),
(71,1530,l),
(1364,1530,l),
(1364,1094,l),
(1286,1094,l),
(1281,1177,o),
(1272,1241.5,q),
(1263,1306,o),
(1234,1351,q),
(1176,1443,o),
(998,1452,q),
(541,1452,l),
(541,824,l),
(791,824,l),
(876,824,o),
(921.5,851.5,q),
(967,879,o),
(977,948,q),
(979,968,o),
(980.5,990.5,q),
(982,1013,o),
(984,1035,q),
(1068,1035,l),
(1068,519,l),
(984,519,l),
(982,542,o),
(980.5,572,q),
(979,602,o),
(977,622,q),
(967,691,o),
(920.5,718.5,q),
(874,746,o),
(791,746,q),
(541,746,l),
(541,78,l),
(969,78,l),
(1232,78,o),
(1288,321,q),
(1304,391,o),
(1309,465,q),
(1387,465,l),
(1387,0,l),
(71,0,l),
(71,79,l)
);
}
);
width = 1535;
}
);
unicode = 69;
},
{
category = Letter;
glyphname = F;
layers = (
{
layerId = "2adea82c-006a-4377-a520-f6b591c948da";
name = Fore;
shapes = (
{
closed = 1;
nodes = (
(252,78,l),
(253,1452,l),
(52,1452,l),
(52,1530,l),
(1305,1530,l),
(1305,1089,l),
(1227,1089,l),
(1216,1277,o),
(1166,1348,q),
(1100,1443,o),
(919,1452,q),
(522,1452,l),
(522,795,l),
(738,795,l),
(822,795,o),
(872.5,823,q),
(923,851,o),
(933,919,q),
(935,939,o),
(936.5,964.5,q),
(938,990,o),
(940,1012,q),
(1022,1012,l),
(1022,489,l),
(940,489,l),
(938,512,o),
(936.5,542.5,q),
(935,573,o),
(933,593,q),
(915,717,o),
(738,717,q),
(522,717,l),
(522,78,l),
(846,78,l),
(846,0,l),
(53,0,l),
(53,78,l)
);
}
);
width = 1367;
}
);
unicode = 70;
},
{
category = Letter;
glyphname = G;
layers = (
{
layerId = "2adea82c-006a-4377-a520-f6b591c948da";
name = Fore;
shapes = (
{
closed = 1;
nodes = (
(1240,1550,o),
(1382,1421,q),
(1404,1446,o),
(1426,1530,q),
(1507,1530,l),
(1507,1111,l),
(1422,1111,l),
(1374,1290,o),
(1240,1378.5,q),
(1106,1467,o),
(917,1467,q),
(566,1467,o),
(450,1108,q),
(380,892,o),
(416,602,q),
(467,198,o),
(752,92,q),
(832,63,o),
(922,63,q),
(1012,63,o),
(1075,79,q),
(1138,95,o),
(1184.5,118.5,q),
(1231,142,o),
(1258,168.5,q),
(1285,195,o),
(1288,216,q),
(1288,601,l),
(1027,601,l),
(1027,679,l),
(1659,679,l),
(1659,601,l),
(1530,601,l),
(1530,192,l),
(1469,107,o),
(1292,43.5,q),
(1115,-20,o),
(926.5,-20,q),
(738,-20,o),
(584.5,41.5,q),
(431,103,o),
(325,210,q),
(107,430,o),
(107,759.5,q),
(107,1089,o),
(326,1314,q),
(471,1464,o),
(688,1521,q),
(798,1550,o),
(896,1550,q)
);
}
);
width = 1707;
}
);
unicode = 71;
},
{
category = Letter;
glyphname = H;
layers = (
{
layerId = "2adea82c-006a-4377-a520-f6b591c948da";
name = Fore;
shapes = (
{
closed = 1;
nodes = (
(211,78,l),
(212,1452,l),
(55,1452,l),
(55,1530,l),
(650,1530,l),
(650,1452,l),
(481,1452,l),
(481,806,l),
(1225,806,l),
(1226,1452,l),
(1057,1452,l),
(1057,1530,l),
(1652,1530,l),
(1652,1452,l),
(1495,1452,l),
(1495,78,l),
(1651,78,l),
(1651,0,l),
(1057,0,l),
(1057,78,l),
(1225,78,l),
(1225,728,l),
(481,728,l),
(481,78,l),
(649,78,l),
(649,0,l),
(55,0,l),
(55,78,l)
);
}
);
width = 1707;
}
);
unicode = 72;
},
{
category = Letter;
glyphname = I;
layers = (
{
layerId = "2adea82c-006a-4377-a520-f6b591c948da";
name = Fore;
shapes = (
{
closed = 1;
nodes = (
(292,78,l),
(293,1452,l),
(95,1452,l),
(95,1530,l),
(759,1530,l),
(759,1452,l),
(562,1452,l),
(562,78,l),
(759,78,l),
(759,0,l),
(95,0,l),
(95,78,l)
);
}
);
width = 854;
}
);
unicode = 73;
},
{
category = Letter;
glyphname = J;
layers = (
{
layerId = "2adea82c-006a-4377-a520-f6b591c948da";
name = Fore;
shapes = (
{
closed = 1;
nodes = (
(248,-190,o),
(268.5,-88.5,q),
(289,13,o),
(289,381,q),
(289,1452,l),
(101,1452,l),
(101,1530,l),
(756,1530,l),
(756,1452,l),
(559,1452,l),
(559,135,l),
(559,-81,o),
(445.5,-213,q),
(332,-345,o),
(159,-391,q),
(118,-318,l),
(179,-290,o),
(213.5,-240,q)
);
}
);
width = 854;
}
);
unicode = 74;
},
{
category = Letter;
glyphname = K;
layers = (
{
layerId = "2adea82c-006a-4377-a520-f6b591c948da";
name = Fore;
shapes = (
{
closed = 1;
nodes = (
(331,78,l),
(332,1452,l),
(141,1452,l),
(141,1530,l),
(806,1530,l),
(806,1452,l),
(601,1452,l),
(601,755,l),
(1303,1452,l),
(1154,1452,l),
(1154,1530,l),
(1601,1530,l),
(1601,1452,l),
(1426,1452,l),
(878,908,l),
(1556,78,l),
(1698,78,l),
(1698,0,l),
(1068,0,l),
(1068,78,l),
(1215,78,l),
(700,732,l),
(601,634,l),
(601,78,l),
(806,78,l),
(806,0,l),
(141,0,l),
(141,78,l)
);
}
);
width = 1707;
}
);
unicode = 75;
},
{
category = Letter;
glyphname = L;
layers = (
{
layerId = "2adea82c-006a-4377-a520-f6b591c948da";
name = Fore;
shapes = (
{
closed = 1;
nodes = (
(285,78,l),
(286,1453,l),
(118,1453,l),
(118,1530,l),
(733,1530,l),
(733,1453,l),
(555,1453,l),
(555,78,l),
(861,78,l),
(1124,78,o),
(1180,321,q),
(1196,391,o),
(1201,465,q),
(1279,465,l),
(1279,0,l),
(71,0,l),
(71,79,l)
);
}
);
width = 1367;
}
);
unicode = 76;
},
{
category = Letter;
glyphname = M;
layers = (
{
layerId = "2adea82c-006a-4377-a520-f6b591c948da";
name = Fore;
shapes = (
{
closed = 1;
nodes = (
(246,78,l),
(246,1452,l),
(60,1452,l),
(60,1530,l),
(582,1530,l),
(1033,417,l),
(1481,1530,l),
(1986,1530,l),
(1986,1452,l),
(1791,1452,l),
(1791,78,l),
(2004,78,l),
(2004,0,l),
(1339,0,l),
(1339,78,l),
(1521,78,l),
(1522,1409,l),
(966,21,l),
(926,21,l),
(337,1416,l),
(337,78,l),
(518,78,l),
(518,0,l),
(62,0,l),
(62,78,l)
);
}
);
width = 2049;
}
);
unicode = 77;
},
{
category = Letter;
glyphname = N;
layers = (
{
layerId = "2adea82c-006a-4377-a520-f6b591c948da";
name = Fore;
shapes = (
{
closed = 1;
nodes = (
(267,78,l),
(267,1452,l),
(93,1452,l),
(93,1530,l),
(546,1530,l),
(1356,325,l),
(1356,1452,l),
(1162,1452,l),
(1162,1530,l),
(1637,1530,l),
(1637,1452,l),
(1454,1452,l),
(1454,0,l),
(1268,0,l),
(365,1327,l),
(365,78,l),
(568,78,l),
(568,0,l),
(93,0,l),
(93,78,l)
);
}
);
width = 1707;
}
);
unicode = 78;
},
{
category = Letter;
glyphname = O;
layers = (
{
layerId = "2adea82c-006a-4377-a520-f6b591c948da";
name = Fore;
shapes = (
{
closed = 1;
nodes = (
(98,664,o),
(98,764.5,q),
(98,865,o),
(119.5,961.5,q),
(141,1058,o),
(183,1145,q),
(271,1328,o),
(442.5,1439,q),
(614,1550,o),
(855,1550,q),
(1221,1550,o),
(1428,1306,q),
(1613,1086,o),
(1613,762,q),
(1613,438,o),
(1426,218,q),
(1298,68,o),
(1089,10,q),
(983,-20,o),
(856.5,-20,q),
(730,-20,o),
(625,9.5,q),
(520,39,o),
(436,92,q),
(352,145,o),
(288.5,218.5,q),
(225,292,o),
(183,379.5,q),
(141,467,o),
(119.5,565.5,q)
);
},
{
closed = 1;
nodes = (
(1254,365,o),
(1289.5,481,q),
(1325,597,o),
(1325,724.5,q),
(1325,852,o),
(1313.5,937.5,q),
(1302,1023,o),
(1278,1100,q),
(1225,1266,o),
(1119.5,1366.5,q),
(1014,1467,o),
(855,1467,q),
(607,1467,o),
(486,1245,q),
(383,1054,o),
(386.5,770.5,q),
(390,487,o),
(490,296,q),
(614,63,o),
(851,63,q),
(1088,63,o),
(1216,296,q)
);
}
);
width = 1711;
}
);
unicode = 79;
},
{
category = Letter;
glyphname = P;
layers = (
{
layerId = "2adea82c-006a-4377-a520-f6b591c948da";
name = Fore;
shapes = (
{
closed = 1;
nodes = (
(222,78,l),
(223,1452,l),
(52,1452,l),
(52,1530,l),
(701,1530,l),
(1011,1530,o),
(1155.5,1403,q),
(1300,1276,o),
(1300,1041,q),
(1300,806,o),
(1149.5,659.5,q),
(999,513,o),
(705,513,q),
(492,513,l),
(492,78,l),
(745,78,l),
(745,0,l),
(51,0,l),
(51,78,l)
);
},
{
closed = 1;
nodes = (
(919,582,o),
(992,842,q),
(1019,935,o),
(1019,1034,q),
(1019,1232,o),
(940,1336,q),
(855,1452,o),
(682,1452,q),
(492,1452,l),
(492,582,l),
(680,582,l)
);
}
);
width = 1364;
}
);
unicode = 80;
},
{
category = Letter;
glyphname = Q;
layers = (
{
layerId = "2adea82c-006a-4377-a520-f6b591c948da";
name = Fore;
shapes = (
{
closed = 1;
nodes = (
(523,-305,o),
(416,-421,q),
(363,-387,l),
(396,-297,o),
(570,-181,q),
(616,-150,o),
(657,-127,q),
(852,-20,l),
(614,-20,o),
(443,88,q),
(272,196,o),
(185,375,q),
(98,554,o),
(98,767,q),
(98,1084,o),
(288,1306,q),
(498,1550,o),
(859.5,1550,q),
(1221,1550,o),
(1428,1306,q),
(1613,1086,o),
(1613,783,q),
(1613,480,o),
(1468,274,q),
(1312,49,o),
(1029,-4,q),
(833,-122,l),
(882,-135,o),
(927,-154,q),
(927,-154,o),
(1020,-190,q),
(1132,-231,o),
(1224,-231,q),
(1347,-231,o),
(1453,-115,q),
(1505,-149,l),
(1476,-232,o),
(1378,-333.5,q),
(1280,-435,o),
(1170,-435,q),
(1099,-435,o),
(1030.5,-414.5,q),
(962,-394,o),
(895,-370,q),
(714,-305,o),
(650,-305,q)
);
},
{
closed = 1;
nodes = (
(1254,365,o),
(1289.5,481,q),
(1325,597,o),
(1325,724.5,q),
(1325,852,o),
(1313.5,937.5,q),
(1302,1023,o),
(1278,1100,q),
(1225,1266,o),
(1119.5,1366.5,q),
(1014,1467,o),
(855,1467,q),
(607,1467,o),
(486,1245,q),
(383,1054,o),
(386.5,770.5,q),
(390,487,o),
(490,296,q),
(614,63,o),
(851,63,q),
(1088,63,o),
(1216,296,q)
);
}
);
width = 1711;
}
);
unicode = 81;
},
{
category = Letter;
glyphname = R;
layers = (
{
layerId = "2adea82c-006a-4377-a520-f6b591c948da";
name = Fore;
shapes = (
{
closed = 1;
nodes = (
(1330,1530,o),
(1330,1144,q),
(1330,969,o),
(1224,865,q),
(1118,761,o),
(940,732,q),
(1175,693,o),
(1262,490,q),
(1297,408,o),
(1323.5,309.5,q),
(1350,211,o),
(1371,170,q),
(1417,78,o),
(1507,78,q),
(1547,78,l),
(1549,-5,l),
(1408,-5,l),
(1212,-5,o),
(1144,48,q),
(1075,102,o),
(1039,261,q),
(1006,406,o),
(985,459,q),
(941,573,o),
(871,638,q),
(801,703,o),
(690,703,q),
(507,703,l),
(507,78,l),
(741,78,l),
(741,0,l),
(76,0,l),
(76,78,l),
(237,78,l),
(238,1452,l),
(76,1452,l),
(76,1530,l),
(755,1530,l)
);
},
{
closed = 1;
nodes = (
(919,772,o),
(993,889,q),
(1047,974,o),
(1047,1130,q),
(1047,1286,o),
(984,1360,q),
(906,1452,o),
(719,1452,q),
(507,1452,l),
(507,772,l),
(737,772,l)
);
}
);
width = 1534;
}
);
unicode = 82;
},
{
category = Letter;
glyphname = S;
layers = (
{
layerId = "2adea82c-006a-4377-a520-f6b591c948da";
name = Fore;
shapes = (
{
closed = 1;
nodes = (
(266,70,o),
(266,0,q),
(177,0,l),
(177,408,l),
(280,408,l),
(319,254,o),
(442.5,158.5,q),
(566,63,o),
(741,63,q),
(960,63,o),
(1034,184,q),
(1058,225,o),
(1058,276,q),
(1058,385,o),
(981,463,q),
(904,541,o),
(717.5,609.5,q),
(531,678,o),
(435.5,735,q),
(340,792,o),
(285,855,q),
(188,966,o),
(188,1146,q),
(188,1326,o),
(342.5,1438,q),
(497,1550,o),
(718,1550,q),
(843,1550,o),
(930.5,1521,q),
(1018,1492,o),
(1064,1453,q),
(1088,1488,o),
(1090,1530,q),
(1183,1530,l),
(1183,1158,l),
(1087,1158,l),
(1072,1306,o),
(963.5,1386.5,q),
(855,1467,o),
(712.5,1467,q),
(570,1467,o),
(480,1408.5,q),
(390,1350,o),
(390,1249,q),
(390,1148,o),
(474,1072,q),
(558,996,o),
(817,882,q),
(1060,783,o),
(1156,681.5,q),
(1252,580,o),
(1252,431,q),
(1252,221,o),
(1104.5,100.5,q),
(957,-20,o),
(747.5,-20,q),
(538,-20,o),
(383,64,q),
(337,89,o),
(307,116,q)
);
}
);
width = 1366;
}
);
unicode = 83;
},
{
category = Letter;
glyphname = T;
layers = (
{
layerId = "2adea82c-006a-4377-a520-f6b591c948da";
name = Fore;
shapes = (
{
closed = 1;
nodes = (
(632,78,l),
(633,1453,l),
(447,1453,l),
(282,1442,o),
(217,1331,q),
(167,1246,o),
(158,1049,q),
(80,1049,l),
(80,1530,l),
(1454,1530,l),
(1454,1049,l),
(1376,1049,l),
(1367,1244,o),
(1316,1331,q),
(1251,1442,o),
(1087,1453,q),
(902,1453,l),
(902,78,l),
(1102,78,l),
(1102,0,l),
(433,0,l),
(433,78,l)
);
}
);
width = 1535;
}
);
unicode = 84;
},
{
category = Letter;
glyphname = U;
layers = (
{
layerId = "2adea82c-006a-4377-a520-f6b591c948da";
name = Fore;
shapes = (
{
closed = 1;
nodes = (
(46,1452,l),
(46,1530,l),
(598,1530,l),
(598,1452,l),
(452,1452,l),
(452,525,l),
(452,162,o),
(656,95,q),
(724,73,o),
(788.5,73,q),
(853,73,o),
(900.5,79,q),
(948,85,o),
(995,102,q),
(1100,142,o),
(1167.5,246,q),
(1235,350,o),
(1235,543,q),
(1235,1452,l),
(1079,1452,l),
(1079,1530,l),
(1479,1530,l),
(1479,1452,l),
(1333,1452,l),
(1333,529,l),
(1333,252,o),
(1189,116,q),
(1045,-20,o),
(798,-20,q),
(333,-20,o),
(214,332,q),
(182,426,o),
(182,559,q),
(183,1452,l)
);
}
);
width = 1539;
}
);
unicode = 85;
},
{
category = Letter;
glyphname = V;
layers = (
{
layerId = "2adea82c-006a-4377-a520-f6b591c948da";
name = Fore;
shapes = (
{
closed = 1;
nodes = (
(-13,1452,l),
(-13,1530,l),
(627,1530,l),
(627,1452,l),
(434,1452,l),
(877,317,l),
(1293,1452,l),
(1105,1452,l),
(1105,1530,l),
(1555,1530,l),
(1555,1452,l),
(1401,1452,l),
(846,-20,l),
(761,-20,l),
(121,1452,l)
);
}
);
width = 1539;
}
);
unicode = 86;
},
{
category = Letter;
glyphname = W;
layers = (
{
layerId = "2adea82c-006a-4377-a520-f6b591c948da";
name = Fore;
shapes = (
{
closed = 1;
nodes = (
(-49,1452,l),
(-49,1530,l),
(596,1530,l),
(596,1452,l),
(396,1452,l),
(773,343,l),
(1165,1530,l),
(1238,1530,l),
(1673,348,l),
(2034,1452,l),
(1843,1452,l),
(1843,1530,l),
(2293,1530,l),
(2293,1452,l),
(2138,1452,l),
(1642,-20,l),
(1550,-20,l),
(1115,1088,l),
(743,-20,l),
(653,-20,l),
(98,1452,l)
);
}
);
width = 2220;
}
);
unicode = 87;
},
{
category = Letter;
glyphname = X;
layers = (
{
layerId = "2adea82c-006a-4377-a520-f6b591c948da";
name = Fore;
shapes = (
{
closed = 1;
nodes = (
(187,78,l),
(655,705,l),
(161,1452,l),
(15,1452,l),
(15,1530,l),
(650,1530,l),
(650,1452,l),
(465,1452,l),
(831,906,l),
(1233,1452,l),
(1064,1452,l),
(1064,1531,l),
(1514,1531,l),
(1514,1452,l),
(1343,1452,l),
(883,828,l),
(1387,78,l),
(1523,78,l),
(1523,0,l),
(889,0,l),
(889,78,l),
(1071,78,l),
(707,626,l),
(301,78,l),
(484,78,l),
(484,0,l),
(17,0,l),
(17,78,l)
);
}
);
width = 1538;
}
);
unicode = 88;
},
{
category = Letter;
glyphname = Y;
layers = (
{
layerId = "2adea82c-006a-4377-a520-f6b591c948da";
name = Fore;
shapes = (
{
closed = 1;
nodes = (
(646,78,l),
(647,590,l),
(135,1452,l),
(10,1452,l),
(10,1530,l),
(654,1530,l),
(654,1452,l),
(451,1452,l),
(860,733,l),
(1266,1452,l),
(1082,1452,l),
(1082,1530,l),
(1524,1530,l),
(1524,1452,l),
(1373,1452,l),
(916,652,l),
(916,78,l),
(1115,78,l),
(1115,0,l),
(448,0,l),
(448,78,l)
);
}
);
width = 1539;
}
);
unicode = 89;
},
{
category = Letter;
glyphname = Z;
layers = (
{
layerId = "2adea82c-006a-4377-a520-f6b591c948da";
name = Fore;
shapes = (
{
closed = 1;
nodes = (
(1091,1452,l),
(646,1452,l),
(453,1452,o),
(386,1372,q),
(319,1292,o),
(304,1091,q),
(212,1091,l),
(212,1530,l),
(1375,1530,l),
(1375,1415,l),
(437,78,l),
(1010,78,l),
(1202,78,o),
(1268,180,q),
(1315,252,o),
(1320,437,q),
(1413,437,l),
(1413,0,l),
(140,0,l),
(140,117,l)
);
}
);
width = 1538;
}
);
unicode = 90;
},
{
category = Letter;
glyphname = bracketleft;
layers = (
{
layerId = "2adea82c-006a-4377-a520-f6b591c948da";
name = Fore;
shapes = (
{
closed = 1;
nodes = (
(809,1767,l),
(809,1689,l),
(544,1689,l),
(544,-482,l),
(808,-482,l),
(808,-560,l),
(341,-560,l),
(341,1767,l)
);
}
);
width = 1024;
}
);
unicode = 91;
},
{
category = Letter;
glyphname = backslash;
layers = (
{
layerId = "2adea82c-006a-4377-a520-f6b591c948da";
name = Fore;
shapes = (
{
closed = 1;
nodes = (
(6,1683,l),
(861,-554,l),
(1019,-554,l),
(163,1683,l)
);
}
);
width = 1025;
}
);
unicode = 92;
},
{
category = Letter;
glyphname = bracketright;
layers = (
{
layerId = "2adea82c-006a-4377-a520-f6b591c948da";
name = Fore;
shapes = (
{
closed = 1;
nodes = (
(215,1767,l),
(215,1689,l),
(480,1689,l),
(480,-482,l),
(216,-482,l),
(216,-560,l),
(683,-560,l),
(683,1767,l)
);
}
);
width = 1024;
}
);
unicode = 93;
},
{
category = Letter;
glyphname = asciicircum;
layers = (
{
layerId = "2adea82c-006a-4377-a520-f6b591c948da";
name = Fore;
shapes = (
{
closed = 1;
nodes = (
(891,1527,l),
(1364,543,l),
(1245,543,l),
(850,1389,l),
(460,543,l),
(341,543,l),
(816,1527,l)
);
}
);
width = 1707;
}
);
unicode = 94;
},
{
category = Letter;
glyphname = underscore;
layers = (
{
layerId = "2adea82c-006a-4377-a520-f6b591c948da";
name = Fore;
shapes = (
{
closed = 1;
nodes = (
(1378,-333,l),
(-10,-333,l),
(-10,-205,l),
(1378,-205,l)
);
}
);
width = 1368;
}
);
unicode = 95;
},
{
category = Letter;
glyphname = grave;
layers = (
{
layerId = "2adea82c-006a-4377-a520-f6b591c948da";
name = Fore;
shapes = (
{
closed = 1;
nodes = (
(407,1442,o),
(412,1517,q),
(414,1566,o),
(452,1594,q),
(490,1622,o),
(530.5,1617.5,q),
(571,1613,o),
(591,1597.5,q),
(611,1582,o),
(631,1552,q),
(851,1218,l),
(820,1184,l),
(466,1406,l)
);
}
);
width = 1707;
}
);
unicode = 96;
},
{
category = Letter;
glyphname = a;
layers = (
{
layerId = "2adea82c-006a-4377-a520-f6b591c948da";
name = Fore;
shapes = (
{
closed = 1;
nodes = (
(649,-20,o),
(454,-20,q),
(306,-20,o),
(199,62.5,q),
(92,145,o),
(92,278.5,q),
(92,412,o),
(197,488.5,q),
(302,565,o),
(467.5,565,q),
(633,565,o),
(744,482,q),
(744,720,l),
(744,841,o),
(714,884,q),
(684,927,o),
(643.5,944,q),
(603,961,o),
(554,961,q),
(477,961,o),
(424,943.5,q),
(371,926,o),
(353,908,q),
(399,894,o),
(424,838,q),
(432,818,o),
(432,790,q),
(432,735,o),
(392,698.5,q),
(352,662,o),
(312,662,q),
(242,662,o),
(203,699,q),
(164,736,o),
(164,788,q),
(164,840,o),
(183,873.5,q),
(202,907,o),
(234,934,q),
(295,985,o),
(387.5,1012,q),
(480,1039,o),
(561,1039,q),
(786,1039,o),
(894,948,q),
(1002,857,o),
(1002,694,q),
(1002,161,l),
(1002,78,o),
(1043,78,q),
(1084,78,o),
(1122,128,q),
(1174,85,l),
(1106,-18,o),
(952,-18,q),
(898,-18,o),
(842.5,16,q),
(787,50,o),
(765,113,q)
);
},
{
closed = 1;
nodes = (
(662,476,o),
(561,476,q),
(460,476,o),
(409,428.5,q),
(358,381,o),
(358,276,q),
(358,121,o),
(467,88,q),
(498,78,o),
(530,78,q),
(621,78,o),
(704,148,q),
(728,169,o),
(747,193,q),
(747,393,l)
);
}
);
width = 1195;
}
);
unicode = 97;
},
{
category = Letter;
glyphname = b;
layers = (
{
layerId = "2adea82c-006a-4377-a520-f6b591c948da";
name = Fore;
shapes = (
{
closed = 1;
nodes = (
(587,1040,o),
(826,1040,q),
(904,1040,o),
(989.5,1009.5,q),
(1075,979,o),
(1140,914,q),
(1279,773,o),
(1279,520,q),
(1279,267,o),
(1134,123.5,q),
(989,-20,o),
(780,-20,q),
(646,-20,o),
(533,35,q),
(498,52,o),
(471,73,q),
(471,0,l),
(61,0,l),
(61,78,l),
(211,78,l),
(211,1604,l),
(61,1604,l),
(61,1684,l),
(471,1684,l),
(471,914,l)
);
},
{
closed = 1;
nodes = (
(999,66,o),
(999,506,q),
(999,833,o),
(858,918,q),
(809,948,o),
(733,947,q),
(657,946,o),
(586.5,904,q),
(516,862,o),
(471,793,q),
(471,180,l),
(546,99,o),
(668,74,q),
(704,66,o),
(738,66,q)
);
}
);
width = 1365;
}
);
unicode = 98;
},
{
category = Letter;
glyphname = c;
layers = (
{
layerId = "2adea82c-006a-4377-a520-f6b591c948da";
name = Fore;
shapes = (
{
closed = 1;
nodes = (
(870,-20,o),
(604,-20,q),
(510,-20,o),
(407,16,q),
(304,52,o),
(228,121,q),
(67,269,o),
(67,513.5,q),
(67,758,o),
(224.5,899,q),
(382,1040,o),
(624,1040,q),
(762,1040,o),
(879.5,978.5,q),
(997,917,o),
(997,805,q),
(997,745,o),
(959,707,q),
(921,669,o),
(878,669,q),
(807,669,o),
(768,702,q),
(729,735,o),
(729,791,q),
(729,882,o),
(802,917,q),
(728,963,o),
(631,963,q),
(343,963,o),
(343,514,q),
(343,198,o),
(517,106,q),
(575,76,o),
(652,76,q),
(834,76,o),
(946,192,q),
(998,144,l)
);
}
);
width = 1026;
}
);
unicode = 99;
},
{
category = Letter;
glyphname = d;
layers = (
{
layerId = "2adea82c-006a-4377-a520-f6b591c948da";
name = Fore;
shapes = (
{
closed = 1;
nodes = (
(807,-20,o),
(572,-20,q),
(494,-20,o),
(408.5,10.5,q),
(323,41,o),
(258.5,106,q),
(194,171,o),
(156.5,271.5,q),
(119,372,o),
(119,504,q),
(119,752,o),
(264,896,q),
(409,1040,o),
(618,1040,q),
(750,1040,o),
(862,986,q),
(898,969,o),
(925,948,q),
(925,1606,l),
(718,1606,l),
(718,1684,l),
(1185,1684,l),
(1185,78,l),
(1333,78,l),
(1333,0,l),
(925,0,l),
(925,104,l)
);
},
{
closed = 1;
nodes = (
(399,954,o),
(399,514,q),
(399,187,o),
(540,102,q),
(589,72,o),
(664.5,72.5,q),
(740,73,o),
(809.5,114,q),
(879,155,o),
(925,224,q),
(925,842,l),
(848,922,o),
(729,946,q),
(693,954,o),
(660,954,q)
);
}
);
width = 1365;
}
);
unicode = 100;
},
{
category = Letter;
glyphname = e;
layers = (
{
layerId = "2adea82c-006a-4377-a520-f6b591c948da";
name = Fore;
shapes = (
{
closed = 1;
nodes = (
(915,-20,o),
(625,-20,q),
(529,-20,o),
(425,20.5,q),
(321,61,o),
(248,132,q),
(97,282,o),
(97,514.5,q),
(97,747,o),
(249,893,q),
(401,1039,o),
(635,1039,q),
(979,1039,o),
(1068,751,q),
(1097,659,o),
(1097,544,q),
(373,544,l),
(373,514,l),
(373,205,o),
(548,108,q),
(607,75,o),
(689,75,q),
(871,75,o),
(1019,223,q),
(1072,175,l)
);
},
{
closed = 1;
nodes = (
(826,786,o),
(779,870.5,q),
(732,955,o),
(625,955,q),
(408,955,o),
(378,626,q),
(828,626,l)
);
}
);
width = 1194;
}
);
unicode = 101;
},
{
category = Letter;
glyphname = f;
layers = (
{
layerId = "2adea82c-006a-4377-a520-f6b591c948da";
name = Fore;
shapes = (
{
closed = 1;
nodes = (
(720,1546,o),
(826,1563,q),
(815,1587,o),
(778.5,1604,q),
(742,1621,o),
(696,1621,q),
(610,1621,o),
(579,1548.5,q),
(548,1476,o),
(548,1325,q),
(548,1023,l),
(752,1023,l),
(772,945,l),
(547,945,l),
(547,78,l),
(757,78,l),
(757,0,l),
(125,0,l),
(125,78,l),
(287,78,l),
(287,945,l),
(125,945,l),
(125,1023,l),
(287,1023,l),
(287,1276,l),
(287,1484,o),
(391,1592,q),
(495,1700,o),
(668,1700,q),
(803,1700,o),
(886.5,1630,q),
(970,1560,o),
(970,1464,q),
(970,1368,o),
(889,1334,q),
(866,1325,o),
(829,1325,q),
(792,1325,o),
(756,1357,q),
(720,1389,o),
(720,1430,q)
);
}
);
width = 855;
}
);
unicode = 102;
},
{
category = Letter;
glyphname = g;
layers = (
{
layerId = "2adea82c-006a-4377-a520-f6b591c948da";
name = Fore;
shapes = (
{
closed = 1;
nodes = (
(1161,130,o),
(1161,-181,q),
(1161,-367,o),
(1002,-463.5,q),
(843,-560,o),
(612,-560,q),
(262,-560,o),
(142,-421,q),
(98,-371,o),
(98,-314,q),
(98,-220,o),
(158,-156,q),
(218,-92,o),
(311,-65,q),
(230,-51,o),
(176,3,q),
(122,57,o),
(122,112,q),
(122,202,o),
(172.5,265.5,q),
(223,329,o),
(299,368,q),
(144,473,o),
(144,647,q),
(144,821,o),
(275.5,930,q),
(407,1039,o),
(579.5,1039,q),
(752,1039,o),
(871,964,q),
(928,974,o),
(961,1001,q),
(897,1038,o),
(897,1096.5,q),
(897,1155,o),
(923,1182,q),
(970,1232,o),
(1022,1232,q),
(1074,1232,o),
(1110.5,1197,q),
(1147,1162,o),
(1147,1099,q),
(1147,1036,o),
(1078.5,979.5,q),
(1010,923,o),
(941,909,q),
(1052,800,o),
(1052,646,q),
(1052,492,o),
(919.5,388.5,q),
(787,285,o),
(593,285,q),
(464,285,o),
(362,332,q),
(256,287,o),
(256,215,q),
(256,130,o),
(406,130,q),
(687,130,l)
);
},
{
closed = 1;
nodes = (
(808,368,o),
(808,662,q),
(808,956,o),
(597,956,q),
(429,956,o),
(398,772,q),
(388,717,o),
(388,655,q),
(388,445,o),
(490,390,q),
(530,368,o),
(592,368,q)
);
},
{
closed = 1;
nodes = (
(293,-477,o),
(622,-477,q),
(790,-477,o),
(882.5,-417,q),
(975,-357,o),
(975,-267,q),
(975,-143,o),
(856,-95,q),
(813,-78,o),
(751,-78,q),
(446,-78,l),
(378,-96,o),
(335.5,-152,q),
(293,-208,o),
(293,-284,q)
);
}
);
width = 1194;
}
);
unicode = 103;
},
{
category = Letter;
glyphname = h;
layers = (
{
layerId = "2adea82c-006a-4377-a520-f6b591c948da";
name = Fore;
shapes = (
{
closed = 1;
nodes = (
(217,78,l),
(217,1606,l),
(45,1606,l),
(45,1684,l),
(477,1684,l),
(477,899,l),
(623,1040,o),
(821,1040,q),
(954,1040,o),
(1058,972,q),
(1190,884,o),
(1190,692,q),
(1190,78,l),
(1352,78,l),
(1352,0,l),
(768,0,l),
(768,78,l),
(930,78,l),
(930,712,l),
(930,829,o),
(905.5,871,q),
(881,913,o),
(850.5,929,q),
(820,945,o),
(757.5,945,q),
(695,945,o),
(617,907,q),
(539,869,o),
(477,793,q),
(477,78,l),
(639,78,l),
(639,0,l),
(55,0,l),
(55,78,l)
);
}
);
width = 1363;
}
);
unicode = 104;
},
{
category = Letter;
glyphname = i;
layers = (
{
layerId = "2adea82c-006a-4377-a520-f6b591c948da";
name = Fore;
shapes = (
{
closed = 1;
nodes = (
(299,1227,o),
(258,1266.5,q),
(217,1306,o),
(217,1350,q),
(217,1424,o),
(257,1464,q),
(297,1504,o),
(355,1504,q),
(447,1504,o),
(482,1420,q),
(493,1395,o),
(493,1366,q),
(493,1307,o),
(453,1267,q),
(413,1227,o),
(356,1227,q)
);
},
{
closed = 1;
nodes = (
(223,78,l),
(223,945,l),
(75,945,l),
(75,1023,l),
(488,1023,l),
(488,78,l),
(650,78,l),
(650,0,l),
(61,0,l),
(61,78,l)
);
}
);
width = 683;
}
);
unicode = 105;
},
{
category = Letter;
glyphname = j;
layers = (
{
layerId = "2adea82c-006a-4377-a520-f6b591c948da";
name = Fore;
shapes = (
{
closed = 1;
nodes = (
(312,1227,o),
(271,1266.5,q),
(230,1306,o),
(230,1350,q),
(230,1424,o),
(270,1464,q),
(310,1504,o),
(368,1504,q),
(460,1504,o),
(496,1420,q),
(506,1395,o),
(506,1366,q),
(506,1306,o),
(466,1266.5,q),
(426,1227,o),
(369,1227,q)
);
},
{
closed = 1;
nodes = (
(86,945,l),
(86,1023,l),
(498,1023,l),
(498,-45,l),
(498,-410,o),
(276,-518,q),
(191,-560,o),
(83,-560,q),
(63,-484,l),
(119,-484,o),
(152.5,-458.5,q),
(186,-433,o),
(209.5,-358,q),
(233,-283,o),
(233,7,q),
(233,945,l)
);
}
);
width = 683;
}
);
unicode = 106;
},
{
category = Letter;
glyphname = k;
layers = (
{
layerId = "2adea82c-006a-4377-a520-f6b591c948da";
name = Fore;
shapes = (
{
closed = 1;
nodes = (
(212,78,l),
(212,1606,l),
(59,1606,l),
(59,1684,l),
(472,1684,l),
(472,516,l),
(978,946,l),
(792,946,l),
(792,1023,l),
(1238,1023,l),
(1238,946,l),
(1107,946,l),
(784,676,l),
(1200,78,l),
(1337,78,l),
(1337,0,l),
(762,0,l),
(762,78,l),
(903,78,l),
(601,523,l),
(472,415,l),
(472,78,l),
(620,78,l),
(620,0,l),
(59,0,l),
(59,78,l)
);
}
);
width = 1367;
}
);
unicode = 107;
},
{
category = Letter;
glyphname = l;
layers = (
{
layerId = "2adea82c-006a-4377-a520-f6b591c948da";
name = Fore;
shapes = (
{
closed = 1;
nodes = (
(216,78,l),
(216,1605,l),
(53,1605,l),
(53,1684,l),
(481,1684,l),
(481,78,l),
(649,78,l),
(649,0,l),
(60,0,l),
(60,78,l)
);
}
);
width = 683;
}
);
unicode = 108;
},
{
category = Letter;
glyphname = m;
layers = (
{
layerId = "2adea82c-006a-4377-a520-f6b591c948da";
name = Fore;
shapes = (
{
closed = 1;
nodes = (
(598,944,o),
(482,807,q),
(482,78,l),
(645,78,l),
(645,0,l),
(60,0,l),
(60,78,l),
(222,78,l),
(222,947,l),
(59,947,l),
(59,1023,l),
(482,1023,l),
(482,909,l),
(625,1040,o),
(791.5,1040,q),
(958,1040,o),
(1063,949,q),
(1101,916,o),
(1126,867,q),
(1284,1040,o),
(1485,1040,q),
(1618,1040,o),
(1722,972,q),
(1854,884,o),
(1854,692,q),
(1854,78,l),
(2017,78,l),
(2017,0,l),
(1422,0,l),
(1422,78,l),
(1594,78,l),
(1594,722,l),
(1594,831,o),
(1568,872,q),
(1542,913,o),
(1511.5,928.5,q),
(1481,944,o),
(1436,944,q),
(1349,944,o),
(1276,900,q),
(1203,856,o),
(1155,783,q),
(1162,741,o),
(1162,706,q),
(1162,78,l),
(1325,78,l),
(1325,0,l),
(740,0,l),
(740,78,l),
(902,78,l),
(902,729,l),
(902,834,o),
(879,873.5,q),
(856,913,o),
(826.5,928.5,q),
(797,944,o),
(752,944,q)
);
}
);
width = 2042;
}
);
unicode = 109;
},
{
category = Letter;
glyphname = n;
layers = (
{
layerId = "2adea82c-006a-4377-a520-f6b591c948da";
name = Fore;
shapes = (
{
closed = 1;
nodes = (
(611,945,o),
(479,794,q),
(479,78,l),
(661,78,l),
(661,0,l),
(57,0,l),
(57,78,l),
(219,78,l),
(219,945,l),
(56,945,l),
(56,1023,l),
(479,1023,l),
(479,895,l),
(629,1040,o),
(822,1040,q),
(955,1040,o),
(1058,972,q),
(1191,884,o),
(1191,692,q),
(1191,78,l),
(1353,78,l),
(1353,0,l),
(749,0,l),
(749,78,l),
(931,78,l),
(931,712,l),
(931,829,o),
(906.5,871,q),
(882,913,o),
(851.5,929,q),
(821,945,o),
(774,945,q)
);
}
);
width = 1365;
}
);
unicode = 110;
},
{
category = Letter;
glyphname = o;
layers = (
{
layerId = "2adea82c-006a-4377-a520-f6b591c948da";
name = Fore;
shapes = (
{
closed = 1;
nodes = (
(372,1040,o),
(599.5,1040,q),
(827,1040,o),
(974.5,894.5,q),
(1122,749,o),
(1122,512.5,q),
(1122,276,o),
(975.5,128,q),
(829,-20,o),
(600,-20,q),
(371,-20,o),
(221.5,128,q),
(72,276,o),
(72,512,q),
(72,748,o),
(222,894,q)
);
},
{
closed = 1;
nodes = (
(799,63,o),
(834,338,q),
(844,420,o),
(844,514,q),
(844,725,o),
(796,830,q),
(737,956,o),
(597,956,q),
(395,956,o),
(360,690,q),
(350,609,o),
(350,514,q),
(350,302,o),
(398,194,q),
(458,63,o),
(597,63,q)
);
}
);
width = 1194;
}
);
unicode = 111;
},
{
category = Letter;
glyphname = p;
layers = (
{
layerId = "2adea82c-006a-4377-a520-f6b591c948da";
name = Fore;
shapes = (
{
closed = 1;
nodes = (
(586,1040,o),
(824,1040,q),
(903,1040,o),
(988.5,1009.5,q),
(1074,979,o),
(1138,914,q),
(1278,773,o),
(1278,520,q),
(1278,267,o),
(1133,123.5,q),
(988,-20,o),
(779,-20,q),
(645,-20,o),
(532,35,q),
(497,52,o),
(470,73,q),
(470,-482,l),
(651,-482,l),
(651,-560,l),
(60,-560,l),
(60,-482,l),
(210,-482,l),
(210,943,l),
(50,943,l),
(50,1023,l),
(470,1023,l),
(470,914,l)
);
},
{
closed = 1;
nodes = (
(998,66,o),
(998,506,q),
(998,833,o),
(857,918,q),
(808,948,o),
(732,947,q),
(656,946,o),
(585.5,904,q),
(515,862,o),
(470,793,q),
(470,180,l),
(545,99,o),
(667,74,q),
(703,66,o),
(737,66,q)
);
}
);
width = 1365;
}
);
unicode = 112;
},
{
category = Letter;
glyphname = q;
layers = (
{
layerId = "2adea82c-006a-4377-a520-f6b591c948da";
name = Fore;
shapes = (
{
closed = 1;
nodes = (
(792,-20,o),
(556,-20,q),
(479,-20,o),
(393.5,10.5,q),
(308,41,o),
(243.5,106,q),
(179,171,o),
(141.5,271.5,q),
(104,372,o),
(104,504,q),
(104,753,o),
(249,896.5,q),
(394,1040,o),
(603,1040,q),
(735,1040,o),
(848,986,q),
(883,969,o),
(910,948,q),
(910,1023,l),
(1318,1023,l),
(1318,945,l),
(1170,945,l),
(1170,-482,l),
(1320,-482,l),
(1320,-560,l),
(729,-560,l),
(729,-482,l),
(910,-482,l),
(910,104,l)
);
},
{
closed = 1;
nodes = (
(384,954,o),
(384,514,q),
(384,187,o),
(525,102,q),
(574,72,o),
(649.5,72.5,q),
(725,73,o),
(794.5,114,q),
(864,155,o),
(910,224,q),
(910,842,l),
(833,922,o),
(714,946,q),
(678,954,o),
(645,954,q)
);
}
);
width = 1365;
}
);
unicode = 113;
},
{
category = Letter;
glyphname = r;
layers = (
{
layerId = "2adea82c-006a-4377-a520-f6b591c948da";
name = Fore;
shapes = (
{
closed = 1;
nodes = (
(659,1040,o),
(846,1040,q),
(906,1040,o),
(952,1000,q),
(998,960,o),
(998,897.5,q),
(998,835,o),
(959,796,q),
(920,757,o),
(864,757,q),
(808,757,o),
(769.5,795.5,q),
(731,834,o),
(731,891,q),
(731,914,o),
(739,938,q),
(594,894,o),
(498,789,q),
(498,77,l),
(717,77,l),
(717,0,l),
(87,0,l),
(87,77,l),
(236,77,l),
(236,945,l),
(86,945,l),
(86,1023,l),
(498,1023,l),
(498,885,l)
);
}
);
width = 1024;
}
);
unicode = 114;
},
{
category = Letter;
glyphname = s;
layers = (
{
layerId = "2adea82c-006a-4377-a520-f6b591c948da";
name = Fore;
shapes = (
{
closed = 1;
nodes = (
(235,51,o),
(231,0,q),
(135,0,l),
(139,301,l),
(231,301,l),
(231,224,o),
(327.5,143,q),
(424,62,o),
(572,62,q),
(720,62,o),
(760,148,q),
(771,173,o),
(771,200,q),
(771,250,o),
(702.5,292,q),
(634,334,o),
(477.5,390,q),
(321,446,o),
(231,534.5,q),
(141,623,o),
(141,750.5,q),
(141,878,o),
(255,959,q),
(369,1040,o),
(518.5,1040,q),
(668,1040,o),
(759,966,q),
(787,975,o),
(803,1010,q),
(809,1022,o),
(809,1039,q),
(885,1039,l),
(885,760,l),
(797,760,l),
(780,854,o),
(706.5,906.5,q),
(633,959,o),
(534,959,q),
(435,959,o),
(381.5,920.5,q),
(328,882,o),
(328,827,q),
(328,772,o),
(389.5,726.5,q),
(451,681,o),
(563.5,641.5,q),
(676,602,o),
(740,572,q),
(945,473,o),
(945,285.5,q),
(945,98,o),
(735,13,q),
(653,-20,o),
(568,-20,q),
(391,-20,o),
(267,73,q)
);
}
);
width = 1024;
}
);
unicode = 115;
},
{
category = Letter;
glyphname = t;
layers = (
{
layerId = "2adea82c-006a-4377-a520-f6b591c948da";
name = Fore;
shapes = (
{
closed = 1;
nodes = (
(178,-20,o),
(178,312,q),
(178,945,l),
(57,945,l),
(57,1023,l),
(178,1023,l),
(178,1329,l),
(269,1329,o),
(400,1376,q),
(430,1387,o),
(443,1395,q),
(443,1023,l),
(772,1023,l),
(772,945,l),
(443,945,l),
(443,240,l),
(443,148,o),
(481.5,107.5,q),
(520,67,o),
(584,67,q),
(684,67,o),
(764,156,q),
(817,109,l),
(745,20,o),
(621,-10,q),
(580,-20,o),
(535,-20,q)
);
}
);
width = 853;
}
);
unicode = 116;
},
{
category = Letter;
glyphname = u;
layers = (
{
layerId = "2adea82c-006a-4377-a520-f6b591c948da";
name = Fore;
shapes = (
{
closed = 1;
nodes = (
(755,-20,o),
(600.5,-20,q),
(446,-20,o),
(339,42,q),
(191,129,o),
(191,333,q),
(191,945,l),
(49,945,l),
(49,1023,l),
(451,1023,l),
(451,287,l),
(451,76,o),
(646,76,q),
(781,76,o),
(888,200,q),
(888,945,l),
(715,945,l),
(715,1023,l),
(1146,1023,l),
(1146,78,l),
(1275,78,l),
(1275,0,l),
(888,0,l),
(888,98,l)
);
}
);
width = 1366;
}
);
unicode = 117;
},
{
category = Letter;
glyphname = v;
layers = (
{
layerId = "2adea82c-006a-4377-a520-f6b591c948da";
name = Fore;
shapes = (
{
closed = 1;
nodes = (
(-1,945,l),
(-1,1023,l),
(526,1023,l),
(526,945,l),
(397,945,l),
(697,258,l),
(967,945,l),
(832,945,l),
(832,1023,l),
(1196,1023,l),
(1196,945,l),
(1066,945,l),
(670,-20,l),
(565,-20,l),
(103,945,l)
);
}
);
width = 1195;
}
);
unicode = 118;
},
{
category = Letter;
glyphname = w;
layers = (
{
layerId = "2adea82c-006a-4377-a520-f6b591c948da";
name = Fore;
shapes = (
{
closed = 1;
nodes = (
(0,945,l),
(0,1023,l),
(472,1023,l),
(472,945,l),
(352,945,l),
(629,315,l),
(913,1023,l),
(983,1023,l),
(1301,317,l),
(1539,945,l),
(1393,945,l),
(1393,1023,l),
(1739,1023,l),
(1739,945,l),
(1628,945,l),
(1263,-20,l),
(1183,-20,l),
(862,673,l),
(584,-20,l),
(505,-20,l),
(69,945,l)
);
}
);
width = 1706;
}
);
unicode = 119;
},
{
category = Letter;
glyphname = x;
layers = (
{
layerId = "2adea82c-006a-4377-a520-f6b591c948da";
name = Fore;
shapes = (
{
closed = 1;
nodes = (
(188,78,l),
(501,450,l),
(130,945,l),
(31,945,l),
(31,1023,l),
(565,1023,l),
(565,945,l),
(422,945,l),
(658,633,l),
(915,945,l),
(776,945,l),
(776,1023,l),
(1140,1023,l),
(1140,945,l),
(1026,945,l),
(709,566,l),
(1080,78,l),
(1181,78,l),
(1181,0,l),
(652,0,l),
(652,78,l),
(780,78,l),
(552,383,l),
(300,78,l),
(433,78,l),
(433,0,l),
(48,0,l),
(48,78,l)
);
}
);
width = 1195;
}
);
unicode = 120;
},
{
category = Letter;
glyphname = y;
layers = (
{
layerId = "2adea82c-006a-4377-a520-f6b591c948da";
name = Fore;
shapes = (
{
closed = 1;
nodes = (
(169,-273,o),
(215.5,-273,q),
(262,-273,o),
(295.5,-308.5,q),
(329,-344,o),
(329,-386,q),
(329,-428,o),
(304,-462,q),
(342,-456,o),
(381,-403.5,q),
(420,-351,o),
(473,-242,q),
(565,-20,l),
(103,945,l),
(-4,945,l),
(-4,1023,l),
(535,1023,l),
(535,945,l),
(396,945,l),
(698,259,l),
(968,945,l),
(793,945,l),
(793,1023,l),
(1168,1023,l),
(1168,945,l),
(1066,945,l),
(670,-20,l),
(549,-292,l),
(478,-433,o),
(428.5,-480,q),
(379,-527,o),
(339,-543.5,q),
(299,-560,o),
(256,-560,q),
(175,-560,o),
(121,-515.5,q),
(67,-471,o),
(67,-410,q),
(67,-349,o),
(93.5,-321.5,q),
(120,-294,o),
(144.5,-283.5,q)
);
}
);
width = 1195;
}
);
unicode = 121;
},
{
category = Letter;
glyphname = z;
layers = (
{
layerId = "2adea82c-006a-4377-a520-f6b591c948da";
name = Fore;
shapes = (
{
closed = 1;
nodes = (
(657,947,l),
(433,947,l),
(307,947,o),
(256.5,886.5,q),
(206,826,o),
(184,696,q),
(113,696,l),
(113,1023,l),
(939,1023,l),
(939,946,l),
(369,76,l),
(648,76,l),
(790,76,o),
(843,144,q),
(880,192,o),
(894,317,q),
(963,317,l),
(963,0,l),
(81,0,l),
(81,78,l)
);
}
);
width = 1024;
}
);
unicode = 122;
},
{
category = Letter;
glyphname = braceleft;
layers = (
{
layerId = "2adea82c-006a-4377-a520-f6b591c948da";
name = Fore;
shapes = (
{
closed = 1;
nodes = (
(630,1640,o),
(630,1352,q),
(630,1300,o),
(634,1251,q),
(641,1150,l),
(652,1009,o),
(652,966,q),
(652,641,o),
(327,605,q),
(327,597,l),
(652,556,o),
(652,206,q),
(652,173,o),
(648,128,q),
(634,-56,l),
(630,-100,o),
(630,-150,q),
(630,-435,o),
(907,-497,q),
(887,-560,l),
(635,-520,o),
(512,-370,q),
(415,-253,o),
(415,-90,q),
(438,262,l),
(438,401,o),
(390,462,q),
(324,547,o),
(141,567,q),
(141,635,l),
(402,664,o),
(430,810,q),
(438,856,o),
(438,910,q),
(415,1294,l),
(415,1556,o),
(657,1690,q),
(748,1741,o),
(887,1764,q),
(907,1701,l)
);
}
);
width = 1024;
}
);
unicode = 123;
},
{
category = Letter;
glyphname = bar;
layers = (
{
layerId = "2adea82c-006a-4377-a520-f6b591c948da";
name = Fore;
shapes = (
{
closed = 1;
nodes = (
(320,1686,l),
(320,-300,l),
(192,-300,l),
(192,1686,l)
);
}
);
width = 512;
}
);
unicode = 124;
},
{
category = Letter;
glyphname = braceright;
layers = (
{
layerId = "2adea82c-006a-4377-a520-f6b591c948da";
name = Fore;
shapes = (
{
closed = 1;
nodes = (
(394,1640,o),
(394,1352,q),
(394,1300,o),
(390,1251,q),
(383,1150,l),
(372,1009,o),
(372,966,q),
(372,641,o),
(697,605,q),
(697,597,l),
(372,556,o),
(372,206,q),
(372,173,o),
(376,128,q),
(390,-56,l),
(394,-100,o),
(394,-150,q),
(394,-435,o),
(117,-497,q),
(137,-560,l),
(389,-520,o),
(512,-370,q),
(609,-253,o),
(609,-90,q),
(586,262,l),
(586,401,o),
(634,462,q),
(700,547,o),
(883,567,q),
(883,635,l),
(622,664,o),
(594,810,q),
(586,856,o),
(586,910,q),
(609,1294,l),
(609,1556,o),
(367,1690,q),
(276,1741,o),
(137,1764,q),
(117,1701,l)
);
}
);
width = 1024;
}
);
unicode = 125;
},
{
category = Letter;
glyphname = asciitilde;
layers = (
{
layerId = "2adea82c-006a-4377-a520-f6b591c948da";
name = Fore;
shapes = (
{
closed = 1;
nodes = (
(911,614,o),
(761,614,q),
(683,614,o),
(594.5,649.5,q),
(506,685,o),
(459.5,701,q),
(413,717,o),
(370.5,717,q),
(328,717,o),
(293.5,689,q),
(259,661,o),
(223,621,q),
(181,651,l),
(237,751,o),
(276,794,q),
(356,882,o),
(425,882,q),
(494,882,o),
(545.5,866.5,q),
(597,851,o),
(644,833,q),
(736,800,l),
(781,784,o),
(818,784,q),
(880,784,o),
(914.5,808.5,q),
(949,833,o),
(978,875,q),
(1022,850,l)
);
}
);
width = 1236;
}
);
unicode = 126;
},
{
category = Letter;
glyphname = exclamdown;
layers = (
{
layerId = "2adea82c-006a-4377-a520-f6b591c948da";
name = Fore;
shapes = (
{
closed = 1;
nodes = (
(587,57,o),
(587,30,q),
(587,-31,o),
(539,-77.5,q),
(491,-124,o),
(426,-124,q),
(361,-124,o),
(313,-77.5,q),
(265,-31,o),
(265,38,q),
(265,57,o),
(268,72,q),
(379,1114,l),
(473,1114,l),
(584,72,l)
);
},
{
closed = 1;
nodes = (
(585,1313,o),
(489,1271,q),
(460,1259,o),
(426,1259,q),
(358,1259,o),
(312,1305,q),
(266,1351,o),
(266,1419.5,q),
(266,1488,o),
(311.5,1533.5,q),
(357,1579,o),
(425.5,1579,q),
(494,1579,o),
(539.5,1533.5,q),
(585,1488,o),
(585,1420,q)
);
}
);
width = 852;
}
);
unicode = 161;
},
{
category = Letter;
glyphname = cent;
layers = (
{
layerId = "2adea82c-006a-4377-a520-f6b591c948da";
name = Fore;
shapes = (
{
closed = 1;
nodes = (
(930,76,o),
(1042,192,q),
(1094,144,l),
(1011,38,o),
(853,-4,q),
(795,-20,o),
(756,-20,q),
(712,-20,l),
(705,-20,o),
(698,-19,q),
(680,-255,l),
(602,-255,l),
(620,-12,l),
(414,17,o),
(288.5,157,q),
(163,297,o),
(163,526,q),
(163,755,o),
(317,895.5,q),
(471,1036,o),
(710,1040,q),
(730,1255,l),
(809,1255,l),
(789,1035,l),
(989,1013,o),
(1066,898,q),
(1093,857,o),
(1093,816,q),
(1093,745,o),
(1054.5,703,q),
(1016,661,o),
(974,661,q),
(903,661,o),
(864,698.5,q),
(825,736,o),
(825,791,q),
(825,881,o),
(900,917,q),
(885,928,o),
(840.5,941.5,q),
(796,955,o),
(727,955,q),
(439,955,o),
(439,514,q),
(439,198,o),
(613,106,q),
(671,76,o),
(748,76,q)
);
}
);
width = 1197;
}
);
unicode = 162;
},
{
category = Letter;
glyphname = sterling;
layers = (
{
layerId = "2adea82c-006a-4377-a520-f6b591c948da";
name = Fore;
shapes = (
{
closed = 1;
nodes = (
(605,578,l),
(605,480,o),
(581.5,429.5,q),
(558,379,o),
(500,332,q),
(565,324,o),
(622,300,q),
(622,300,o),
(736,252,q),
(880,186,o),
(970,186,q),
(1051,186,o),
(1154,320,q),
(1187,363,l),
(1250,316,l),
(1212,250,l),
(1053,-22,o),
(901,-22,q),
(820,-22,o),
(747,2,q),
(674,26,o),
(604,55,q),
(534,84,o),
(465,108,q),
(396,132,o),
(346,132,q),
(296,132,o),
(269,117,q),
(219,89,o),
(162,30,q),
(115,-22,l),
(56,23,l),
(96,84,o),
(178,166,q),
(356,373,o),
(343,559,q),
(339,601,l),
(40,601,l),
(47,679,l),
(331,679,l),
(305,850,l),
(60,850,l),
(67,928,l),
(295,928,l),
(263,1178,o),
(322,1308,q),
(358,1388,o),
(420,1440,q),
(542,1545,o),
(722.5,1545,q),
(903,1545,o),
(1003.5,1468,q),
(1104,1391,o),
(1104,1281,q),
(1104,1224,o),
(1066,1186,q),
(1028,1148,o),
(978,1148,q),
(928,1148,o),
(891.5,1181,q),
(855,1214,o),
(855,1254,q),
(855,1320,o),
(887,1352,q),
(919,1384,o),
(961,1388,q),
(945,1421,o),
(892.5,1443.5,q),
(840,1466,o),
(769,1466,q),
(540,1466,o),
(545,1120,q),
(545,1057,o),
(563,928,q),
(898,928,l),
(891,850,l),
(575,850,l),
(588,764,l),
(595,721,o),
(599,679,q),
(878,679,l),
(871,601,l),
(604,601,l)
);
}
);
width = 1367;
}
);
unicode = 163;
},
{
category = Letter;
glyphname = currency;
layers = (
{
layerId = "2adea82c-006a-4377-a520-f6b591c948da";
name = Fore;
shapes = (
{
closed = 1;
nodes = (
(803,198,o),
(682.5,198,q),
(562,198,o),
(462,265,q),
(308,112,l),
(208,212,l),
(359,363,l),
(282,472,o),
(282,601.5,q),
(282,731,o),
(361,840,q),
(210,992,l),
(310,1093,l),
(464,938,l),
(566,1004,o),
(684.5,1004,q),
(803,1004,o),
(905,938,q),
(1060,1093,l),
(1160,992,l),
(1008,840,l),
(1088,733,o),
(1088,600,q),
(1088,467,o),
(1008,360,q),
(1159,209,l),
(1059,108,l),
(904,263,l)
);
},
{
closed = 1;
nodes = (
(574,868,o),
(498.5,789,q),
(423,710,o),
(423,600.5,q),
(423,491,o),
(498.5,412,q),
(574,333,o),
(684,333,q),
(794,333,o),
(870.5,411.5,q),
(947,490,o),
(947,600.5,q),
(947,711,o),
(870.5,789.5,q),
(794,868,o),
(684,868,q)
);
}
);
width = 1368;
}
);
unicode = 164;
},
{
category = Letter;
glyphname = yen;
layers = (
{
layerId = "2adea82c-006a-4377-a520-f6b591c948da";
name = Fore;
shapes = (
{
closed = 1;
nodes = (
(649,418,l),
(650,589,l),
(643,601,l),
(255,601,l),
(262,679,l),
(596,679,l),
(135,1452,l),
(10,1452,l),
(10,1530,l),
(654,1530,l),
(654,1452,l),
(451,1452,l),
(863,733,l),
(1266,1452,l),
(1082,1452,l),
(1082,1530,l),
(1524,1530,l),
(1524,1452,l),
(1374,1452,l),
(934,679,l),
(1303,679,l),
(1296,601,l),
(919,601,l),
(919,418,l),
(1283,418,l),
(1276,340,l),
(919,340,l),
(919,78,l),
(1068,78,l),
(1068,0,l),
(501,0,l),
(501,78,l),
(649,78,l),
(649,340,l),
(235,340,l),
(242,418,l)
);
}
);
width = 1539;
}
);
unicode = 165;
},
{
category = Letter;
glyphname = brokenbar;
layers = (
{
layerId = "2adea82c-006a-4377-a520-f6b591c948da";
name = Fore;
shapes = (
{
closed = 1;
nodes = (
(322,1684,l),
(322,820,l),
(194,820,l),
(194,1684,l)
);
},
{
closed = 1;
nodes = (
(320,528,l),
(320,-300,l),
(192,-300,l),
(192,528,l)
);
}
);
width = 512;
}
);
unicode = 166;
},
{
category = Letter;
glyphname = section;
layers = (
{
layerId = "2adea82c-006a-4377-a520-f6b591c948da";
name = Fore;
shapes = (
{
closed = 1;
nodes = (
(234,-250,o),
(234,-320,q),
(145,-320,l),
(145,88,l),
(248,88,l),
(287,-67,o),
(407,-162,q),
(527,-257,o),
(699,-257,q),
(924,-257,o),
(1000,-152,q),
(1026,-117,o),
(1026,-72,q),
(1026,23,o),
(951,88.5,q),
(876,154,o),
(687.5,216,q),
(499,278,o),
(403.5,331,q),
(308,384,o),
(253,442,q),
(156,546,o),
(156,695.5,q),
(156,845,o),
(250.5,936,q),
(345,1027,o),
(506,1062,q),
(219,1186,o),
(172,1365,q),
(156,1423,o),
(156,1501,q),
(156,1579,o),
(198.5,1650,q),
(241,1721,o),
(314,1770,q),
(466,1871,o),
(691,1871,q),
(916,1871,o),
(1032,1775,q),
(1056,1808,o),
(1058,1851,q),
(1151,1851,l),
(1151,1479,l),
(1055,1479,l),
(1040,1629,o),
(934.5,1708.5,q),
(829,1788,o),
(686.5,1788,q),
(544,1788,o),
(451,1739,q),
(358,1690,o),
(358,1599.5,q),
(358,1509,o),
(440,1440,q),
(522,1371,o),
(785,1263,q),
(1027,1176,o),
(1123.5,1085,q),
(1220,994,o),
(1220,862,q),
(1220,694,o),
(1117,591,q),
(1014,488,o),
(841,461,q),
(1053,379,o),
(1136.5,292.5,q),
(1220,206,o),
(1220,92,q),
(1220,-116,o),
(1070.5,-228,q),
(921,-340,o),
(710,-340,q),
(499,-340,o),
(350,-256,q),
(305,-231,o),
(275,-204,q)
);
},
{
closed = 1;
nodes = (
(928,524,o),
(1002,629,q),
(1026,664,o),
(1026,709,q),
(1026,804,o),
(952,868,q),
(878,932,o),
(654,1006,q),
(526,1002,o),
(442,953.5,q),
(358,905,o),
(358,821,q),
(358,737,o),
(422.5,673,q),
(487,609,o),
(683,524,q),
(709,524,l)
);
}
);
width = 1366;
}
);
unicode = 167;
},
{
category = Letter;
glyphname = dieresis;
layers = (
{
layerId = "2adea82c-006a-4377-a520-f6b591c948da";
name = Fore;
shapes = (
{
closed = 1;
nodes = (
(861,1285,o),
(785,1254,q),
(762,1244,o),
(736,1244,q),
(687,1244,o),
(650.5,1278.5,q),
(614,1313,o),
(614,1352,q),
(614,1416,o),
(650,1452,q),
(687,1487,o),
(724,1487,q),
(789,1487,o),
(825,1451,q),
(861,1415,o),
(861,1377,q)
);
},
{
closed = 1;
nodes = (
(405,1285,o),
(329,1254,q),
(306,1244,o),
(280,1244,q),
(231,1244,o),
(194.5,1278.5,q),
(158,1313,o),
(158,1352,q),
(158,1416,o),
(194,1452,q),
(231,1487,o),
(268,1487,q),
(333,1487,o),
(369,1451,q),
(405,1415,o),
(405,1377,q)
);
}
);
width = 1019;
}
);
unicode = 168;
},
{
category = Letter;
glyphname = copyright;
layers = (
{
layerId = "2adea82c-006a-4377-a520-f6b591c948da";
name = Fore;
shapes = (
{
closed = 1;
nodes = (
(2124,248,o),
(1991.5,22.5,q),
(1859,-203,o),
(1632.5,-335.5,q),
(1406,-468,o),
(1138,-468,q),
(870,-468,o),
(644.5,-335.5,q),
(419,-203,o),
(287,21.5,q),
(155,246,o),
(155,514.5,q),
(155,783,o),
(287,1009,q),
(419,1235,o),
(645.5,1368,q),
(872,1501,o),
(1138.5,1501,q),
(1405,1501,o),
(1632,1368.5,q),
(1859,1236,o),
(1991.5,1009,q),
(2124,782,o),
(2124,515,q)
);
},
{
closed = 1;
nodes = (
(261,141,o),
(514,-122,q),
(594,-205,o),
(692,-264,q),
(896,-386,o),
(1139.5,-386,q),
(1383,-386,o),
(1583,-266,q),
(1783,-146,o),
(1900,60,q),
(2017,266,o),
(2017,511.5,q),
(2017,757,o),
(1900,965,q),
(1783,1173,o),
(1583,1295,q),
(1383,1417,o),
(1139.5,1417,q),
(896,1417,o),
(695,1294.5,q),
(494,1172,o),
(377.5,964.5,q),
(261,757,o),
(261,512,q)
);
},
{
closed = 1;
nodes = (
(1362,1040,o),
(1463,945,q),
(1484,977,o),
(1490,1023,q),
(1580,1023,l),
(1580,720,l),
(1490,720,l),
(1472,800,o),
(1396.5,860.5,q),
(1321,921,o),
(1232.5,921,q),
(1144,921,o),
(1092,890,q),
(936,796,o),
(936,516,q),
(936,236,o),
(1084,136,q),
(1140,98,o),
(1204,98,q),
(1307,98,o),
(1381.5,149.5,q),
(1456,201,o),
(1487,270,q),
(1573,219,l),
(1517,66,o),
(1339,4,q),
(1273,-19,o),
(1163.5,-19,q),
(1054,-19,o),
(949.5,22.5,q),
(845,64,o),
(773,136,q),
(625,284,o),
(625,509.5,q),
(625,735,o),
(775.5,887.5,q),
(926,1040,o),
(1206,1040,q)
);
}
);
width = 2243;
}
);
unicode = 169;
},
{
category = Letter;
glyphname = ordfeminine;
layers = (
{
layerId = "2adea82c-006a-4377-a520-f6b591c948da";
name = Fore;
shapes = (
{
closed = 1;
nodes = (
(567,1040,o),
(427,1040,q),
(331,1040,o),
(267,1092.5,q),
(203,1145,o),
(203,1223.5,q),
(203,1302,o),
(273.5,1352,q),
(344,1402,o),
(450,1402,q),
(556,1402,o),
(633,1361,q),
(633,1502,l),
(633,1570,o),
(610,1593,q),
(566,1635,o),
(495,1635,q),
(424,1635,o),
(377,1617,q),
(430,1596,o),
(430,1551.5,q),
(430,1507,o),
(399.5,1481,q),
(369,1455,o),
(338,1455,q),
(285,1455,o),
(255.5,1479.5,q),
(226,1504,o),
(226,1542,q),
(226,1611,o),
(317,1653.5,q),
(408,1696,o),
(505,1696,q),
(665,1696,o),
(741.5,1640,q),
(818,1584,o),
(818,1487,q),
(818,1161,l),
(818,1112,o),
(845,1112,q),
(872,1112,o),
(894,1137,q),
(934,1103,l),
(914,1077,o),
(873,1058.5,q),
(832,1040,o),
(787,1040,q),
(685,1040,o),
(649,1114,q)
);
},
{
closed = 1;
nodes = (
(392,1334,o),
(392,1223,q),
(392,1142,o),
(464,1116,q),
(483,1109,o),
(502,1109,q),
(575,1109,o),
(635,1186,q),
(635,1282,l),
(574,1334,o),
(505,1334,q)
);
}
);
width = 1028;
}
);
unicode = 170;
},
{
category = Letter;
glyphname = guillemotleft;
layers = (
{
layerId = "2adea82c-006a-4377-a520-f6b591c948da";
name = Fore;
shapes = (
{
closed = 1;
nodes = (
(510,715,o),
(626.5,804.5,q),
(743,894,o),
(812,956,q),
(858,906,l),
(772,787,o),
(681,688,q),
(505,499,l),
(681,310,l),
(772,211,o),
(858,91,q),
(812,41,l),
(741,101,o),
(665,158,q),
(468,299,o),
(377,357,q),
(218,459,l),
(218,538,l)
);
},
{
closed = 1;
nodes = (
(1140,715,o),
(1256.5,804.5,q),
(1373,894,o),
(1442,956,q),
(1488,906,l),
(1402,787,o),
(1311,688,q),
(1135,499,l),
(1311,310,l),
(1402,211,o),
(1488,91,q),
(1442,41,l),
(1371,101,o),
(1295,158,q),
(1098,299,o),
(1007,357,q),
(848,459,l),
(848,538,l)
);
}
);
width = 1705;
}
);
unicode = 171;
},
{
category = Letter;
glyphname = logicalnot;
layers = (
{
layerId = "2adea82c-006a-4377-a520-f6b591c948da";
name = Fore;
shapes = (
{
closed = 1;
nodes = (
(1179,645,l),
(1179,227,l),
(1075,227,l),
(1075,545,l),
(310,545,l),
(310,645,l)
);
}
);
width = 1536;
}
);
unicode = 172;
},
{
category = Letter;
glyphname = registered;
layers = (
{
layerId = "2adea82c-006a-4377-a520-f6b591c948da";
name = Fore;
shapes = (
{
closed = 1;
nodes = (
(1644,926,o),
(1536.5,741,q),
(1429,556,o),
(1245,447.5,q),
(1061,339,o),
(842.5,339,q),
(624,339,o),
(439,447.5,q),
(254,556,o),
(146.5,741,q),
(39,926,o),
(39,1146,q),
(39,1366,o),
(148,1555,q),
(311,1838,o),
(628,1927,q),
(730,1956,o),
(841.5,1956,q),
(953,1956,o),
(1056,1927,q),
(1159,1898,o),
(1248,1846,q),
(1429,1739,o),
(1536.5,1552.5,q),
(1644,1366,o),
(1644,1146,q)
);
},
{
closed = 1;
nodes = (
(136,844,o),
(341.5,632.5,q),
(547,421,o),
(843.5,421,q),
(1140,421,o),
(1344,633.5,q),
(1548,846,o),
(1548,1145.5,q),
(1548,1445,o),
(1344,1658,q),
(1216,1793,o),
(1033,1846,q),
(942,1873,o),
(842.5,1873,q),
(743,1873,o),
(652,1846.5,q),
(561,1820,o),
(482,1772,q),
(324,1677,o),
(230,1510,q),
(136,1343,o),
(136,1145,q)
);
},
{
closed = 1;
nodes = (
(1205,1162,o),
(1003,1105,q),
(1131,1073,o),
(1167,936,q),
(1189,854,o),
(1211,831,q),
(1233,808,o),
(1269,808,q),
(1294,808,l),
(1294,734,l),
(1180,734,l),
(1082,734,o),
(1055.5,755,q),
(1029,776,o),
(1018,804,q),
(1007,832,o),
(999,869,q),
(979,961,o),
(946,1004,q),
(894,1076,o),
(788,1076,q),
(676,1076,l),
(676,815,l),
(822,815,l),
(822,737,l),
(405,737,l),
(405,815,l),
(502,815,l),
(503,1499,l),
(419,1499,l),
(419,1577,l),
(828,1577,l),
(1111,1577,o),
(1182,1432,q),
(1205,1385,o),
(1205,1330,q)
);
},
{
closed = 1;
nodes = (
(928,1151,o),
(973.5,1201.5,q),
(1019,1252,o),
(1019,1303,q),
(1019,1402,o),
(974,1450.5,q),
(929,1499,o),
(809,1499,q),
(676,1499,l),
(676,1151,l),
(819,1151,l)
);
}
);
width = 1695;
}
);
unicode = 174;
},
{
category = Letter;
glyphname = macron;
layers = (
{
layerId = "2adea82c-006a-4377-a520-f6b591c948da";
name = Fore;
shapes = (
{
closed = 1;
nodes = (
(1162,1414,l),
(1162,1291,l),
(505,1291,l),
(505,1414,l)
);
}
);
width = 1707;
}
);
unicode = 175;
},
{
category = Letter;
glyphname = degree;
layers = (
{
layerId = "2adea82c-006a-4377-a520-f6b591c948da";
name = Fore;
shapes = (
{
closed = 1;
nodes = (
(169,1210,o),
(169,1360,q),
(169,1510,o),
(271.5,1603,q),
(374,1696,o),
(516,1696,q),
(658,1696,o),
(758.5,1603,q),
(859,1510,o),
(859,1360,q),
(859,1210,o),
(759.5,1116.5,q),
(660,1023,o),
(516.5,1023,q),
(373,1023,o),
(271,1116.5,q)
);
},
{
closed = 1;
nodes = (
(618,1126,o),
(669,1196.5,q),
(720,1267,o),
(720,1361,q),
(720,1513,o),
(611,1572,q),
(572,1593,o),
(515,1593,q),
(410,1593,o),
(359,1523.5,q),
(308,1454,o),
(308,1361,q),
(308,1210,o),
(418,1148,q),
(458,1126,o),
(515,1126,q)
);
}
);
width = 1028;
}
);
unicode = 176;
},
{
category = Letter;
glyphname = plusminus;
layers = (
{
layerId = "2adea82c-006a-4377-a520-f6b591c948da";
name = Fore;
shapes = (
{
closed = 1;
nodes = (
(716,100,l),
(716,545,l),
(270,545,l),
(270,645,l),
(716,645,l),
(716,1114,l),
(820,1114,l),
(820,645,l),
(1266,645,l),
(1266,545,l),
(820,545,l),
(820,100,l),
(1266,100,l),
(1266,0,l),
(270,0,l),
(270,100,l)
);
}
);
width = 1536;
}
);
unicode = 177;
},
{
category = Letter;
glyphname = twosuperior;
layers = (
{
layerId = "2adea82c-006a-4377-a520-f6b591c948da";
name = Fore;
shapes = (
{
closed = 1;
nodes = (
(683,1694,o),
(683,1476,q),
(683,1344,o),
(484,1202,q),
(417,1154,o),
(330,1102,q),
(610,1102,l),
(652,1102,o),
(667,1170,q),
(719,1170,l),
(719,963,l),
(153,963,l),
(153,1018,l),
(274,1118,l),
(508,1311,o),
(508,1485,q),
(508,1593,o),
(423,1624,q),
(398,1633,o),
(357.5,1633,q),
(317,1633,o),
(282,1613,q),
(328,1595,o),
(328,1540.5,q),
(328,1486,o),
(280,1462,q),
(263,1453,o),
(240,1453,q),
(194,1453,o),
(170.5,1479.5,q),
(147,1506,o),
(147,1544,q),
(147,1615,o),
(227.5,1654.5,q),
(308,1694,o),
(382,1694,q)
);
}
);
width = 854;
}
);
unicode = 178;
},
{
category = Letter;
glyphname = threesuperior;
layers = (
{
layerId = "2adea82c-006a-4377-a520-f6b591c948da";
name = Fore;
shapes = (
{
closed = 1;
nodes = (
(326,1596,o),
(326,1542.5,q),
(326,1489,o),
(277,1462,q),
(261,1454,o),
(238,1454,q),
(193,1454,o),
(169,1484,q),
(145,1514,o),
(145,1552,q),
(145,1624,o),
(232,1663,q),
(301,1694,o),
(390,1694,q),
(541,1694,o),
(606.5,1648,q),
(672,1602,o),
(672,1535,q),
(672,1411,o),
(521,1354,q),
(601,1350,o),
(657.5,1303,q),
(714,1256,o),
(714,1174,q),
(714,1092,o),
(632,1024,q),
(550,956,o),
(410,956,q),
(220,956,o),
(148,1039,q),
(122,1069,o),
(122,1096,q),
(122,1141,o),
(145.5,1169,q),
(169,1197,o),
(204,1197,q),
(256,1197,o),
(279.5,1169,q),
(303,1141,o),
(303,1100,q),
(303,1059,o),
(266,1038,q),
(313,1021,o),
(357,1021,q),
(438,1021,o),
(491.5,1067,q),
(545,1113,o),
(545,1175,q),
(545,1263,o),
(444,1296,q),
(411,1306,o),
(370,1306,q),
(329,1306,o),
(286,1296,q),
(285,1350,l),
(454,1361,o),
(495,1470,q),
(506,1499,o),
(506,1537.5,q),
(506,1576,o),
(469,1605,q),
(432,1634,o),
(375.5,1634,q),
(319,1634,o),
(283,1615,q)
);
}
);
width = 854;
}
);
unicode = 179;
},
{
category = Letter;
glyphname = acute;
layers = (
{
layerId = "2adea82c-006a-4377-a520-f6b591c948da";
name = Fore;
shapes = (
{
closed = 1;
nodes = (
(748,1552,l),
(787,1610,o),
(825,1615,q),
(889,1623,o),
(926,1595,q),
(963,1567,o),
(966,1527,q),
(972,1443,o),
(913,1406,q),
(559,1184,l),
(528,1218,l)
);
}
);
width = 1707;
}
);
unicode = 180;
},
{
category = Letter;
glyphname = mu;
layers = (
{
layerId = "2adea82c-006a-4377-a520-f6b591c948da";
name = Fore;
shapes = (
{
closed = 1;
nodes = (
(705,-20,o),
(550,-20,q),
(395,-20,o),
(294,91,q),
(349,-161,o),
(445,-387,q),
(451,-405,o),
(451,-427,q),
(451,-476,o),
(409,-518,q),
(367,-560,o),
(331,-560,q),
(268,-560,o),
(226,-530,q),
(184,-500,o),
(184,-441,q),
(184,1023,l),
(444,1023,l),
(444,297,l),
(444,76,o),
(614,76,q),
(724,76,o),
(826,193,q),
(826,1023,l),
(1084,1023,l),
(1084,320,l),
(1084,113,o),
(1184,113,q),
(1204,113,o),
(1243,127,q),
(1266,65,l),
(1118,-20,o),
(984.5,-20,q),
(851,-20,o),
(830,96,q)
);
}
);
width = 1366;
}
);
unicode = 181;
},
{
category = Letter;
glyphname = paragraph;
layers = (
{
layerId = "2adea82c-006a-4377-a520-f6b591c948da";
name = Fore;
shapes = (
{
closed = 1;
nodes = (
(529,668,o),
(374.5,806,q),
(220,944,o),
(220,1182.5,q),
(220,1421,o),
(382,1552.5,q),
(544,1684,o),
(804,1684,q),
(1520,1684,l),
(1520,1606,l),
(1349,1606,l),
(1349,-302,l),
(1189,-302,l),
(1190,1606,l),
(958,1606,l),
(958,-302,l),
(798,-302,l),
(798,666,l)
);
}
);
width = 1707;
}
);
unicode = 182;
},
{
category = Letter;
glyphname = periodcentered;
layers = (
{
layerId = "2adea82c-006a-4377-a520-f6b591c948da";
name = Fore;
shapes = (
{
closed = 1;
nodes = (
(410,608,o),
(341.5,608,q),
(273,608,o),
(227.5,653.5,q),
(182,699,o),
(182,767,q),
(182,874,o),
(278,916,q),
(307,928,o),
(341,928,q),
(409,928,o),
(455,882,q),
(501,836,o),
(501,767.5,q),
(501,699,o),
(455.5,653.5,q)
);
}
);
width = 683;
}
);
unicode = 183;
},
{
category = Letter;
glyphname = cedilla;
layers = (
{
layerId = "2adea82c-006a-4377-a520-f6b591c948da";
name = Fore;
shapes = (
{
closed = 1;
nodes = (
(673,-247,o),
(527,-247,q),
(519,-247,o),
(508,-248,q),
(484,-248,l),
(462,-249,o),
(438,-252,q),
(493,17,l),
(586,14,l),
(559,-127,l),
(568,-126,o),
(577,-126,q),
(596,-126,l),
(763,-126,o),
(826,-207,q),
(850,-239,o),
(850,-286,q),
(850,-333,o),
(829,-369.5,q),
(808,-406,o),
(773,-436,q),
(704,-494,o),
(596,-527,q),
(488,-560,o),
(394,-560,q),
(386,-485,l),
(569,-471,o),
(643,-402,q),
(673,-374,o),
(673,-332,q)
);
}
);
width = 1707;
}
);
unicode = 184;
},
{
category = Letter;
glyphname = onesuperior;
layers = (
{
layerId = "2adea82c-006a-4377-a520-f6b591c948da";
name = Fore;
shapes = (
{
closed = 1;
nodes = (
(323,1022,l),
(323,1617,l),
(210,1619,l),
(210,1673,l),
(509,1683,l),
(509,1022,l),
(642,1022,l),
(642,963,l),
(205,963,l),
(205,1022,l)
);
}
);
width = 854;
}
);
unicode = 185;
},
{
category = Letter;
glyphname = ordmasculine;
layers = (
{
layerId = "2adea82c-006a-4377-a520-f6b591c948da";
name = Fore;
shapes = (
{
closed = 1;
nodes = (
(151,1227,o),
(151,1370.5,q),
(151,1514,o),
(255,1605,q),
(359,1696,o),
(514.5,1696,q),
(670,1696,o),
(773,1606,q),
(876,1516,o),
(876,1371,q),
(876,1226,o),
(775,1133,q),
(674,1040,o),
(515,1040,q),
(356,1040,o),
(253.5,1133.5,q)
);
},
{
closed = 1;
nodes = (
(362,1102,o),
(513,1102,q),
(664,1102,o),
(664,1372,q),
(664,1495,o),
(634,1557,q),
(599,1633,o),
(514,1633,q),
(390,1633,o),
(368,1474,q),
(362,1426,o),
(362,1372,q)
);
}
);
width = 1028;
}
);
unicode = 186;
},
{
category = Letter;
glyphname = guillemotright;
layers = (
{
layerId = "2adea82c-006a-4377-a520-f6b591c948da";
name = Fore;
shapes = (
{
closed = 1;
nodes = (
(565,715,o),
(448.5,804.5,q),
(332,894,o),
(263,956,q),
(217,906,l),
(303,787,o),
(394,688,q),
(570,499,l),
(394,310,l),
(303,211,o),
(217,91,q),
(263,41,l),
(334,101,o),
(410,158,q),
(607,299,o),
(698,357,q),
(857,459,l),
(857,538,l)
);
},
{
closed = 1;
nodes = (
(1191,715,o),
(1074.5,804.5,q),
(958,894,o),
(889,956,q),
(843,906,l),
(929,787,o),
(1020,688,q),
(1196,499,l),
(1020,310,l),
(929,211,o),
(843,91,q),
(889,41,l),
(960,101,o),
(1036,158,q),
(1233,299,o),
(1324,357,q),
(1483,459,l),
(1483,538,l)
);
}
);
width = 1700;
}
);
unicode = 187;
},
{
category = Letter;
glyphname = onequarter;
layers = (
{
layerId = "2adea82c-006a-4377-a520-f6b591c948da";
name = Fore;
shapes = (
{
closed = 1;
nodes = (
(1245,719,l),
(1405,719,l),
(1405,238,l),
(1542,238,l),
(1510,174,l),
(1404,174,l),
(1404,58,l),
(1522,58,l),
(1522,-1,l),
(1085,-1,l),
(1085,58,l),
(1218,58,l),
(1218,174,l),
(893,174,l),
(893,238,l)
);
},
{
closed = 1;
nodes = (
(1218,571,l),
(975,238,l),
(1218,238,l)
);
},
{
closed = 1;
nodes = (
(349,889,l),
(349,1484,l),
(236,1486,l),
(236,1540,l),
(535,1550,l),
(535,889,l),
(668,889,l),
(668,830,l),
(231,830,l),
(231,889,l)
);
},
{
closed = 1;
nodes = (
(1476,1530,l),
(341,0,l),
(239,0,l),
(1377,1530,l)
);
}
);
width = 1712;
}
);
unicode = 188;
},
{
category = Letter;
glyphname = onehalf;
layers = (
{
layerId = "2adea82c-006a-4377-a520-f6b591c948da";
name = Fore;
shapes = (
{
closed = 1;
nodes = (
(331,891,l),
(331,1486,l),
(218,1488,l),
(218,1542,l),
(517,1552,l),
(517,891,l),
(650,891,l),
(650,832,l),
(213,832,l),
(213,891,l)
);
},
{
closed = 1;
nodes = (
(1519,731,o),
(1519,513,q),
(1519,381,o),
(1320,239,q),
(1253,191,o),
(1166,139,q),
(1446,139,l),
(1488,139,o),
(1503,207,q),
(1555,207,l),
(1555,0,l),
(989,0,l),
(989,55,l),
(1110,155,l),
(1344,348,o),
(1344,522,q),
(1344,630,o),
(1259,661,q),
(1234,670,o),
(1193.5,670,q),
(1153,670,o),
(1118,650,q),
(1164,632,o),
(1164,577.5,q),
(1164,523,o),
(1116,499,q),
(1099,490,o),
(1076,490,q),
(1030,490,o),
(1006.5,516.5,q),
(983,543,o),
(983,581,q),
(983,652,o),
(1063.5,691.5,q),
(1144,731,o),
(1218,731,q)
);
},
{
closed = 1;
nodes = (
(1476,1530,l),
(341,0,l),
(239,0,l),
(1377,1530,l)
);
}
);
width = 1707;
}
);
unicode = 189;
},
{
category = Letter;
glyphname = threequarters;
layers = (
{
layerId = "2adea82c-006a-4377-a520-f6b591c948da";
name = Fore;
shapes = (
{
closed = 1;
nodes = (
(1245,719,l),
(1405,719,l),
(1405,238,l),
(1542,238,l),
(1510,174,l),
(1404,174,l),
(1404,58,l),
(1522,58,l),
(1522,-1,l),
(1085,-1,l),
(1085,58,l),
(1218,58,l),
(1218,174,l),
(893,174,l),
(893,238,l)
);
},
{
closed = 1;
nodes = (
(1218,571,l),
(975,238,l),
(1218,238,l)
);
},
{
closed = 1;
nodes = (
(540,1215,o),
(540,1388,q),
(540,1427,o),
(503,1456,q),
(466,1485,o),
(409.5,1485,q),
(353,1485,o),
(317,1466,q),
(360,1447,o),
(360,1393.5,q),
(360,1340,o),
(311,1314,q),
(295,1305,o),
(272,1305,q),
(226,1305,o),
(202.5,1335,q),
(179,1365,o),
(179,1402,q),
(179,1475,o),
(266,1514,q),
(335,1545,o),
(424,1545,q),
(574,1545,o),
(640,1498.5,q),
(706,1452,o),
(706,1386,q),
(706,1262,o),
(555,1205,q),
(635,1201,o),
(691.5,1154,q),
(748,1107,o),
(748,1025,q),
(748,943,o),
(666,875,q),
(584,807,o),
(444,807,q),
(254,807,o),
(182,890,q),
(156,920,o),
(156,948,q),
(156,992,o),
(179.5,1020,q),
(203,1048,o),
(238,1048,q),
(290,1048,o),
(313.5,1020,q),
(337,992,o),
(337,951,q),
(337,910,o),
(300,889,q),
(347,872,o),
(391,872,q),
(472,872,o),
(525.5,918,q),
(579,964,o),
(579,1026,q),
(579,1114,o),
(478,1146,q),
(445,1157,o),
(404,1157,q),
(363,1157,o),
(320,1147,q),
(319,1201,l)
);
},
{
closed = 1;
nodes = (
(1476,1530,l),
(341,0,l),
(239,0,l),
(1377,1530,l)
);
}
);
width = 1712;
}
);
unicode = 190;
},
{
category = Letter;
glyphname = questiondown;
layers = (
{
layerId = "2adea82c-006a-4377-a520-f6b591c948da";
name = Fore;
shapes = (
{
closed = 1;
nodes = (
(645,736,o),
(520,580.5,q),
(395,425,o),
(395,241,q),
(395,105,o),
(480,22,q),
(565,-61,o),
(735.5,-61,q),
(906,-61,o),
(1002,55,q),
(950,70,o),
(917.5,113,q),
(885,156,o),
(885,203,q),
(885,282,o),
(931.5,330,q),
(978,378,o),
(1048.5,378,q),
(1119,378,o),
(1166.5,330.5,q),
(1214,283,o),
(1214,214,q),
(1214,203,l),
(1214,198,o),
(1213,193,q),
(1213,134,o),
(1175,73.5,q),
(1137,13,o),
(1071,-36,q),
(921,-147,o),
(697,-147,q),
(473,-147,o),
(309.5,-30,q),
(146,87,o),
(146,278,q),
(146,557,o),
(414,731,q),
(523,801,o),
(645,827,q),
(698,1110,l),
(795,1110,l),
(855,807,l)
);
},
{
closed = 1;
nodes = (
(904,1309,o),
(808,1267,q),
(779,1255,o),
(745,1255,q),
(677,1255,o),
(631,1301,q),
(585,1347,o),
(585,1415.5,q),
(585,1484,o),
(630.5,1529.5,q),
(676,1575,o),
(744.5,1575,q),
(813,1575,o),
(858.5,1529.5,q),
(904,1484,o),
(904,1416,q)
);
}
);
width = 1364;
}
);
unicode = 191;
},
{
category = Letter;
glyphname = Agrave;
layers = (
{
layerId = "2adea82c-006a-4377-a520-f6b591c948da";
name = Fore;
shapes = (
{
closed = 1;
nodes = (
(129,78,l),
(693,1530,l),
(809,1530,l),
(1412,78,l),
(1514,78,l),
(1514,0,l),
(969,0,l),
(969,78,l),
(1119,78,l),
(975,427,l),
(368,427,l),
(236,78,l),
(416,78,l),
(416,0,l),
(21,0,l),
(21,78,l)
);
},
{
closed = 1;
nodes = (
(659,1196,l),
(398,505,l),
(943,505,l)
);
},
{
closed = 1;
nodes = (
(407,1796,o),
(393.5,1856.5,q),
(380,1917,o),
(409.5,1954,q),
(439,1991,o),
(479,1997,q),
(519,2003,o),
(543,1992.5,q),
(567,1982,o),
(593,1959,q),
(892,1692,l),
(871,1651,l),
(472,1774,l)
);
}
);
width = 1534;
}
);
unicode = 192;
},
{
category = Letter;
glyphname = Aacute;
layers = (
{
layerId = "2adea82c-006a-4377-a520-f6b591c948da";
name = Fore;
shapes = (
{
closed = 1;
nodes = (
(129,78,l),
(693,1530,l),
(809,1530,l),
(1412,78,l),
(1514,78,l),
(1514,0,l),
(969,0,l),
(969,78,l),
(1119,78,l),
(975,427,l),
(368,427,l),
(236,78,l),
(416,78,l),
(416,0,l),
(21,0,l),
(21,78,l)
);
},
{
closed = 1;
nodes = (
(659,1196,l),
(398,505,l),
(943,505,l)
);
},
{
closed = 1;
nodes = (
(916,1956,l),
(970,2005,o),
(1007,2001,q),
(1070,1993,o),
(1100,1957.5,q),
(1130,1922,o),
(1123,1882,q),
(1110,1800,o),
(1044,1776,q),
(649,1639,l),
(627,1679,l)
);
}
);
width = 1534;
}
);
unicode = 193;
},
{
category = Letter;
glyphname = Acircumflex;
layers = (
{
layerId = "2adea82c-006a-4377-a520-f6b591c948da";
name = Fore;
shapes = (
{
closed = 1;
nodes = (
(129,78,l),
(693,1530,l),
(809,1530,l),
(1412,78,l),
(1514,78,l),
(1514,0,l),
(969,0,l),
(969,78,l),
(1119,78,l),
(975,427,l),
(368,427,l),
(236,78,l),
(416,78,l),
(416,0,l),
(21,0,l),
(21,78,l)
);
},
{
closed = 1;
nodes = (
(659,1196,l),
(398,505,l),
(943,505,l)
);
},
{
closed = 1;
nodes = (
(645,1936,l),
(703,2000,o),
(738.5,2000,q),
(774,2000,o),
(791,1992,q),
(823,1979,o),
(850,1950,q),
(1116,1647,l),
(1088,1610,l),
(754,1794,l),
(410,1610,l),
(382,1646,l)
);
}
);
width = 1534;
}
);
unicode = 194;
},
{
category = Letter;
glyphname = Atilde;
layers = (
{
layerId = "2adea82c-006a-4377-a520-f6b591c948da";
name = Fore;
shapes = (
{
closed = 1;
nodes = (
(129,78,l),
(693,1530,l),
(809,1530,l),
(1412,78,l),
(1514,78,l),
(1514,0,l),
(969,0,l),
(969,78,l),
(1119,78,l),
(975,427,l),
(368,427,l),
(236,78,l),
(416,78,l),
(416,0,l),
(21,0,l),
(21,78,l)
);
},
{
closed = 1;
nodes = (
(659,1196,l),
(398,505,l),
(943,505,l)
);
},
{
closed = 1;
nodes = (
(435,1834,o),
(474,1877,q),
(554,1965,o),
(623.5,1965,q),
(693,1965,o),
(762,1932,q),
(865,1882,l),
(899,1867,o),
(935.5,1867,q),
(972,1867,o),
(1004.5,1891.5,q),
(1037,1916,o),
(1073,1956,q),
(1119,1923,l),
(1063,1823,o),
(1024,1780,q),
(944,1692,o),
(863,1692,q),
(807,1689,o),
(740,1723.5,q),
(673,1758,o),
(637,1774,q),
(601,1790,o),
(563.5,1790,q),
(526,1790,o),
(493.5,1765.5,q),
(461,1741,o),
(425,1701,q),
(379,1734,l)
);
}
);
width = 1534;
}
);
unicode = 195;
},
{
category = Letter;
glyphname = Adieresis;
layers = (
{
layerId = "2adea82c-006a-4377-a520-f6b591c948da";
name = Fore;
shapes = (
{
closed = 1;
nodes = (
(129,78,l),
(693,1530,l),
(809,1530,l),
(1412,78,l),
(1514,78,l),
(1514,0,l),
(969,0,l),
(969,78,l),
(1119,78,l),
(975,427,l),
(368,427,l),
(236,78,l),
(416,78,l),
(416,0,l),
(21,0,l),
(21,78,l)
);
},
{
closed = 1;
nodes = (
(659,1196,l),
(398,505,l),
(943,505,l)
);
},
{
closed = 1;
nodes = (
(1078,1740,o),
(1002,1708,q),
(979,1699,o),
(953,1699,q),
(903,1699,o),
(867,1735,q),
(831,1771,o),
(831,1809,q),
(831,1874,o),
(868,1910,q),
(905,1946,o),
(942,1946,q),
(1005,1946,o),
(1041.5,1909.5,q),
(1078,1873,o),
(1078,1834,q)
);
},
{
closed = 1;
nodes = (
(662,1740,o),
(586,1708,q),
(563,1699,o),
(537,1699,q),
(487,1699,o),
(451,1735,q),
(415,1771,o),
(415,1809,q),
(415,1874,o),
(452,1910,q),
(489,1946,o),
(526,1946,q),
(589,1946,o),
(625.5,1909.5,q),
(662,1873,o),
(662,1834,q)
);
}
);
width = 1534;
}
);
unicode = 196;
},
{
category = Letter;
glyphname = Aring;
layers = (
{
layerId = "2adea82c-006a-4377-a520-f6b591c948da";
name = Fore;
shapes = (
{
closed = 1;
nodes = (
(129,78,l),
(693,1530,l),
(809,1530,l),
(1412,78,l),
(1514,78,l),
(1514,0,l),
(969,0,l),
(969,78,l),
(1119,78,l),
(975,427,l),
(368,427,l),
(236,78,l),
(416,78,l),
(416,0,l),
(21,0,l),
(21,78,l)
);
},
{
closed = 1;
nodes = (
(659,1196,l),
(398,505,l),
(943,505,l)
);
},
{
closed = 1;
nodes = (
(539,1729,o),
(539,1811.5,q),
(539,1894,o),
(601,1945,q),
(663,1996,o),
(756.5,1996,q),
(850,1996,o),
(910.5,1945,q),
(971,1894,o),
(971,1811.5,q),
(971,1729,o),
(910.5,1678,q),
(850,1627,o),
(756.5,1627,q),
(663,1627,o),
(601,1678,q)
);
},
{
closed = 1;
nodes = (
(657,1679,o),
(755.5,1679,q),
(854,1679,o),
(854,1811,q),
(854,1943,o),
(755.5,1943,q),
(657,1943,o),
(657,1811,q)
);
}
);
width = 1534;
}
);
unicode = 197;
},
{
category = Letter;
glyphname = AE;
layers = (
{
layerId = "2adea82c-006a-4377-a520-f6b591c948da";
name = Fore;
shapes = (
{
closed = 1;
nodes = (
(748,1452,l),
(748,1530,l),
(2041,1530,l),
(2041,1094,l),
(1963,1094,l),
(1958,1177,o),
(1949,1241.5,q),
(1940,1306,o),
(1912,1351,q),
(1853,1443,o),
(1675,1452,q),
(1228,1452,l),
(1228,803,l),
(1468,803,l),
(1553,803,o),
(1598.5,830.5,q),
(1644,858,o),
(1654,927,q),
(1656,947,o),
(1657.5,969.5,q),
(1659,992,o),
(1661,1014,q),
(1745,1014,l),
(1745,498,l),
(1661,498,l),
(1659,521,o),
(1657.5,551,q),
(1656,581,o),
(1654,601,q),
(1644,670,o),
(1597.5,697.5,q),
(1551,725,o),
(1468,725,q),
(1228,725,l),
(1228,78,l),
(1646,78,l),
(1909,78,o),
(1965,321,q),
(1981,391,o),
(1986,465,q),
(2064,465,l),
(2064,0,l),
(748,0,l),
(748,79,l),
(958,79,l),
(958,725,l),
(541,725,l),
(154,78,l),
(340,78,l),
(340,0,l),
(-109,0,l),
(-109,78,l),
(37,78,l),
(871,1452,l)
);
},
{
closed = 1;
nodes = (
(959,1422,l),
(589,804,l),
(958,804,l)
);
}
);
width = 2218;
}
);
unicode = 198;
},
{
category = Letter;
glyphname = Ccedilla;
layers = (
{
layerId = "2adea82c-006a-4377-a520-f6b591c948da";
name = Fore;
shapes = (
{
closed = 1;
nodes = (
(932,-247,o),
(786,-247,q),
(778,-247,o),
(766,-248,q),
(742,-248,l),
(721,-249,o),
(697,-252,q),
(746,-12,l),
(445,28,o),
(270.5,241.5,q),
(96,455,o),
(96,779,q),
(96,1103,o),
(305.5,1326.5,q),
(515,1550,o),
(888,1550,q),
(1090,1550,o),
(1240,1468,q),
(1282,1445,o),
(1307,1422,q),
(1347,1469,o),
(1349,1530,q),
(1431,1530,l),
(1431,1111,l),
(1346,1111,l),
(1317,1277,o),
(1187.5,1372,q),
(1058,1467,o),
(906,1467,q),
(400,1467,o),
(404,760,q),
(407,479,o),
(516,293,q),
(642,78,o),
(882,78,q),
(1065,78,o),
(1191.5,142.5,q),
(1318,207,o),
(1390,317,q),
(1442,269,l),
(1404,178,o),
(1284,95,q),
(1119,-20,o),
(870,-20,q),
(862,-20,o),
(854,-20,q),
(846,-20,o),
(838,-19,q),
(818,-127,l),
(827,-126,o),
(836,-126,q),
(855,-126,l),
(1022,-126,o),
(1084,-207,q),
(1109,-239,o),
(1109,-286,q),
(1109,-333,o),
(1088,-369.5,q),
(1067,-406,o),
(1032,-436,q),
(963,-494,o),
(855,-527,q),
(747,-560,o),
(653,-560,q),
(645,-485,l),
(828,-471,o),
(902,-402,q),
(932,-374,o),
(932,-332,q)
);
}
);
width = 1534;
}
);
unicode = 199;
},
{
category = Letter;
glyphname = Egrave;
layers = (
{
layerId = "2adea82c-006a-4377-a520-f6b591c948da";
name = Fore;
shapes = (
{
closed = 1;
nodes = (
(271,79,l),
(272,1452,l),
(71,1452,l),
(71,1530,l),
(1364,1530,l),
(1364,1094,l),
(1286,1094,l),
(1281,1177,o),
(1272,1241.5,q),
(1263,1306,o),
(1234,1351,q),
(1176,1443,o),
(998,1452,q),
(541,1452,l),
(541,824,l),
(791,824,l),
(876,824,o),
(921.5,851.5,q),
(967,879,o),
(977,948,q),
(979,968,o),
(980.5,990.5,q),
(982,1013,o),
(984,1035,q),
(1068,1035,l),
(1068,519,l),
(984,519,l),
(982,542,o),
(980.5,572,q),
(979,602,o),
(977,622,q),
(967,691,o),
(920.5,718.5,q),
(874,746,o),
(791,746,q),
(541,746,l),
(541,78,l),
(969,78,l),
(1232,78,o),
(1288,321,q),
(1304,391,o),
(1309,465,q),
(1387,465,l),
(1387,0,l),
(71,0,l),
(71,79,l)
);
},
{
closed = 1;
nodes = (
(459,1796,o),
(445.5,1856.5,q),
(432,1917,o),
(461.5,1954,q),
(491,1991,o),
(531,1997,q),
(571,2003,o),
(595,1992.5,q),
(619,1982,o),
(645,1959,q),
(944,1692,l),
(923,1651,l),
(524,1774,l)
);
}
);
width = 1535;
}
);
unicode = 200;
},
{
category = Letter;
glyphname = Eacute;
layers = (
{
layerId = "2adea82c-006a-4377-a520-f6b591c948da";
name = Fore;
shapes = (
{
closed = 1;
nodes = (
(271,79,l),
(272,1452,l),
(71,1452,l),
(71,1530,l),
(1364,1530,l),
(1364,1094,l),
(1286,1094,l),
(1281,1177,o),
(1272,1241.5,q),
(1263,1306,o),
(1234,1351,q),
(1176,1443,o),
(998,1452,q),
(541,1452,l),
(541,824,l),
(791,824,l),
(876,824,o),
(921.5,851.5,q),
(967,879,o),
(977,948,q),
(979,968,o),
(980.5,990.5,q),
(982,1013,o),
(984,1035,q),
(1068,1035,l),
(1068,519,l),
(984,519,l),
(982,542,o),
(980.5,572,q),
(979,602,o),
(977,622,q),
(967,691,o),
(920.5,718.5,q),
(874,746,o),
(791,746,q),
(541,746,l),
(541,78,l),
(969,78,l),
(1232,78,o),
(1288,321,q),
(1304,391,o),
(1309,465,q),
(1387,465,l),
(1387,0,l),
(71,0,l),
(71,79,l)
);
},
{
closed = 1;
nodes = (
(969,1956,l),
(1023,2005,o),
(1060,2001,q),
(1123,1993,o),
(1153,1957.5,q),
(1183,1922,o),
(1176,1882,q),
(1163,1800,o),
(1097,1776,q),
(702,1639,l),
(680,1679,l)
);
}
);
width = 1535;
}
);
unicode = 201;
},
{
category = Letter;
glyphname = Ecircumflex;
layers = (
{
layerId = "2adea82c-006a-4377-a520-f6b591c948da";
name = Fore;
shapes = (
{
closed = 1;
nodes = (
(271,79,l),
(272,1452,l),
(71,1452,l),
(71,1530,l),
(1364,1530,l),
(1364,1094,l),
(1286,1094,l),
(1281,1177,o),
(1272,1241.5,q),
(1263,1306,o),
(1234,1351,q),
(1176,1443,o),
(998,1452,q),
(541,1452,l),
(541,824,l),
(791,824,l),
(876,824,o),
(921.5,851.5,q),
(967,879,o),
(977,948,q),
(979,968,o),
(980.5,990.5,q),
(982,1013,o),
(984,1035,q),
(1068,1035,l),
(1068,519,l),
(984,519,l),
(982,542,o),
(980.5,572,q),
(979,602,o),
(977,622,q),
(967,691,o),
(920.5,718.5,q),
(874,746,o),
(791,746,q),
(541,746,l),
(541,78,l),
(969,78,l),
(1232,78,o),
(1288,321,q),
(1304,391,o),
(1309,465,q),
(1387,465,l),
(1387,0,l),
(71,0,l),
(71,79,l)
);
},
{
closed = 1;
nodes = (
(698,1936,l),
(756,2000,o),
(791.5,2000,q),
(827,2000,o),
(844,1992,q),
(876,1979,o),
(903,1950,q),
(1169,1647,l),
(1141,1610,l),
(807,1794,l),
(463,1610,l),
(435,1646,l)
);
}
);
width = 1535;
}
);
unicode = 202;
},
{
category = Letter;
glyphname = Edieresis;
layers = (
{
layerId = "2adea82c-006a-4377-a520-f6b591c948da";
name = Fore;
shapes = (
{
closed = 1;
nodes = (
(271,79,l),
(272,1452,l),
(71,1452,l),
(71,1530,l),
(1364,1530,l),
(1364,1094,l),
(1286,1094,l),
(1281,1177,o),
(1272,1241.5,q),
(1263,1306,o),
(1234,1351,q),
(1176,1443,o),
(998,1452,q),
(541,1452,l),
(541,824,l),
(791,824,l),
(876,824,o),
(921.5,851.5,q),
(967,879,o),
(977,948,q),
(979,968,o),
(980.5,990.5,q),
(982,1013,o),
(984,1035,q),
(1068,1035,l),
(1068,519,l),
(984,519,l),
(982,542,o),
(980.5,572,q),
(979,602,o),
(977,622,q),
(967,691,o),
(920.5,718.5,q),
(874,746,o),
(791,746,q),
(541,746,l),
(541,78,l),
(969,78,l),
(1232,78,o),
(1288,321,q),
(1304,391,o),
(1309,465,q),
(1387,465,l),
(1387,0,l),
(71,0,l),
(71,79,l)
);
},
{
closed = 1;
nodes = (
(1131,1740,o),
(1055,1708,q),
(1032,1699,o),
(1006,1699,q),
(956,1699,o),
(920,1735,q),
(884,1771,o),
(884,1809,q),
(884,1874,o),
(921,1910,q),
(958,1946,o),
(995,1946,q),
(1058,1946,o),
(1094.5,1909.5,q),
(1131,1873,o),
(1131,1834,q)
);
},
{
closed = 1;
nodes = (
(715,1740,o),
(639,1708,q),
(616,1699,o),
(590,1699,q),
(540,1699,o),
(504,1735,q),
(468,1771,o),
(468,1809,q),
(468,1874,o),
(505,1910,q),
(542,1946,o),
(579,1946,q),
(642,1946,o),
(678.5,1909.5,q),
(715,1873,o),
(715,1834,q)
);
}
);
width = 1535;
}
);
unicode = 203;
},
{
category = Letter;
glyphname = Igrave;
layers = (
{
layerId = "2adea82c-006a-4377-a520-f6b591c948da";
name = Fore;
shapes = (
{
closed = 1;
nodes = (
(292,78,l),
(293,1452,l),
(95,1452,l),
(95,1530,l),
(759,1530,l),
(759,1452,l),
(562,1452,l),
(562,78,l),
(759,78,l),
(759,0,l),
(95,0,l),
(95,78,l)
);
},
{
closed = 1;
nodes = (
(80,1796,o),
(66.5,1856.5,q),
(53,1917,o),
(82.5,1954,q),
(112,1991,o),
(152,1997,q),
(192,2003,o),
(216,1992.5,q),
(240,1982,o),
(266,1959,q),
(565,1692,l),
(544,1651,l),
(145,1774,l)
);
}
);
width = 854;
}
);
unicode = 204;
},
{
category = Letter;
glyphname = Iacute;
layers = (
{
layerId = "2adea82c-006a-4377-a520-f6b591c948da";
name = Fore;
shapes = (
{
closed = 1;
nodes = (
(292,78,l),
(293,1452,l),
(95,1452,l),
(95,1530,l),
(759,1530,l),
(759,1452,l),
(562,1452,l),
(562,78,l),
(759,78,l),
(759,0,l),
(95,0,l),
(95,78,l)
);
},
{
closed = 1;
nodes = (
(590,1956,l),
(644,2005,o),
(681,2001,q),
(744,1993,o),
(774,1957.5,q),
(804,1922,o),
(797,1882,q),
(784,1800,o),
(718,1776,q),
(323,1639,l),
(301,1679,l)
);
}
);
width = 854;
}
);
unicode = 205;
},
{
category = Letter;
glyphname = Icircumflex;
layers = (
{
layerId = "2adea82c-006a-4377-a520-f6b591c948da";
name = Fore;
shapes = (
{
closed = 1;
nodes = (
(292,78,l),
(293,1452,l),
(95,1452,l),
(95,1530,l),
(759,1530,l),
(759,1452,l),
(562,1452,l),
(562,78,l),
(759,78,l),
(759,0,l),
(95,0,l),
(95,78,l)
);
},
{
closed = 1;
nodes = (
(319,1936,l),
(377,2000,o),
(412.5,2000,q),
(448,2000,o),
(465,1992,q),
(497,1979,o),
(524,1950,q),
(790,1647,l),
(762,1610,l),
(428,1794,l),
(84,1610,l),
(56,1646,l)
);
}
);
width = 854;
}
);
unicode = 206;
},
{
category = Letter;
glyphname = Idieresis;
layers = (
{
layerId = "2adea82c-006a-4377-a520-f6b591c948da";
name = Fore;
shapes = (
{
closed = 1;
nodes = (
(292,78,l),
(293,1452,l),
(95,1452,l),
(95,1530,l),
(759,1530,l),
(759,1452,l),
(562,1452,l),
(562,78,l),
(759,78,l),
(759,0,l),
(95,0,l),
(95,78,l)
);
},
{
closed = 1;
nodes = (
(752,1740,o),
(676,1708,q),
(653,1699,o),
(627,1699,q),
(577,1699,o),
(541,1735,q),
(505,1771,o),
(505,1809,q),
(505,1874,o),
(542,1910,q),
(579,1946,o),
(616,1946,q),
(679,1946,o),
(715.5,1909.5,q),
(752,1873,o),
(752,1834,q)
);
},
{
closed = 1;
nodes = (
(336,1740,o),
(260,1708,q),
(237,1699,o),
(211,1699,q),
(161,1699,o),
(125,1735,q),
(89,1771,o),
(89,1809,q),
(89,1874,o),
(126,1910,q),
(163,1946,o),
(200,1946,q),
(263,1946,o),
(299.5,1909.5,q),
(336,1873,o),
(336,1834,q)
);
}
);
width = 854;
}
);
unicode = 207;
},
{
category = Letter;
glyphname = Eth;
layers = (
{
layerId = "2adea82c-006a-4377-a520-f6b591c948da";
name = Fore;
shapes = (
{
closed = 1;
nodes = (
(283,78,l),
(283,735,l),
(113,735,l),
(113,813,l),
(283,813,l),
(284,1452,l),
(83,1452,l),
(83,1530,l),
(757,1530,l),
(1360,1530,o),
(1537,1149,q),
(1610,992,o),
(1610,777,q),
(1610,491,o),
(1444,278,q),
(1310,107,o),
(1055,37,q),
(921,0,o),
(743,0,q),
(83,0,l),
(83,78,l)
);
},
{
closed = 1;
nodes = (
(1046,78,o),
(1182,235,q),
(1318,392,o),
(1318,770,q),
(1318,801,l),
(1312,1163,o),
(1172.5,1307.5,q),
(1033,1452,o),
(744,1452,q),
(553,1452,l),
(553,813,l),
(943,813,l),
(943,735,l),
(553,735,l),
(553,78,l),
(731,78,l)
);
}
);
width = 1707;
}
);
unicode = 208;
},
{
category = Letter;
glyphname = Ntilde;
layers = (
{
layerId = "2adea82c-006a-4377-a520-f6b591c948da";
name = Fore;
shapes = (
{
closed = 1;
nodes = (
(267,78,l),
(267,1452,l),
(93,1452,l),
(93,1530,l),
(546,1530,l),
(1356,325,l),
(1356,1452,l),
(1162,1452,l),
(1162,1530,l),
(1637,1530,l),
(1637,1452,l),
(1454,1452,l),
(1454,0,l),
(1268,0,l),
(365,1327,l),
(365,78,l),
(568,78,l),
(568,0,l),
(93,0,l),
(93,78,l)
);
},
{
closed = 1;
nodes = (
(582,1834,o),
(621,1877,q),
(701,1965,o),
(770.5,1965,q),
(840,1965,o),
(909,1932,q),
(1012,1882,l),
(1046,1867,o),
(1082.5,1867,q),
(1119,1867,o),
(1151.5,1891.5,q),
(1184,1916,o),
(1220,1956,q),
(1266,1923,l),
(1210,1823,o),
(1171,1780,q),
(1091,1692,o),
(1010,1692,q),
(954,1689,o),
(887,1723.5,q),
(820,1758,o),
(784,1774,q),
(748,1790,o),
(710.5,1790,q),
(673,1790,o),
(640.5,1765.5,q),
(608,1741,o),
(572,1701,q),
(526,1734,l)
);
}
);
width = 1707;
}
);
unicode = 209;
},
{
category = Letter;
glyphname = Ograve;
layers = (
{
layerId = "2adea82c-006a-4377-a520-f6b591c948da";
name = Fore;
shapes = (
{
closed = 1;
nodes = (
(98,664,o),
(98,764.5,q),
(98,865,o),
(119.5,961.5,q),
(141,1058,o),
(183,1145,q),
(271,1328,o),
(442.5,1439,q),
(614,1550,o),
(855,1550,q),
(1221,1550,o),
(1428,1306,q),
(1613,1086,o),
(1613,762,q),
(1613,438,o),
(1426,218,q),
(1298,68,o),
(1089,10,q),
(983,-20,o),
(856.5,-20,q),
(730,-20,o),
(625,9.5,q),
(520,39,o),
(436,92,q),
(352,145,o),
(288.5,218.5,q),
(225,292,o),
(183,379.5,q),
(141,467,o),
(119.5,565.5,q)
);
},
{
closed = 1;
nodes = (
(1254,365,o),
(1289.5,481,q),
(1325,597,o),
(1325,724.5,q),
(1325,852,o),
(1313.5,937.5,q),
(1302,1023,o),
(1278,1100,q),
(1225,1266,o),
(1119.5,1366.5,q),
(1014,1467,o),
(855,1467,q),
(607,1467,o),
(486,1245,q),
(383,1054,o),
(386.5,770.5,q),
(390,487,o),
(490,296,q),
(614,63,o),
(851,63,q),
(1088,63,o),
(1216,296,q)
);
},
{
closed = 1;
nodes = (
(506,1796,o),
(492.5,1856.5,q),
(479,1917,o),
(508.5,1954,q),
(538,1991,o),
(578,1997,q),
(618,2003,o),
(642,1992.5,q),
(666,1982,o),
(692,1959,q),
(991,1692,l),
(970,1651,l),
(571,1774,l)
);
}
);
width = 1711;
}
);
unicode = 210;
},
{
category = Letter;
glyphname = Oacute;
layers = (
{
layerId = "2adea82c-006a-4377-a520-f6b591c948da";
name = Fore;
shapes = (
{
closed = 1;
nodes = (
(98,664,o),
(98,764.5,q),
(98,865,o),
(119.5,961.5,q),
(141,1058,o),
(183,1145,q),
(271,1328,o),
(442.5,1439,q),
(614,1550,o),
(855,1550,q),
(1221,1550,o),
(1428,1306,q),
(1613,1086,o),
(1613,762,q),
(1613,438,o),
(1426,218,q),
(1298,68,o),
(1089,10,q),
(983,-20,o),
(856.5,-20,q),
(730,-20,o),
(625,9.5,q),
(520,39,o),
(436,92,q),
(352,145,o),
(288.5,218.5,q),
(225,292,o),
(183,379.5,q),
(141,467,o),
(119.5,565.5,q)
);
},
{
closed = 1;
nodes = (
(1254,365,o),
(1289.5,481,q),
(1325,597,o),
(1325,724.5,q),
(1325,852,o),
(1313.5,937.5,q),
(1302,1023,o),
(1278,1100,q),
(1225,1266,o),
(1119.5,1366.5,q),
(1014,1467,o),
(855,1467,q),
(607,1467,o),
(486,1245,q),
(383,1054,o),
(386.5,770.5,q),
(390,487,o),
(490,296,q),
(614,63,o),
(851,63,q),
(1088,63,o),
(1216,296,q)
);
},
{
closed = 1;
nodes = (
(1016,1956,l),
(1070,2005,o),
(1107,2001,q),
(1170,1993,o),
(1200,1957.5,q),
(1230,1922,o),
(1223,1882,q),
(1210,1800,o),
(1144,1776,q),
(749,1639,l),
(727,1679,l)
);
}
);
width = 1711;
}
);
unicode = 211;
},
{
category = Letter;
glyphname = Ocircumflex;
layers = (
{
layerId = "2adea82c-006a-4377-a520-f6b591c948da";
name = Fore;
shapes = (
{
closed = 1;
nodes = (
(98,664,o),
(98,764.5,q),
(98,865,o),
(119.5,961.5,q),
(141,1058,o),
(183,1145,q),
(271,1328,o),
(442.5,1439,q),
(614,1550,o),
(855,1550,q),
(1221,1550,o),
(1428,1306,q),
(1613,1086,o),
(1613,762,q),
(1613,438,o),
(1426,218,q),
(1298,68,o),
(1089,10,q),
(983,-20,o),
(856.5,-20,q),
(730,-20,o),
(625,9.5,q),
(520,39,o),
(436,92,q),
(352,145,o),
(288.5,218.5,q),
(225,292,o),
(183,379.5,q),
(141,467,o),
(119.5,565.5,q)
);
},
{
closed = 1;
nodes = (
(1254,365,o),
(1289.5,481,q),
(1325,597,o),
(1325,724.5,q),
(1325,852,o),
(1313.5,937.5,q),
(1302,1023,o),
(1278,1100,q),
(1225,1266,o),
(1119.5,1366.5,q),
(1014,1467,o),
(855,1467,q),
(607,1467,o),
(486,1245,q),
(383,1054,o),
(386.5,770.5,q),
(390,487,o),
(490,296,q),
(614,63,o),
(851,63,q),
(1088,63,o),
(1216,296,q)
);
},
{
closed = 1;
nodes = (
(745,1936,l),
(803,2000,o),
(838.5,2000,q),
(874,2000,o),
(891,1992,q),
(923,1979,o),
(950,1950,q),
(1216,1647,l),
(1188,1610,l),
(854,1794,l),
(510,1610,l),
(482,1646,l)
);
}
);
width = 1711;
}
);
unicode = 212;
},
{
category = Letter;
glyphname = Otilde;
layers = (
{
layerId = "2adea82c-006a-4377-a520-f6b591c948da";
name = Fore;
shapes = (
{
closed = 1;
nodes = (
(98,664,o),
(98,764.5,q),
(98,865,o),
(119.5,961.5,q),
(141,1058,o),
(183,1145,q),
(271,1328,o),
(442.5,1439,q),
(614,1550,o),
(855,1550,q),
(1221,1550,o),
(1428,1306,q),
(1613,1086,o),
(1613,762,q),
(1613,438,o),
(1426,218,q),
(1298,68,o),
(1089,10,q),
(983,-20,o),
(856.5,-20,q),
(730,-20,o),
(625,9.5,q),
(520,39,o),
(436,92,q),
(352,145,o),
(288.5,218.5,q),
(225,292,o),
(183,379.5,q),
(141,467,o),
(119.5,565.5,q)
);
},
{
closed = 1;
nodes = (
(1254,365,o),
(1289.5,481,q),
(1325,597,o),
(1325,724.5,q),
(1325,852,o),
(1313.5,937.5,q),
(1302,1023,o),
(1278,1100,q),
(1225,1266,o),
(1119.5,1366.5,q),
(1014,1467,o),
(855,1467,q),
(607,1467,o),
(486,1245,q),
(383,1054,o),
(386.5,770.5,q),
(390,487,o),
(490,296,q),
(614,63,o),
(851,63,q),
(1088,63,o),
(1216,296,q)
);
},
{
closed = 1;
nodes = (
(535,1834,o),
(574,1877,q),
(654,1965,o),
(723.5,1965,q),
(793,1965,o),
(862,1932,q),
(965,1882,l),
(999,1867,o),
(1035.5,1867,q),
(1072,1867,o),
(1104.5,1891.5,q),
(1137,1916,o),
(1173,1956,q),
(1219,1923,l),
(1163,1823,o),
(1124,1780,q),
(1044,1692,o),
(963,1692,q),
(907,1689,o),
(840,1723.5,q),
(773,1758,o),
(737,1774,q),
(701,1790,o),
(663.5,1790,q),
(626,1790,o),
(593.5,1765.5,q),
(561,1741,o),
(525,1701,q),
(479,1734,l)
);
}
);
width = 1711;
}
);
unicode = 213;
},
{
category = Letter;
glyphname = Odieresis;
layers = (
{
layerId = "2adea82c-006a-4377-a520-f6b591c948da";
name = Fore;
shapes = (
{
closed = 1;
nodes = (
(98,664,o),
(98,764.5,q),
(98,865,o),
(119.5,961.5,q),
(141,1058,o),
(183,1145,q),
(271,1328,o),
(442.5,1439,q),
(614,1550,o),
(855,1550,q),
(1221,1550,o),
(1428,1306,q),
(1613,1086,o),
(1613,762,q),
(1613,438,o),
(1426,218,q),
(1298,68,o),
(1089,10,q),
(983,-20,o),
(856.5,-20,q),
(730,-20,o),
(625,9.5,q),
(520,39,o),
(436,92,q),
(352,145,o),
(288.5,218.5,q),
(225,292,o),
(183,379.5,q),
(141,467,o),
(119.5,565.5,q)
);
},
{
closed = 1;
nodes = (
(1254,365,o),
(1289.5,481,q),
(1325,597,o),
(1325,724.5,q),
(1325,852,o),
(1313.5,937.5,q),
(1302,1023,o),
(1278,1100,q),
(1225,1266,o),
(1119.5,1366.5,q),
(1014,1467,o),
(855,1467,q),
(607,1467,o),
(486,1245,q),
(383,1054,o),
(386.5,770.5,q),
(390,487,o),
(490,296,q),
(614,63,o),
(851,63,q),
(1088,63,o),
(1216,296,q)
);
},
{
closed = 1;
nodes = (
(1178,1740,o),
(1102,1708,q),
(1079,1699,o),
(1053,1699,q),
(1003,1699,o),
(967,1735,q),
(931,1771,o),
(931,1809,q),
(931,1874,o),
(968,1910,q),
(1005,1946,o),
(1042,1946,q),
(1105,1946,o),
(1141.5,1909.5,q),
(1178,1873,o),
(1178,1834,q)
);
},
{
closed = 1;
nodes = (
(762,1740,o),
(686,1708,q),
(663,1699,o),
(637,1699,q),
(587,1699,o),
(551,1735,q),
(515,1771,o),
(515,1809,q),
(515,1874,o),
(552,1910,q),
(589,1946,o),
(626,1946,q),
(689,1946,o),
(725.5,1909.5,q),
(762,1873,o),
(762,1834,q)
);
}
);
width = 1711;
}
);
unicode = 214;
},
{
category = Letter;
glyphname = multiply;
layers = (
{
layerId = "2adea82c-006a-4377-a520-f6b591c948da";
name = Fore;
shapes = (
{
closed = 1;
nodes = (
(381,860,l),
(452,931,l),
(768,615,l),
(1085,931,l),
(1156,860,l),
(839,544,l),
(1156,228,l),
(1086,156,l),
(768,473,l),
(451,156,l),
(381,228,l),
(697,544,l)
);
}
);
width = 1536;
}
);
unicode = 215;
},
{
category = Letter;
glyphname = Oslash;
layers = (
{
layerId = "2adea82c-006a-4377-a520-f6b591c948da";
name = Fore;
shapes = (
{
closed = 1;
nodes = (
(573,-20,o),
(381,130,q),
(266,-9,l),
(174,69,l),
(296,210,l),
(98,428,o),
(98,756,q),
(98,1084,o),
(288,1306,q),
(498,1550,o),
(855,1550,q),
(1130,1550,o),
(1322,1405,q),
(1433,1540,l),
(1525,1462,l),
(1408,1327,l),
(1613,1106,o),
(1613,772,q),
(1613,438,o),
(1426,218,q),
(1298,68,o),
(1089,10,q),
(983,-20,o),
(855,-20,q)
);
},
{
closed = 1;
nodes = (
(1072,1467,o),
(855,1467,q),
(607,1467,o),
(486,1245,q),
(383,1054,o),
(386,767,q),
(388,550,o),
(452,379,q),
(807,790,l),
(1200,1269,l)
);
},
{
closed = 1;
nodes = (
(630,63,o),
(859,63,q),
(1088,63,o),
(1216,296,q),
(1325,494,o),
(1325,740,q),
(1325,986,o),
(1256,1159,q),
(879,722,l),
(505,269,l)
);
}
);
width = 1711;
}
);
unicode = 216;
},
{
category = Letter;
glyphname = Ugrave;
layers = (
{
layerId = "2adea82c-006a-4377-a520-f6b591c948da";
name = Fore;
shapes = (
{
closed = 1;
nodes = (
(46,1452,l),
(46,1530,l),
(598,1530,l),
(598,1452,l),
(452,1452,l),
(452,525,l),
(452,162,o),
(656,95,q),
(724,73,o),
(788.5,73,q),
(853,73,o),
(900.5,79,q),
(948,85,o),
(995,102,q),
(1100,142,o),
(1167.5,246,q),
(1235,350,o),
(1235,543,q),
(1235,1452,l),
(1079,1452,l),
(1079,1530,l),
(1479,1530,l),
(1479,1452,l),
(1333,1452,l),
(1333,529,l),
(1333,252,o),
(1189,116,q),
(1045,-20,o),
(798,-20,q),
(333,-20,o),
(214,332,q),
(182,426,o),
(182,559,q),
(183,1452,l)
);
},
{
closed = 1;
nodes = (
(455,1796,o),
(441.5,1856.5,q),
(428,1917,o),
(457.5,1954,q),
(487,1991,o),
(527,1997,q),
(567,2003,o),
(591,1992.5,q),
(615,1982,o),
(641,1959,q),
(940,1692,l),
(919,1651,l),
(520,1774,l)
);
}
);
width = 1539;
}
);
unicode = 217;
},
{
category = Letter;
glyphname = Uacute;
layers = (
{
layerId = "2adea82c-006a-4377-a520-f6b591c948da";
name = Fore;
shapes = (
{
closed = 1;
nodes = (
(46,1452,l),
(46,1530,l),
(598,1530,l),
(598,1452,l),
(452,1452,l),
(452,525,l),
(452,162,o),
(656,95,q),
(724,73,o),
(788.5,73,q),
(853,73,o),
(900.5,79,q),
(948,85,o),
(995,102,q),
(1100,142,o),
(1167.5,246,q),
(1235,350,o),
(1235,543,q),
(1235,1452,l),
(1079,1452,l),
(1079,1530,l),
(1479,1530,l),
(1479,1452,l),
(1333,1452,l),
(1333,529,l),
(1333,252,o),
(1189,116,q),
(1045,-20,o),
(798,-20,q),
(333,-20,o),
(214,332,q),
(182,426,o),
(182,559,q),
(183,1452,l)
);
},
{
closed = 1;
nodes = (
(965,1956,l),
(1019,2005,o),
(1056,2001,q),
(1119,1993,o),
(1149,1957.5,q),
(1179,1922,o),
(1172,1882,q),
(1159,1800,o),
(1093,1776,q),
(698,1639,l),
(676,1679,l)
);
}
);
width = 1539;
}
);
unicode = 218;
},
{
category = Letter;
glyphname = Ucircumflex;
layers = (
{
layerId = "2adea82c-006a-4377-a520-f6b591c948da";
name = Fore;
shapes = (
{
closed = 1;
nodes = (
(46,1452,l),
(46,1530,l),
(598,1530,l),
(598,1452,l),
(452,1452,l),
(452,525,l),
(452,162,o),
(656,95,q),
(724,73,o),
(788.5,73,q),
(853,73,o),
(900.5,79,q),
(948,85,o),
(995,102,q),
(1100,142,o),
(1167.5,246,q),
(1235,350,o),
(1235,543,q),
(1235,1452,l),
(1079,1452,l),
(1079,1530,l),
(1479,1530,l),
(1479,1452,l),
(1333,1452,l),
(1333,529,l),
(1333,252,o),
(1189,116,q),
(1045,-20,o),
(798,-20,q),
(333,-20,o),
(214,332,q),
(182,426,o),
(182,559,q),
(183,1452,l)
);
},
{
closed = 1;
nodes = (
(694,1936,l),
(752,2000,o),
(787.5,2000,q),
(823,2000,o),
(840,1992,q),
(872,1979,o),
(899,1950,q),
(1165,1647,l),
(1137,1610,l),
(803,1794,l),
(459,1610,l),
(431,1646,l)
);
}
);
width = 1539;
}
);
unicode = 219;
},
{
category = Letter;
glyphname = Udieresis;
layers = (
{
layerId = "2adea82c-006a-4377-a520-f6b591c948da";
name = Fore;
shapes = (
{
closed = 1;
nodes = (
(46,1452,l),
(46,1530,l),
(598,1530,l),
(598,1452,l),
(452,1452,l),
(452,525,l),
(452,162,o),
(656,95,q),
(724,73,o),
(788.5,73,q),
(853,73,o),
(900.5,79,q),
(948,85,o),
(995,102,q),
(1100,142,o),
(1167.5,246,q),
(1235,350,o),
(1235,543,q),
(1235,1452,l),
(1079,1452,l),
(1079,1530,l),
(1479,1530,l),
(1479,1452,l),
(1333,1452,l),
(1333,529,l),
(1333,252,o),
(1189,116,q),
(1045,-20,o),
(798,-20,q),
(333,-20,o),
(214,332,q),
(182,426,o),
(182,559,q),
(183,1452,l)
);
},
{
closed = 1;
nodes = (
(1127,1740,o),
(1051,1708,q),
(1028,1699,o),
(1002,1699,q),
(952,1699,o),
(916,1735,q),
(880,1771,o),
(880,1809,q),
(880,1874,o),
(917,1910,q),
(954,1946,o),
(991,1946,q),
(1054,1946,o),
(1090.5,1909.5,q),
(1127,1873,o),
(1127,1834,q)
);
},
{
closed = 1;
nodes = (
(711,1740,o),
(635,1708,q),
(612,1699,o),
(586,1699,q),
(536,1699,o),
(500,1735,q),
(464,1771,o),
(464,1809,q),
(464,1874,o),
(501,1910,q),
(538,1946,o),
(575,1946,q),
(638,1946,o),
(674.5,1909.5,q),
(711,1873,o),
(711,1834,q)
);
}
);
width = 1539;
}
);
unicode = 220;
},
{
category = Letter;
glyphname = Yacute;
layers = (
{
layerId = "2adea82c-006a-4377-a520-f6b591c948da";
name = Fore;
shapes = (
{
closed = 1;
nodes = (
(646,78,l),
(647,590,l),
(135,1452,l),
(10,1452,l),
(10,1530,l),
(654,1530,l),
(654,1452,l),
(451,1452,l),
(860,733,l),
(1266,1452,l),
(1082,1452,l),
(1082,1530,l),
(1524,1530,l),
(1524,1452,l),
(1373,1452,l),
(916,652,l),
(916,78,l),
(1115,78,l),
(1115,0,l),
(448,0,l),
(448,78,l)
);
},
{
closed = 1;
nodes = (
(946,1956,l),
(1000,2005,o),
(1037,2001,q),
(1100,1993,o),
(1130,1957.5,q),
(1160,1922,o),
(1153,1882,q),
(1140,1800,o),
(1074,1776,q),
(679,1639,l),
(657,1679,l)
);
}
);
width = 1539;
}
);
unicode = 221;
},
{
category = Letter;
glyphname = Thorn;
layers = (
{
layerId = "2adea82c-006a-4377-a520-f6b591c948da";
name = Fore;
shapes = (
{
closed = 1;
nodes = (
(1310,1226,o),
(1310,792,q),
(1310,578,o),
(1150,447.5,q),
(990,317,o),
(675,317,q),
(492,317,l),
(492,78,l),
(705,78,l),
(705,0,l),
(51,0,l),
(51,78,l),
(222,78,l),
(223,1452,l),
(51,1452,l),
(51,1530,l),
(705,1530,l),
(705,1452,l),
(492,1452,l),
(492,1226,l),
(671,1226,l)
);
},
{
closed = 1;
nodes = (
(932,386,o),
(1003,612,q),
(1029,695,o),
(1029,781,q),
(1029,958,o),
(949,1057.5,q),
(869,1157,o),
(702,1157,q),
(492,1157,l),
(492,386,l),
(700,386,l)
);
}
);
width = 1364;
}
);
unicode = 222;
},
{
category = Letter;
glyphname = germandbls;
layers = (
{
layerId = "2adea82c-006a-4377-a520-f6b591c948da";
name = Fore;
shapes = (
{
closed = 1;
nodes = (
(461,1615,o),
(461,1187,q),
(461,0,l),
(47,0,l),
(47,78,l),
(200,78,l),
(200,945,l),
(22,945,l),
(22,1023,l),
(200,1023,l),
(200,1105,l),
(200,1367,o),
(339.5,1525.5,q),
(479,1684,o),
(703.5,1684,q),
(928,1684,o),
(1045.5,1593,q),
(1163,1502,o),
(1163,1374,q),
(1163,1171,o),
(978,1066,q),
(856,997,o),
(824,962.5,q),
(792,928,o),
(792,898.5,q),
(792,869,o),
(806.5,851,q),
(821,833,o),
(844.5,814,q),
(868,795,o),
(898,776,q),
(956,740,l),
(1026,701,o),
(1084,672,q),
(1219,604,o),
(1276.5,529.5,q),
(1334,455,o),
(1334,367,q),
(1334,196,o),
(1224,88,q),
(1114,-20,o),
(926,-20,q),
(797,-20,o),
(698.5,31,q),
(600,82,o),
(586,148,q),
(588,180,o),
(619,213,q),
(650,246,o),
(684,252,q),
(744,135,o),
(859,84,q),
(900,65,o),
(944,65,q),
(1039,65,o),
(1099.5,110,q),
(1160,155,o),
(1160,242.5,q),
(1160,330,o),
(1006,414,q),
(910,464,l),
(784,529,o),
(733,577,q),
(632,672,o),
(632,779,q),
(632,886,o),
(704,970,q),
(734,1006,o),
(770,1040,q),
(908,1173,o),
(908,1325,q),
(908,1477,o),
(846,1546,q),
(784,1615,o),
(689,1615,q)
);
}
);
width = 1366;
}
);
unicode = 223;
},
{
category = Letter;
glyphname = agrave;
layers = (
{
layerId = "2adea82c-006a-4377-a520-f6b591c948da";
name = Fore;
shapes = (
{
closed = 1;
nodes = (
(649,-20,o),
(454,-20,q),
(306,-20,o),
(199,62.5,q),
(92,145,o),
(92,278.5,q),
(92,412,o),
(197,488.5,q),
(302,565,o),
(467.5,565,q),
(633,565,o),
(744,482,q),
(744,720,l),
(744,841,o),
(714,884,q),
(684,927,o),
(643.5,944,q),
(603,961,o),
(554,961,q),
(477,961,o),
(424,943.5,q),
(371,926,o),
(353,908,q),
(399,894,o),
(424,838,q),
(432,818,o),
(432,790,q),
(432,735,o),
(392,698.5,q),
(352,662,o),
(312,662,q),
(242,662,o),
(203,699,q),
(164,736,o),
(164,788,q),
(164,840,o),
(183,873.5,q),
(202,907,o),
(234,934,q),
(295,985,o),
(387.5,1012,q),
(480,1039,o),
(561,1039,q),
(786,1039,o),
(894,948,q),
(1002,857,o),
(1002,694,q),
(1002,161,l),
(1002,78,o),
(1043,78,q),
(1084,78,o),
(1122,128,q),
(1174,85,l),
(1106,-18,o),
(952,-18,q),
(898,-18,o),
(842.5,16,q),
(787,50,o),
(765,113,q)
);
},
{
closed = 1;
nodes = (
(662,476,o),
(561,476,q),
(460,476,o),
(409,428.5,q),
(358,381,o),
(358,276,q),
(358,121,o),
(467,88,q),
(498,78,o),
(530,78,q),
(621,78,o),
(704,148,q),
(728,169,o),
(747,193,q),
(747,393,l)
);
},
{
closed = 1;
nodes = (
(232,1442,o),
(237,1517,q),
(239,1566,o),
(277,1594,q),
(315,1622,o),
(355.5,1617.5,q),
(396,1613,o),
(416,1597.5,q),
(436,1582,o),
(456,1552,q),
(676,1218,l),
(645,1184,l),
(291,1406,l)
);
}
);
width = 1195;
}
);
unicode = 224;
},
{
category = Letter;
glyphname = aacute;
layers = (
{
layerId = "2adea82c-006a-4377-a520-f6b591c948da";
name = Fore;
shapes = (
{
closed = 1;
nodes = (
(649,-20,o),
(454,-20,q),
(306,-20,o),
(199,62.5,q),
(92,145,o),
(92,278.5,q),
(92,412,o),
(197,488.5,q),
(302,565,o),
(467.5,565,q),
(633,565,o),
(744,482,q),
(744,720,l),
(744,841,o),
(714,884,q),
(684,927,o),
(643.5,944,q),
(603,961,o),
(554,961,q),
(477,961,o),
(424,943.5,q),
(371,926,o),
(353,908,q),
(399,894,o),
(424,838,q),
(432,818,o),
(432,790,q),
(432,735,o),
(392,698.5,q),
(352,662,o),
(312,662,q),
(242,662,o),
(203,699,q),
(164,736,o),
(164,788,q),
(164,840,o),
(183,873.5,q),
(202,907,o),
(234,934,q),
(295,985,o),
(387.5,1012,q),
(480,1039,o),
(561,1039,q),
(786,1039,o),
(894,948,q),
(1002,857,o),
(1002,694,q),
(1002,161,l),
(1002,78,o),
(1043,78,q),
(1084,78,o),
(1122,128,q),
(1174,85,l),
(1106,-18,o),
(952,-18,q),
(898,-18,o),
(842.5,16,q),
(787,50,o),
(765,113,q)
);
},
{
closed = 1;
nodes = (
(662,476,o),
(561,476,q),
(460,476,o),
(409,428.5,q),
(358,381,o),
(358,276,q),
(358,121,o),
(467,88,q),
(498,78,o),
(530,78,q),
(621,78,o),
(704,148,q),
(728,169,o),
(747,193,q),
(747,393,l)
);
},
{
closed = 1;
nodes = (
(698,1552,l),
(737,1610,o),
(775,1615,q),
(839,1623,o),
(876,1595,q),
(913,1567,o),
(916,1527,q),
(922,1443,o),
(863,1406,q),
(509,1184,l),
(478,1218,l)
);
}
);
width = 1195;
}
);
unicode = 225;
},
{
category = Letter;
glyphname = acircumflex;
layers = (
{
layerId = "2adea82c-006a-4377-a520-f6b591c948da";
name = Fore;
shapes = (
{
closed = 1;
nodes = (
(649,-20,o),
(454,-20,q),
(306,-20,o),
(199,62.5,q),
(92,145,o),
(92,278.5,q),
(92,412,o),
(197,488.5,q),
(302,565,o),
(467.5,565,q),
(633,565,o),
(744,482,q),
(744,720,l),
(744,841,o),
(714,884,q),
(684,927,o),
(643.5,944,q),
(603,961,o),
(554,961,q),
(477,961,o),
(424,943.5,q),
(371,926,o),
(353,908,q),
(399,894,o),
(424,838,q),
(432,818,o),
(432,790,q),
(432,735,o),
(392,698.5,q),
(352,662,o),
(312,662,q),
(242,662,o),
(203,699,q),
(164,736,o),
(164,788,q),
(164,840,o),
(183,873.5,q),
(202,907,o),
(234,934,q),
(295,985,o),
(387.5,1012,q),
(480,1039,o),
(561,1039,q),
(786,1039,o),
(894,948,q),
(1002,857,o),
(1002,694,q),
(1002,161,l),
(1002,78,o),
(1043,78,q),
(1084,78,o),
(1122,128,q),
(1174,85,l),
(1106,-18,o),
(952,-18,q),
(898,-18,o),
(842.5,16,q),
(787,50,o),
(765,113,q)
);
},
{
closed = 1;
nodes = (
(662,476,o),
(561,476,q),
(460,476,o),
(409,428.5,q),
(358,381,o),
(358,276,q),
(358,121,o),
(467,88,q),
(498,78,o),
(530,78,q),
(621,78,o),
(704,148,q),
(728,169,o),
(747,193,q),
(747,393,l)
);
},
{
closed = 1;
nodes = (
(474,1535,l),
(521,1599,o),
(585,1599,q),
(649,1599,o),
(699,1528,q),
(950,1210,l),
(917,1179,l),
(583,1383,l),
(239,1179,l),
(208,1212,l)
);
}
);
width = 1195;
}
);
unicode = 226;
},
{
category = Letter;
glyphname = atilde;
layers = (
{
layerId = "2adea82c-006a-4377-a520-f6b591c948da";
name = Fore;
shapes = (
{
closed = 1;
nodes = (
(649,-20,o),
(454,-20,q),
(306,-20,o),
(199,62.5,q),
(92,145,o),
(92,278.5,q),
(92,412,o),
(197,488.5,q),
(302,565,o),
(467.5,565,q),
(633,565,o),
(744,482,q),
(744,720,l),
(744,841,o),
(714,884,q),
(684,927,o),
(643.5,944,q),
(603,961,o),
(554,961,q),
(477,961,o),
(424,943.5,q),
(371,926,o),
(353,908,q),
(399,894,o),
(424,838,q),
(432,818,o),
(432,790,q),
(432,735,o),
(392,698.5,q),
(352,662,o),
(312,662,q),
(242,662,o),
(203,699,q),
(164,736,o),
(164,788,q),
(164,840,o),
(183,873.5,q),
(202,907,o),
(234,934,q),
(295,985,o),
(387.5,1012,q),
(480,1039,o),
(561,1039,q),
(786,1039,o),
(894,948,q),
(1002,857,o),
(1002,694,q),
(1002,161,l),
(1002,78,o),
(1043,78,q),
(1084,78,o),
(1122,128,q),
(1174,85,l),
(1106,-18,o),
(952,-18,q),
(898,-18,o),
(842.5,16,q),
(787,50,o),
(765,113,q)
);
},
{
closed = 1;
nodes = (
(662,476,o),
(561,476,q),
(460,476,o),
(409,428.5,q),
(358,381,o),
(358,276,q),
(358,121,o),
(467,88,q),
(498,78,o),
(530,78,q),
(621,78,o),
(704,148,q),
(728,169,o),
(747,193,q),
(747,393,l)
);
},
{
closed = 1;
nodes = (
(833,1239,o),
(683,1239,q),
(627,1239,o),
(560.5,1274.5,q),
(494,1310,o),
(459,1326,q),
(424,1342,o),
(387,1342,q),
(350,1342,o),
(317.5,1317.5,q),
(285,1293,o),
(249,1253,q),
(203,1286,l),
(259,1386,o),
(298,1429,q),
(378,1517,o),
(447,1517,q),
(516,1517,o),
(582,1483.5,q),
(648,1450,o),
(681,1434.5,q),
(714,1419,o),
(745,1419,q),
(824,1419,o),
(871,1473,q),
(885,1489,o),
(897,1506,q),
(944,1475,l)
);
}
);
width = 1195;
}
);
unicode = 227;
},
{
category = Letter;
glyphname = adieresis;
layers = (
{
layerId = "2adea82c-006a-4377-a520-f6b591c948da";
name = Fore;
shapes = (
{
closed = 1;
nodes = (
(649,-20,o),
(454,-20,q),
(306,-20,o),
(199,62.5,q),
(92,145,o),
(92,278.5,q),
(92,412,o),
(197,488.5,q),
(302,565,o),
(467.5,565,q),
(633,565,o),
(744,482,q),
(744,720,l),
(744,841,o),
(714,884,q),
(684,927,o),
(643.5,944,q),
(603,961,o),
(554,961,q),
(477,961,o),
(424,943.5,q),
(371,926,o),
(353,908,q),
(399,894,o),
(424,838,q),
(432,818,o),
(432,790,q),
(432,735,o),
(392,698.5,q),
(352,662,o),
(312,662,q),
(242,662,o),
(203,699,q),
(164,736,o),
(164,788,q),
(164,840,o),
(183,873.5,q),
(202,907,o),
(234,934,q),
(295,985,o),
(387.5,1012,q),
(480,1039,o),
(561,1039,q),
(786,1039,o),
(894,948,q),
(1002,857,o),
(1002,694,q),
(1002,161,l),
(1002,78,o),
(1043,78,q),
(1084,78,o),
(1122,128,q),
(1174,85,l),
(1106,-18,o),
(952,-18,q),
(898,-18,o),
(842.5,16,q),
(787,50,o),
(765,113,q)
);
},
{
closed = 1;
nodes = (
(662,476,o),
(561,476,q),
(460,476,o),
(409,428.5,q),
(358,381,o),
(358,276,q),
(358,121,o),
(467,88,q),
(498,78,o),
(530,78,q),
(621,78,o),
(704,148,q),
(728,169,o),
(747,193,q),
(747,393,l)
);
},
{
closed = 1;
nodes = (
(929,1285,o),
(853,1254,q),
(830,1244,o),
(804,1244,q),
(755,1244,o),
(718.5,1278.5,q),
(682,1313,o),
(682,1352,q),
(682,1416,o),
(718,1452,q),
(755,1487,o),
(792,1487,q),
(857,1487,o),
(893,1451,q),
(929,1415,o),
(929,1377,q)
);
},
{
closed = 1;
nodes = (
(473,1285,o),
(397,1254,q),
(374,1244,o),
(348,1244,q),
(299,1244,o),
(262.5,1278.5,q),
(226,1313,o),
(226,1352,q),
(226,1416,o),
(262,1452,q),
(299,1487,o),
(336,1487,q),
(401,1487,o),
(437,1451,q),
(473,1415,o),
(473,1377,q)
);
}
);
width = 1195;
}
);
unicode = 228;
},
{
category = Letter;
glyphname = aring;
layers = (
{
layerId = "2adea82c-006a-4377-a520-f6b591c948da";
name = Fore;
shapes = (
{
closed = 1;
nodes = (
(649,-20,o),
(454,-20,q),
(306,-20,o),
(199,62.5,q),
(92,145,o),
(92,278.5,q),
(92,412,o),
(197,488.5,q),
(302,565,o),
(467.5,565,q),
(633,565,o),
(744,482,q),
(744,720,l),
(744,841,o),
(714,884,q),
(684,927,o),
(643.5,944,q),
(603,961,o),
(554,961,q),
(477,961,o),
(424,943.5,q),
(371,926,o),
(353,908,q),
(399,894,o),
(424,838,q),
(432,818,o),
(432,790,q),
(432,735,o),
(392,698.5,q),
(352,662,o),
(312,662,q),
(242,662,o),
(203,699,q),
(164,736,o),
(164,788,q),
(164,840,o),
(183,873.5,q),
(202,907,o),
(234,934,q),
(295,985,o),
(387.5,1012,q),
(480,1039,o),
(561,1039,q),
(786,1039,o),
(894,948,q),
(1002,857,o),
(1002,694,q),
(1002,161,l),
(1002,78,o),
(1043,78,q),
(1084,78,o),
(1122,128,q),
(1174,85,l),
(1106,-18,o),
(952,-18,q),
(898,-18,o),
(842.5,16,q),
(787,50,o),
(765,113,q)
);
},
{
closed = 1;
nodes = (
(662,476,o),
(561,476,q),
(460,476,o),
(409,428.5,q),
(358,381,o),
(358,276,q),
(358,121,o),
(467,88,q),
(498,78,o),
(530,78,q),
(621,78,o),
(704,148,q),
(728,169,o),
(747,193,q),
(747,393,l)
);
},
{
closed = 1;
nodes = (
(295,1271,o),
(295,1369,q),
(295,1467,o),
(374,1527,q),
(453,1587,o),
(575,1587,q),
(697,1587,o),
(774,1527.5,q),
(851,1468,o),
(851,1369,q),
(851,1270,o),
(774,1210.5,q),
(697,1151,o),
(575.5,1151,q),
(454,1151,o),
(374,1210,q)
);
},
{
closed = 1;
nodes = (
(447,1218,o),
(573.5,1218,q),
(700,1218,o),
(700,1368,q),
(700,1518,o),
(573.5,1518,q),
(447,1518,o),
(447,1368,q)
);
}
);
width = 1195;
}
);
unicode = 229;
},
{
category = Letter;
glyphname = ae;
layers = (
{
layerId = "2adea82c-006a-4377-a520-f6b591c948da";
name = Fore;
shapes = (
{
closed = 1;
nodes = (
(1422,75,o),
(1566,223,q),
(1619,175,l),
(1510,40,o),
(1337,-5,q),
(1279,-20,o),
(1206,-20,q),
(1054,-20,o),
(949.5,21.5,q),
(845,63,o),
(779,152,q),
(746,79,o),
(647.5,29.5,q),
(549,-20,o),
(450,-20,q),
(268,-20,o),
(166,61,q),
(64,142,o),
(64,277,q),
(64,412,o),
(169,488.5,q),
(274,565,o),
(428,565,q),
(582,565,o),
(686,502,q),
(686,720,l),
(686,841,o),
(656,884,q),
(626,927,o),
(585.5,944,q),
(545,961,o),
(496,961,q),
(419,961,o),
(366,943.5,q),
(313,926,o),
(295,908,q),
(341,894,o),
(366,838,q),
(374,818,o),
(374,790,q),
(374,735,o),
(334,698.5,q),
(294,662,o),
(254,662,q),
(184,662,o),
(145,699,q),
(106,736,o),
(106,788,q),
(106,840,o),
(125,873.5,q),
(144,907,o),
(176,934,q),
(237,985,o),
(329.5,1012,q),
(422,1039,o),
(503,1039,q),
(759,1039,o),
(868,916,q),
(991,1039,o),
(1202.5,1039,q),
(1414,1039,o),
(1526.5,909.5,q),
(1639,780,o),
(1639,544,q),
(944,544,l),
(944,495,l),
(950,200,o),
(1117,106,q),
(1173,75,o),
(1248,75,q)
);
},
{
closed = 1;
nodes = (
(1370,787,o),
(1325.5,871,q),
(1281,955,o),
(1184,955,q),
(979,955,o),
(949,626,q),
(1372,626,l)
);
},
{
closed = 1;
nodes = (
(330,120,o),
(430,88,q),
(460,78,o),
(502,78,q),
(578,78,o),
(628,106.5,q),
(678,135,o),
(689,160,q),
(689,407,l),
(686,420,l),
(611,476,o),
(521.5,476,q),
(432,476,o),
(381,428.5,q),
(330,381,o),
(330,276,q)
);
}
);
width = 1707;
}
);
unicode = 230;
},
{
category = Letter;
glyphname = ccedilla;
layers = (
{
layerId = "2adea82c-006a-4377-a520-f6b591c948da";
name = Fore;
shapes = (
{
closed = 1;
nodes = (
(670,-247,o),
(524,-247,q),
(516,-247,o),
(504,-248,q),
(480,-248,l),
(459,-249,o),
(435,-252,q),
(485,-5,l),
(295,34,o),
(181,170.5,q),
(67,307,o),
(67,532.5,q),
(67,758,o),
(224.5,899,q),
(382,1040,o),
(624,1040,q),
(762,1040,o),
(879.5,978.5,q),
(997,917,o),
(997,805,q),
(997,745,o),
(959,707,q),
(921,669,o),
(878,669,q),
(807,669,o),
(768,702,q),
(729,735,o),
(729,791,q),
(729,882,o),
(802,917,q),
(728,963,o),
(631,963,q),
(343,963,o),
(343,514,q),
(343,198,o),
(517,106,q),
(575,76,o),
(652,76,q),
(834,76,o),
(946,192,q),
(998,144,l),
(915,38,o),
(757,-4,q),
(699,-20,o),
(651,-20,q),
(603,-20,o),
(577,-18,q),
(556,-127,l),
(565,-126,o),
(574,-126,q),
(593,-126,l),
(760,-126,o),
(822,-207,q),
(847,-239,o),
(847,-286,q),
(847,-333,o),
(826,-369.5,q),
(805,-406,o),
(770,-436,q),
(701,-494,o),
(593,-527,q),
(485,-560,o),
(391,-560,q),
(383,-485,l),
(566,-471,o),
(640,-402,q),
(670,-374,o),
(670,-332,q)
);
}
);
width = 1026;
}
);
unicode = 231;
},
{
category = Letter;
glyphname = egrave;
layers = (
{
layerId = "2adea82c-006a-4377-a520-f6b591c948da";
name = Fore;
shapes = (
{
closed = 1;
nodes = (
(915,-20,o),
(625,-20,q),
(529,-20,o),
(425,20.5,q),
(321,61,o),
(248,132,q),
(97,282,o),
(97,514.5,q),
(97,747,o),
(249,893,q),
(401,1039,o),
(635,1039,q),
(979,1039,o),
(1068,751,q),
(1097,659,o),
(1097,544,q),
(373,544,l),
(373,514,l),
(373,205,o),
(548,108,q),
(607,75,o),
(689,75,q),
(871,75,o),
(1019,223,q),
(1072,175,l)
);
},
{
closed = 1;
nodes = (
(826,786,o),
(779,870.5,q),
(732,955,o),
(625,955,q),
(408,955,o),
(378,626,q),
(828,626,l)
);
},
{
closed = 1;
nodes = (
(257,1442,o),
(262,1517,q),
(264,1566,o),
(302,1594,q),
(340,1622,o),
(380.5,1617.5,q),
(421,1613,o),
(441,1597.5,q),
(461,1582,o),
(481,1552,q),
(701,1218,l),
(670,1184,l),
(316,1406,l)
);
}
);
width = 1194;
}
);
unicode = 232;
},
{
category = Letter;
glyphname = eacute;
layers = (
{
layerId = "2adea82c-006a-4377-a520-f6b591c948da";
name = Fore;
shapes = (
{
closed = 1;
nodes = (
(915,-20,o),
(625,-20,q),
(529,-20,o),
(425,20.5,q),
(321,61,o),
(248,132,q),
(97,282,o),
(97,514.5,q),
(97,747,o),
(249,893,q),
(401,1039,o),
(635,1039,q),
(979,1039,o),
(1068,751,q),
(1097,659,o),
(1097,544,q),
(373,544,l),
(373,514,l),
(373,205,o),
(548,108,q),
(607,75,o),
(689,75,q),
(871,75,o),
(1019,223,q),
(1072,175,l)
);
},
{
closed = 1;
nodes = (
(826,786,o),
(779,870.5,q),
(732,955,o),
(625,955,q),
(408,955,o),
(378,626,q),
(828,626,l)
);
},
{
closed = 1;
nodes = (
(723,1552,l),
(762,1610,o),
(800,1615,q),
(864,1623,o),
(901,1595,q),
(938,1567,o),
(941,1527,q),
(947,1443,o),
(888,1406,q),
(534,1184,l),
(503,1218,l)
);
}
);
width = 1194;
}
);
unicode = 233;
},
{
category = Letter;
glyphname = ecircumflex;
layers = (
{
layerId = "2adea82c-006a-4377-a520-f6b591c948da";
name = Fore;
shapes = (
{
closed = 1;
nodes = (
(915,-20,o),
(625,-20,q),
(529,-20,o),
(425,20.5,q),
(321,61,o),
(248,132,q),
(97,282,o),
(97,514.5,q),
(97,747,o),
(249,893,q),
(401,1039,o),
(635,1039,q),
(979,1039,o),
(1068,751,q),
(1097,659,o),
(1097,544,q),
(373,544,l),
(373,514,l),
(373,205,o),
(548,108,q),
(607,75,o),
(689,75,q),
(871,75,o),
(1019,223,q),
(1072,175,l)
);
},
{
closed = 1;
nodes = (
(826,786,o),
(779,870.5,q),
(732,955,o),
(625,955,q),
(408,955,o),
(378,626,q),
(828,626,l)
);
},
{
closed = 1;
nodes = (
(499,1535,l),
(546,1599,o),
(610,1599,q),
(674,1599,o),
(724,1528,q),
(975,1210,l),
(942,1179,l),
(608,1383,l),
(264,1179,l),
(233,1212,l)
);
}
);
width = 1194;
}
);
unicode = 234;
},
{
category = Letter;
glyphname = edieresis;
layers = (
{
layerId = "2adea82c-006a-4377-a520-f6b591c948da";
name = Fore;
shapes = (
{
closed = 1;
nodes = (
(915,-20,o),
(625,-20,q),
(529,-20,o),
(425,20.5,q),
(321,61,o),
(248,132,q),
(97,282,o),
(97,514.5,q),
(97,747,o),
(249,893,q),
(401,1039,o),
(635,1039,q),
(979,1039,o),
(1068,751,q),
(1097,659,o),
(1097,544,q),
(373,544,l),
(373,514,l),
(373,205,o),
(548,108,q),
(607,75,o),
(689,75,q),
(871,75,o),
(1019,223,q),
(1072,175,l)
);
},
{
closed = 1;
nodes = (
(826,786,o),
(779,870.5,q),
(732,955,o),
(625,955,q),
(408,955,o),
(378,626,q),
(828,626,l)
);
},
{
closed = 1;
nodes = (
(954,1285,o),
(878,1254,q),
(855,1244,o),
(829,1244,q),
(780,1244,o),
(743.5,1278.5,q),
(707,1313,o),
(707,1352,q),
(707,1416,o),
(743,1452,q),
(780,1487,o),
(817,1487,q),
(882,1487,o),
(918,1451,q),
(954,1415,o),
(954,1377,q)
);
},
{
closed = 1;
nodes = (
(498,1285,o),
(422,1254,q),
(399,1244,o),
(373,1244,q),
(324,1244,o),
(287.5,1278.5,q),
(251,1313,o),
(251,1352,q),
(251,1416,o),
(287,1452,q),
(324,1487,o),
(361,1487,q),
(426,1487,o),
(462,1451,q),
(498,1415,o),
(498,1377,q)
);
}
);
width = 1194;
}
);
unicode = 235;
},
{
category = Letter;
glyphname = igrave;
layers = (
{
layerId = "2adea82c-006a-4377-a520-f6b591c948da";
name = Fore;
shapes = (
{
closed = 1;
nodes = (
(223,78,l),
(223,945,l),
(75,945,l),
(75,1023,l),
(488,1023,l),
(488,78,l),
(650,78,l),
(650,0,l),
(61,0,l),
(61,78,l)
);
},
{
closed = 1;
nodes = (
(2,1442,o),
(7,1517,q),
(9,1566,o),
(47,1594,q),
(85,1622,o),
(125.5,1617.5,q),
(166,1613,o),
(186,1597.5,q),
(206,1582,o),
(226,1552,q),
(446,1218,l),
(415,1184,l),
(61,1406,l)
);
}
);
width = 683;
}
);
unicode = 236;
},
{
category = Letter;
glyphname = iacute;
layers = (
{
layerId = "2adea82c-006a-4377-a520-f6b591c948da";
name = Fore;
shapes = (
{
closed = 1;
nodes = (
(223,78,l),
(223,945,l),
(75,945,l),
(75,1023,l),
(488,1023,l),
(488,78,l),
(650,78,l),
(650,0,l),
(61,0,l),
(61,78,l)
);
},
{
closed = 1;
nodes = (
(468,1552,l),
(507,1610,o),
(545,1615,q),
(609,1623,o),
(646,1595,q),
(683,1567,o),
(686,1527,q),
(692,1443,o),
(633,1406,q),
(279,1184,l),
(248,1218,l)
);
}
);
width = 683;
}
);
unicode = 237;
},
{
category = Letter;
glyphname = icircumflex;
layers = (
{
layerId = "2adea82c-006a-4377-a520-f6b591c948da";
name = Fore;
shapes = (
{
closed = 1;
nodes = (
(223,78,l),
(223,945,l),
(75,945,l),
(75,1023,l),
(488,1023,l),
(488,78,l),
(650,78,l),
(650,0,l),
(61,0,l),
(61,78,l)
);
},
{
closed = 1;
nodes = (
(244,1535,l),
(291,1599,o),
(355,1599,q),
(419,1599,o),
(469,1528,q),
(720,1210,l),
(687,1179,l),
(353,1383,l),
(9,1179,l),
(-22,1212,l)
);
}
);
width = 683;
}
);
unicode = 238;
},
{
category = Letter;
glyphname = idieresis;
layers = (
{
layerId = "2adea82c-006a-4377-a520-f6b591c948da";
name = Fore;
shapes = (
{
closed = 1;
nodes = (
(656,1285,o),
(580,1254,q),
(557,1244,o),
(532,1244,q),
(482,1244,o),
(445.5,1278.5,q),
(409,1313,o),
(409,1352,q),
(409,1416,o),
(445,1452,q),
(482,1487,o),
(520,1487,q),
(583,1487,o),
(620,1452,q),
(656,1415,o),
(656,1377,q)
);
},
{
closed = 1;
nodes = (
(294,1285,o),
(218,1254,q),
(195,1244,o),
(170,1244,q),
(120,1244,o),
(83.5,1278.5,q),
(47,1313,o),
(47,1352,q),
(47,1416,o),
(83,1452,q),
(120,1487,o),
(158,1487,q),
(221,1487,o),
(258,1452,q),
(294,1415,o),
(294,1377,q)
);
},
{
closed = 1;
nodes = (
(223,78,l),
(223,945,l),
(75,945,l),
(75,1023,l),
(488,1023,l),
(488,78,l),
(650,78,l),
(650,0,l),
(61,0,l),
(61,78,l)
);
}
);
width = 683;
}
);
unicode = 239;
},
{
category = Letter;
glyphname = eth;
layers = (
{
layerId = "2adea82c-006a-4377-a520-f6b591c948da";
name = Fore;
shapes = (
{
closed = 1;
nodes = (
(1216,560,l),
(1207,264,o),
(1060.5,122,q),
(914,-20,o),
(683.5,-20,q),
(453,-20,o),
(299,128.5,q),
(145,277,o),
(145,512.5,q),
(145,748,o),
(299.5,894,q),
(454,1040,o),
(680,1040,q),
(818,1040,o),
(910,990,q),
(855,1247,o),
(667,1418,q),
(458,1237,l),
(397,1306,l),
(594,1477,l),
(457,1575,o),
(295,1605,q),
(315,1684,l),
(519,1657,o),
(688,1558,q),
(911,1751,l),
(971,1682,l),
(769,1506,l),
(983,1352,o),
(1100,1106.5,q),
(1217,861,o),
(1217,598,q)
);
},
{
closed = 1;
nodes = (
(423,65,o),
(680,65,q),
(952,65,o),
(952,505,q),
(952,852,o),
(780,934,q),
(738,955,o),
(672,955,q),
(541,955,o),
(482,839,q),
(423,723,o),
(423,515,q)
);
}
);
width = 1362;
}
);
unicode = 240;
},
{
category = Letter;
glyphname = ntilde;
layers = (
{
layerId = "2adea82c-006a-4377-a520-f6b591c948da";
name = Fore;
shapes = (
{
closed = 1;
nodes = (
(611,945,o),
(479,794,q),
(479,78,l),
(661,78,l),
(661,0,l),
(57,0,l),
(57,78,l),
(219,78,l),
(219,945,l),
(56,945,l),
(56,1023,l),
(479,1023,l),
(479,895,l),
(629,1040,o),
(822,1040,q),
(955,1040,o),
(1058,972,q),
(1191,884,o),
(1191,692,q),
(1191,78,l),
(1353,78,l),
(1353,0,l),
(749,0,l),
(749,78,l),
(931,78,l),
(931,712,l),
(931,829,o),
(906.5,871,q),
(882,913,o),
(851.5,929,q),
(821,945,o),
(774,945,q)
);
},
{
closed = 1;
nodes = (
(961,1239,o),
(811,1239,q),
(755,1239,o),
(688.5,1274.5,q),
(622,1310,o),
(587,1326,q),
(552,1342,o),
(515,1342,q),
(478,1342,o),
(445.5,1317.5,q),
(413,1293,o),
(377,1253,q),
(331,1286,l),
(387,1386,o),
(426,1429,q),
(506,1517,o),
(575,1517,q),
(644,1517,o),
(710,1483.5,q),
(776,1450,o),
(809,1434.5,q),
(842,1419,o),
(873,1419,q),
(952,1419,o),
(999,1473,q),
(1013,1489,o),
(1025,1506,q),
(1072,1475,l)
);
}
);
width = 1365;
}
);
unicode = 241;
},
{
category = Letter;
glyphname = ograve;
layers = (
{
layerId = "2adea82c-006a-4377-a520-f6b591c948da";
name = Fore;
shapes = (
{
closed = 1;
nodes = (
(372,1040,o),
(599.5,1040,q),
(827,1040,o),
(974.5,894.5,q),
(1122,749,o),
(1122,512.5,q),
(1122,276,o),
(975.5,128,q),
(829,-20,o),
(600,-20,q),
(371,-20,o),
(221.5,128,q),
(72,276,o),
(72,512,q),
(72,748,o),
(222,894,q)
);
},
{
closed = 1;
nodes = (
(799,63,o),
(834,338,q),
(844,420,o),
(844,514,q),
(844,725,o),
(796,830,q),
(737,956,o),
(597,956,q),
(395,956,o),
(360,690,q),
(350,609,o),
(350,514,q),
(350,302,o),
(398,194,q),
(458,63,o),
(597,63,q)
);
},
{
closed = 1;
nodes = (
(251,1442,o),
(256,1517,q),
(258,1566,o),
(296,1594,q),
(334,1622,o),
(374.5,1617.5,q),
(415,1613,o),
(435,1597.5,q),
(455,1582,o),
(475,1552,q),
(695,1218,l),
(664,1184,l),
(310,1406,l)
);
}
);
width = 1194;
}
);
unicode = 242;
},
{
category = Letter;
glyphname = oacute;
layers = (
{
layerId = "2adea82c-006a-4377-a520-f6b591c948da";
name = Fore;
shapes = (
{
closed = 1;
nodes = (
(372,1040,o),
(599.5,1040,q),
(827,1040,o),
(974.5,894.5,q),
(1122,749,o),
(1122,512.5,q),
(1122,276,o),
(975.5,128,q),
(829,-20,o),
(600,-20,q),
(371,-20,o),
(221.5,128,q),
(72,276,o),
(72,512,q),
(72,748,o),
(222,894,q)
);
},
{
closed = 1;
nodes = (
(799,63,o),
(834,338,q),
(844,420,o),
(844,514,q),
(844,725,o),
(796,830,q),
(737,956,o),
(597,956,q),
(395,956,o),
(360,690,q),
(350,609,o),
(350,514,q),
(350,302,o),
(398,194,q),
(458,63,o),
(597,63,q)
);
},
{
closed = 1;
nodes = (
(717,1552,l),
(756,1610,o),
(794,1615,q),
(858,1623,o),
(895,1595,q),
(932,1567,o),
(935,1527,q),
(941,1443,o),
(882,1406,q),
(528,1184,l),
(497,1218,l)
);
}
);
width = 1194;
}
);
unicode = 243;
},
{
category = Letter;
glyphname = ocircumflex;
layers = (
{
layerId = "2adea82c-006a-4377-a520-f6b591c948da";
name = Fore;
shapes = (
{
closed = 1;
nodes = (
(372,1040,o),
(599.5,1040,q),
(827,1040,o),
(974.5,894.5,q),
(1122,749,o),
(1122,512.5,q),
(1122,276,o),
(975.5,128,q),
(829,-20,o),
(600,-20,q),
(371,-20,o),
(221.5,128,q),
(72,276,o),
(72,512,q),
(72,748,o),
(222,894,q)
);
},
{
closed = 1;
nodes = (
(799,63,o),
(834,338,q),
(844,420,o),
(844,514,q),
(844,725,o),
(796,830,q),
(737,956,o),
(597,956,q),
(395,956,o),
(360,690,q),
(350,609,o),
(350,514,q),
(350,302,o),
(398,194,q),
(458,63,o),
(597,63,q)
);
},
{
closed = 1;
nodes = (
(493,1535,l),
(540,1599,o),
(604,1599,q),
(668,1599,o),
(718,1528,q),
(969,1210,l),
(936,1179,l),
(602,1383,l),
(258,1179,l),
(227,1212,l)
);
}
);
width = 1194;
}
);
unicode = 244;
},
{
category = Letter;
glyphname = otilde;
layers = (
{
layerId = "2adea82c-006a-4377-a520-f6b591c948da";
name = Fore;
shapes = (
{
closed = 1;
nodes = (
(372,1040,o),
(599.5,1040,q),
(827,1040,o),
(974.5,894.5,q),
(1122,749,o),
(1122,512.5,q),
(1122,276,o),
(975.5,128,q),
(829,-20,o),
(600,-20,q),
(371,-20,o),
(221.5,128,q),
(72,276,o),
(72,512,q),
(72,748,o),
(222,894,q)
);
},
{
closed = 1;
nodes = (
(799,63,o),
(834,338,q),
(844,420,o),
(844,514,q),
(844,725,o),
(796,830,q),
(737,956,o),
(597,956,q),
(395,956,o),
(360,690,q),
(350,609,o),
(350,514,q),
(350,302,o),
(398,194,q),
(458,63,o),
(597,63,q)
);
},
{
closed = 1;
nodes = (
(852,1239,o),
(702,1239,q),
(646,1239,o),
(579.5,1274.5,q),
(513,1310,o),
(478,1326,q),
(443,1342,o),
(406,1342,q),
(369,1342,o),
(336.5,1317.5,q),
(304,1293,o),
(268,1253,q),
(222,1286,l),
(278,1386,o),
(317,1429,q),
(397,1517,o),
(466,1517,q),
(535,1517,o),
(601,1483.5,q),
(667,1450,o),
(700,1434.5,q),
(733,1419,o),
(764,1419,q),
(843,1419,o),
(890,1473,q),
(904,1489,o),
(916,1506,q),
(963,1475,l)
);
}
);
width = 1194;
}
);
unicode = 245;
},
{
category = Letter;
glyphname = odieresis;
layers = (
{
layerId = "2adea82c-006a-4377-a520-f6b591c948da";
name = Fore;
shapes = (
{
closed = 1;
nodes = (
(372,1040,o),
(599.5,1040,q),
(827,1040,o),
(974.5,894.5,q),
(1122,749,o),
(1122,512.5,q),
(1122,276,o),
(975.5,128,q),
(829,-20,o),
(600,-20,q),
(371,-20,o),
(221.5,128,q),
(72,276,o),
(72,512,q),
(72,748,o),
(222,894,q)
);
},
{
closed = 1;
nodes = (
(799,63,o),
(834,338,q),
(844,420,o),
(844,514,q),
(844,725,o),
(796,830,q),
(737,956,o),
(597,956,q),
(395,956,o),
(360,690,q),
(350,609,o),
(350,514,q),
(350,302,o),
(398,194,q),
(458,63,o),
(597,63,q)
);
},
{
closed = 1;
nodes = (
(948,1285,o),
(872,1254,q),
(849,1244,o),
(823,1244,q),
(774,1244,o),
(737.5,1278.5,q),
(701,1313,o),
(701,1352,q),
(701,1416,o),
(737,1452,q),
(774,1487,o),
(811,1487,q),
(876,1487,o),
(912,1451,q),
(948,1415,o),
(948,1377,q)
);
},
{
closed = 1;
nodes = (
(492,1285,o),
(416,1254,q),
(393,1244,o),
(367,1244,q),
(318,1244,o),
(281.5,1278.5,q),
(245,1313,o),
(245,1352,q),
(245,1416,o),
(281,1452,q),
(318,1487,o),
(355,1487,q),
(420,1487,o),
(456,1451,q),
(492,1415,o),
(492,1377,q)
);
}
);
width = 1194;
}
);
unicode = 246;
},
{
category = Letter;
glyphname = divide;
layers = (
{
layerId = "2adea82c-006a-4377-a520-f6b591c948da";
name = Fore;
shapes = (
{
closed = 1;
nodes = (
(794,836,o),
(754.5,836,q),
(715,836,o),
(677.5,872,q),
(640,908,o),
(640,963.5,q),
(640,1019,o),
(667,1045,q),
(715,1091,o),
(767.5,1091,q),
(820,1091,o),
(857,1054,q),
(894,1017,o),
(894,964,q),
(894,879,o),
(817,846,q)
);
},
{
closed = 1;
nodes = (
(1266,646,l),
(1266,546,l),
(270,546,l),
(270,646,l)
);
},
{
closed = 1;
nodes = (
(795,95,o),
(755.5,95,q),
(716,95,o),
(678.5,131,q),
(641,167,o),
(641,222.5,q),
(641,278,o),
(668,304,q),
(716,350,o),
(768.5,350,q),
(821,350,o),
(858,313,q),
(895,276,o),
(895,223,q),
(895,138,o),
(818,105,q)
);
}
);
width = 1536;
}
);
unicode = 247;
},
{
category = Letter;
glyphname = oslash;
layers = (
{
layerId = "2adea82c-006a-4377-a520-f6b591c948da";
name = Fore;
shapes = (
{
closed = 1;
nodes = (
(126,3,l),
(61,66,l),
(177,179,l),
(72,318,o),
(72,515,q),
(72,748,o),
(222,894,q),
(372,1040,o),
(582.5,1040,q),
(793,1040,o),
(932,932,q),
(1040,1039,l),
(1114,976,l),
(999,868,l),
(1122,726,o),
(1122,501,q),
(1122,276,o),
(975.5,128,q),
(829,-20,o),
(605.5,-20,q),
(382,-20,o),
(235,115,q)
);
},
{
closed = 1;
nodes = (
(746,956,o),
(597,956,q),
(395,956,o),
(360,690,q),
(350,609,o),
(350,510.5,q),
(350,412,o),
(361,335,q),
(559,543,l),
(802,814,l)
);
},
{
closed = 1;
nodes = (
(436,63,o),
(597,63,q),
(799,63,o),
(834,338,q),
(844,420,o),
(844,526,q),
(844,632,o),
(829,716,q),
(608,485,l),
(382,238,l)
);
}
);
width = 1194;
}
);
unicode = 248;
},
{
category = Letter;
glyphname = ugrave;
layers = (
{
layerId = "2adea82c-006a-4377-a520-f6b591c948da";
name = Fore;
shapes = (
{
closed = 1;
nodes = (
(755,-20,o),
(600.5,-20,q),
(446,-20,o),
(339,42,q),
(191,129,o),
(191,333,q),
(191,945,l),
(49,945,l),
(49,1023,l),
(451,1023,l),
(451,287,l),
(451,76,o),
(646,76,q),
(781,76,o),
(888,200,q),
(888,945,l),
(715,945,l),
(715,1023,l),
(1146,1023,l),
(1146,78,l),
(1275,78,l),
(1275,0,l),
(888,0,l),
(888,98,l)
);
},
{
closed = 1;
nodes = (
(266,1442,o),
(271,1517,q),
(273,1566,o),
(311,1594,q),
(349,1622,o),
(389.5,1617.5,q),
(430,1613,o),
(450,1597.5,q),
(470,1582,o),
(490,1552,q),
(710,1218,l),
(679,1184,l),
(325,1406,l)
);
}
);
width = 1366;
}
);
unicode = 249;
},
{
category = Letter;
glyphname = uacute;
layers = (
{
layerId = "2adea82c-006a-4377-a520-f6b591c948da";
name = Fore;
shapes = (
{
closed = 1;
nodes = (
(755,-20,o),
(600.5,-20,q),
(446,-20,o),
(339,42,q),
(191,129,o),
(191,333,q),
(191,945,l),
(49,945,l),
(49,1023,l),
(451,1023,l),
(451,287,l),
(451,76,o),
(646,76,q),
(781,76,o),
(888,200,q),
(888,945,l),
(715,945,l),
(715,1023,l),
(1146,1023,l),
(1146,78,l),
(1275,78,l),
(1275,0,l),
(888,0,l),
(888,98,l)
);
},
{
closed = 1;
nodes = (
(732,1552,l),
(771,1610,o),
(809,1615,q),
(873,1623,o),
(910,1595,q),
(947,1567,o),
(950,1527,q),
(956,1443,o),
(897,1406,q),
(543,1184,l),
(512,1218,l)
);
}
);
width = 1366;
}
);
unicode = 250;
},
{
category = Letter;
glyphname = ucircumflex;
layers = (
{
layerId = "2adea82c-006a-4377-a520-f6b591c948da";
name = Fore;
shapes = (
{
closed = 1;
nodes = (
(755,-20,o),
(600.5,-20,q),
(446,-20,o),
(339,42,q),
(191,129,o),
(191,333,q),
(191,945,l),
(49,945,l),
(49,1023,l),
(451,1023,l),
(451,287,l),
(451,76,o),
(646,76,q),
(781,76,o),
(888,200,q),
(888,945,l),
(715,945,l),
(715,1023,l),
(1146,1023,l),
(1146,78,l),
(1275,78,l),
(1275,0,l),
(888,0,l),
(888,98,l)
);
},
{
closed = 1;
nodes = (
(508,1535,l),
(555,1599,o),
(619,1599,q),
(683,1599,o),
(733,1528,q),
(984,1210,l),
(951,1179,l),
(617,1383,l),
(273,1179,l),
(242,1212,l)
);
}
);
width = 1366;
}
);
unicode = 251;
},
{
category = Letter;
glyphname = udieresis;
layers = (
{
layerId = "2adea82c-006a-4377-a520-f6b591c948da";
name = Fore;
shapes = (
{
closed = 1;
nodes = (
(755,-20,o),
(600.5,-20,q),
(446,-20,o),
(339,42,q),
(191,129,o),
(191,333,q),
(191,945,l),
(49,945,l),
(49,1023,l),
(451,1023,l),
(451,287,l),
(451,76,o),
(646,76,q),
(781,76,o),
(888,200,q),
(888,945,l),
(715,945,l),
(715,1023,l),
(1146,1023,l),
(1146,78,l),
(1275,78,l),
(1275,0,l),
(888,0,l),
(888,98,l)
);
},
{
closed = 1;
nodes = (
(963,1285,o),
(887,1254,q),
(864,1244,o),
(838,1244,q),
(789,1244,o),
(752.5,1278.5,q),
(716,1313,o),
(716,1352,q),
(716,1416,o),
(752,1452,q),
(789,1487,o),
(826,1487,q),
(891,1487,o),
(927,1451,q),
(963,1415,o),
(963,1377,q)
);
},
{
closed = 1;
nodes = (
(507,1285,o),
(431,1254,q),
(408,1244,o),
(382,1244,q),
(333,1244,o),
(296.5,1278.5,q),
(260,1313,o),
(260,1352,q),
(260,1416,o),
(296,1452,q),
(333,1487,o),
(370,1487,q),
(435,1487,o),
(471,1451,q),
(507,1415,o),
(507,1377,q)
);
}
);
width = 1366;
}
);
unicode = 252;
},
{
category = Letter;
glyphname = yacute;
layers = (
{
layerId = "2adea82c-006a-4377-a520-f6b591c948da";
name = Fore;
shapes = (
{
closed = 1;
nodes = (
(169,-273,o),
(215.5,-273,q),
(262,-273,o),
(295.5,-308.5,q),
(329,-344,o),
(329,-386,q),
(329,-428,o),
(304,-462,q),
(342,-456,o),
(381,-403.5,q),
(420,-351,o),
(473,-242,q),
(565,-20,l),
(103,945,l),
(-4,945,l),
(-4,1023,l),
(535,1023,l),
(535,945,l),
(396,945,l),
(698,259,l),
(968,945,l),
(793,945,l),
(793,1023,l),
(1168,1023,l),
(1168,945,l),
(1066,945,l),
(670,-20,l),
(549,-292,l),
(478,-433,o),
(428.5,-480,q),
(379,-527,o),
(339,-543.5,q),
(299,-560,o),
(256,-560,q),
(175,-560,o),
(121,-515.5,q),
(67,-471,o),
(67,-410,q),
(67,-349,o),
(93.5,-321.5,q),
(120,-294,o),
(144.5,-283.5,q)
);
},
{
closed = 1;
nodes = (
(746,1552,l),
(785,1610,o),
(823,1615,q),
(887,1623,o),
(924,1595,q),
(961,1567,o),
(964,1527,q),
(970,1443,o),
(911,1406,q),
(557,1184,l),
(526,1218,l)
);
}
);
width = 1195;
}
);
unicode = 253;
},
{
category = Letter;
glyphname = thorn;
layers = (
{
layerId = "2adea82c-006a-4377-a520-f6b591c948da";
name = Fore;
shapes = (
{
closed = 1;
nodes = (
(652,-482,l),
(652,-560,l),
(61,-560,l),
(61,-482,l),
(211,-482,l),
(212,1604,l),
(62,1604,l),
(62,1684,l),
(472,1684,l),
(472,915,l),
(592,1040,o),
(803,1040,q),
(1014,1040,o),
(1146.5,906.5,q),
(1279,773,o),
(1279,520,q),
(1279,267,o),
(1134,123.5,q),
(989,-20,o),
(780,-20,q),
(647,-20,o),
(534,34,q),
(499,51,o),
(472,72,q),
(472,-482,l)
);
},
{
closed = 1;
nodes = (
(999,66,o),
(999,506,q),
(999,833,o),
(858,918,q),
(809,948,o),
(733.5,947,q),
(658,946,o),
(588,904.5,q),
(518,863,o),
(472,794,q),
(472,179,l),
(550,98,o),
(668,74,q),
(704,66,o),
(738,66,q)
);
}
);
width = 1365;
}
);
unicode = 254;
},
{
category = Letter;
glyphname = ydieresis;
layers = (
{
layerId = "2adea82c-006a-4377-a520-f6b591c948da";
name = Fore;
shapes = (
{
closed = 1;
nodes = (
(169,-273,o),
(215.5,-273,q),
(262,-273,o),
(295.5,-308.5,q),
(329,-344,o),
(329,-386,q),
(329,-428,o),
(304,-462,q),
(342,-456,o),
(381,-403.5,q),
(420,-351,o),
(473,-242,q),
(565,-20,l),
(103,945,l),
(-4,945,l),
(-4,1023,l),
(535,1023,l),
(535,945,l),
(396,945,l),
(698,259,l),
(968,945,l),
(793,945,l),
(793,1023,l),
(1168,1023,l),
(1168,945,l),
(1066,945,l),
(670,-20,l),
(549,-292,l),
(478,-433,o),
(428.5,-480,q),
(379,-527,o),
(339,-543.5,q),
(299,-560,o),
(256,-560,q),
(175,-560,o),
(121,-515.5,q),
(67,-471,o),
(67,-410,q),
(67,-349,o),
(93.5,-321.5,q),
(120,-294,o),
(144.5,-283.5,q)
);
},
{
closed = 1;
nodes = (
(977,1285,o),
(901,1254,q),
(878,1244,o),
(852,1244,q),
(803,1244,o),
(766.5,1278.5,q),
(730,1313,o),
(730,1352,q),
(730,1416,o),
(766,1452,q),
(803,1487,o),
(840,1487,q),
(905,1487,o),
(941,1451,q),
(977,1415,o),
(977,1377,q)
);
},
{
closed = 1;
nodes = (
(521,1285,o),
(445,1254,q),
(422,1244,o),
(396,1244,q),
(347,1244,o),
(310.5,1278.5,q),
(274,1313,o),
(274,1352,q),
(274,1416,o),
(310,1452,q),
(347,1487,o),
(384,1487,q),
(449,1487,o),
(485,1451,q),
(521,1415,o),
(521,1377,q)
);
}
);
width = 1195;
}
);
unicode = 255;
},
{
category = Letter;
glyphname = Amacron;
layers = (
{
layerId = "2adea82c-006a-4377-a520-f6b591c948da";
name = Fore;
shapes = (
{
closed = 1;
nodes = (
(129,78,l),
(693,1530,l),
(809,1530,l),
(1412,78,l),
(1514,78,l),
(1514,0,l),
(969,0,l),
(969,78,l),
(1119,78,l),
(975,427,l),
(368,427,l),
(236,78,l),
(416,78,l),
(416,0,l),
(21,0,l),
(21,78,l)
);
},
{
closed = 1;
nodes = (
(659,1196,l),
(398,505,l),
(943,505,l)
);
},
{
closed = 1;
nodes = (
(1085,1993,l),
(1085,1870,l),
(428,1870,l),
(428,1993,l)
);
}
);
width = 1534;
}
);
unicode = 256;
},
{
category = Letter;
glyphname = amacron;
layers = (
{
layerId = "2adea82c-006a-4377-a520-f6b591c948da";
name = Fore;
shapes = (
{
closed = 1;
nodes = (
(649,-20,o),
(454,-20,q),
(306,-20,o),
(199,62.5,q),
(92,145,o),
(92,278.5,q),
(92,412,o),
(197,488.5,q),
(302,565,o),
(467.5,565,q),
(633,565,o),
(744,482,q),
(744,720,l),
(744,841,o),
(714,884,q),
(684,927,o),
(643.5,944,q),
(603,961,o),
(554,961,q),
(477,961,o),
(424,943.5,q),
(371,926,o),
(353,908,q),
(399,894,o),
(424,838,q),
(432,818,o),
(432,790,q),
(432,735,o),
(392,698.5,q),
(352,662,o),
(312,662,q),
(242,662,o),
(203,699,q),
(164,736,o),
(164,788,q),
(164,840,o),
(183,873.5,q),
(202,907,o),
(234,934,q),
(295,985,o),
(387.5,1012,q),
(480,1039,o),
(561,1039,q),
(786,1039,o),
(894,948,q),
(1002,857,o),
(1002,694,q),
(1002,161,l),
(1002,78,o),
(1043,78,q),
(1084,78,o),
(1122,128,q),
(1174,85,l),
(1106,-18,o),
(952,-18,q),
(898,-18,o),
(842.5,16,q),
(787,50,o),
(765,113,q)
);
},
{
closed = 1;
nodes = (
(662,476,o),
(561,476,q),
(460,476,o),
(409,428.5,q),
(358,381,o),
(358,276,q),
(358,121,o),
(467,88,q),
(498,78,o),
(530,78,q),
(621,78,o),
(704,148,q),
(728,169,o),
(747,193,q),
(747,393,l)
);
},
{
closed = 1;
nodes = (
(919,1414,l),
(919,1291,l),
(262,1291,l),
(262,1414,l)
);
}
);
width = 1195;
}
);
unicode = 257;
},
{
category = Letter;
glyphname = Abreve;
layers = (
{
layerId = "2adea82c-006a-4377-a520-f6b591c948da";
name = Fore;
shapes = (
{
closed = 1;
nodes = (
(129,78,l),
(693,1530,l),
(809,1530,l),
(1412,78,l),
(1514,78,l),
(1514,0,l),
(969,0,l),
(969,78,l),
(1119,78,l),
(975,427,l),
(368,427,l),
(236,78,l),
(416,78,l),
(416,0,l),
(21,0,l),
(21,78,l)
);
},
{
closed = 1;
nodes = (
(659,1196,l),
(398,505,l),
(943,505,l)
);
},
{
closed = 1;
nodes = (
(1074,1965,o),
(1074,1923,q),
(1074,1881,o),
(1051.5,1827,q),
(1029,1773,o),
(987,1733,q),
(895,1647,o),
(748,1647,q),
(601,1647,o),
(511.5,1731,q),
(422,1815,o),
(422,1943,q),
(422,1965,o),
(427,2000,q),
(484,2000,l),
(556,1820,o),
(748,1820,q),
(940,1820,o),
(1012,2000,q),
(1069,2000,l)
);
}
);
width = 1534;
}
);
unicode = 258;
},
{
category = Letter;
glyphname = abreve;
layers = (
{
layerId = "2adea82c-006a-4377-a520-f6b591c948da";
name = Fore;
shapes = (
{
closed = 1;
nodes = (
(649,-20,o),
(454,-20,q),
(306,-20,o),
(199,62.5,q),
(92,145,o),
(92,278.5,q),
(92,412,o),
(197,488.5,q),
(302,565,o),
(467.5,565,q),
(633,565,o),
(744,482,q),
(744,720,l),
(744,841,o),
(714,884,q),
(684,927,o),
(643.5,944,q),
(603,961,o),
(554,961,q),
(477,961,o),
(424,943.5,q),
(371,926,o),
(353,908,q),
(399,894,o),
(424,838,q),
(432,818,o),
(432,790,q),
(432,735,o),
(392,698.5,q),
(352,662,o),
(312,662,q),
(242,662,o),
(203,699,q),
(164,736,o),
(164,788,q),
(164,840,o),
(183,873.5,q),
(202,907,o),
(234,934,q),
(295,985,o),
(387.5,1012,q),
(480,1039,o),
(561,1039,q),
(786,1039,o),
(894,948,q),
(1002,857,o),
(1002,694,q),
(1002,161,l),
(1002,78,o),
(1043,78,q),
(1084,78,o),
(1122,128,q),
(1174,85,l),
(1106,-18,o),
(952,-18,q),
(898,-18,o),
(842.5,16,q),
(787,50,o),
(765,113,q)
);
},
{
closed = 1;
nodes = (
(662,476,o),
(561,476,q),
(460,476,o),
(409,428.5,q),
(358,381,o),
(358,276,q),
(358,121,o),
(467,88,q),
(498,78,o),
(530,78,q),
(621,78,o),
(704,148,q),
(728,169,o),
(747,193,q),
(747,393,l)
);
},
{
closed = 1;
nodes = (
(906,1541,o),
(906,1498,q),
(906,1455,o),
(883.5,1400.5,q),
(861,1346,o),
(819,1305,q),
(727,1217,o),
(580,1217,q),
(433,1217,o),
(343.5,1303,q),
(254,1389,o),
(254,1518,q),
(254,1541,o),
(259,1576,q),
(316,1576,l),
(390,1389,o),
(580,1389,q),
(770,1389,o),
(844,1576,q),
(901,1576,l)
);
}
);
width = 1195;
}
);
unicode = 259;
},
{
category = Letter;
glyphname = Aogonek;
layers = (
{
layerId = "2adea82c-006a-4377-a520-f6b591c948da";
name = Fore;
shapes = (
{
closed = 1;
nodes = (
(893,-555,o),
(893,-352,q),
(893,-252,o),
(986,-157,q),
(1079,-62,o),
(1201,0,q),
(969,0,l),
(969,78,l),
(1119,78,l),
(975,427,l),
(368,427,l),
(236,78,l),
(416,78,l),
(416,0,l),
(21,0,l),
(21,78,l),
(129,78,l),
(693,1530,l),
(809,1530,l),
(1412,78,l),
(1514,78,l),
(1514,0,l),
(1370,0,l),
(1209,-97,o),
(1154,-215,q),
(1137,-253,o),
(1137,-288,q),
(1137,-356,o),
(1171,-397.5,q),
(1205,-439,o),
(1246,-439,q),
(1312,-439,o),
(1364,-407,q),
(1416,-375,o),
(1444,-338,q),
(1491,-390,l),
(1465,-434,o),
(1398,-475,q),
(1268,-555,o),
(1166,-555,q)
);
},
{
closed = 1;
nodes = (
(659,1196,l),
(398,505,l),
(943,505,l)
);
}
);
width = 1534;
}
);
unicode = 260;
},
{
category = Letter;
glyphname = aogonek;
layers = (
{
layerId = "2adea82c-006a-4377-a520-f6b591c948da";
name = Fore;
shapes = (
{
closed = 1;
nodes = (
(649,-20,o),
(454,-20,q),
(306,-20,o),
(199,62.5,q),
(92,145,o),
(92,278.5,q),
(92,412,o),
(197,488.5,q),
(302,565,o),
(467.5,565,q),
(633,565,o),
(744,482,q),
(744,720,l),
(744,841,o),
(714,884,q),
(684,927,o),
(643.5,944,q),
(603,961,o),
(554,961,q),
(477,961,o),
(424,943.5,q),
(371,926,o),
(353,908,q),
(399,894,o),
(424,838,q),
(432,818,o),
(432,790,q),
(432,735,o),
(392,698.5,q),
(352,662,o),
(312,662,q),
(242,662,o),
(203,699,q),
(164,736,o),
(164,788,q),
(164,840,o),
(183,873.5,q),
(202,907,o),
(234,934,q),
(295,985,o),
(387.5,1012,q),
(480,1039,o),
(561,1039,q),
(786,1039,o),
(894,948,q),
(1002,857,o),
(1002,694,q),
(1002,161,l),
(1002,78,o),
(1043,78,q),
(1084,78,o),
(1122,128,q),
(1174,85,l),
(1150,48,o),
(1105,20,q),
(1106,20,l),
(994,-39,o),
(932.5,-100,q),
(871,-161,o),
(845.5,-204,q),
(820,-247,o),
(820,-284,q),
(820,-357,o),
(854,-398,q),
(888,-439,o),
(930,-439,q),
(993,-439,o),
(1046,-407,q),
(1099,-375,o),
(1127,-338,q),
(1174,-390,l),
(1148,-434,o),
(1081,-475,q),
(951,-555,o),
(849,-555,q),
(576,-555,o),
(576,-352,q),
(576,-255,o),
(672.5,-162.5,q),
(769,-70,o),
(896,-7,q),
(797,22,o),
(765,113,q)
);
},
{
closed = 1;
nodes = (
(662,476,o),
(561,476,q),
(460,476,o),
(409,428.5,q),
(358,381,o),
(358,276,q),
(358,121,o),
(467,88,q),
(498,78,o),
(530,78,q),
(621,78,o),
(704,148,q),
(728,169,o),
(747,193,q),
(747,393,l)
);
}
);
width = 1195;
}
);
unicode = 261;
},
{
category = Letter;
glyphname = Cacute;
layers = (
{
layerId = "2adea82c-006a-4377-a520-f6b591c948da";
name = Fore;
shapes = (
{
closed = 1;
nodes = (
(1347,1469,o),
(1349,1530,q),
(1431,1530,l),
(1431,1111,l),
(1346,1111,l),
(1317,1277,o),
(1187.5,1372,q),
(1058,1467,o),
(906,1467,q),
(400,1467,o),
(404,760,q),
(407,479,o),
(516,293,q),
(642,78,o),
(882,78,q),
(1065,78,o),
(1191.5,142.5,q),
(1318,207,o),
(1390,317,q),
(1442,269,l),
(1404,178,o),
(1284,95,q),
(1119,-20,o),
(870,-20,q),
(516,-20,o),
(306,200.5,q),
(96,421,o),
(96,762,q),
(96,1103,o),
(305.5,1326.5,q),
(515,1550,o),
(888,1550,q),
(1090,1550,o),
(1240,1468,q),
(1282,1445,o),
(1307,1422,q)
);
},
{
closed = 1;
nodes = (
(1039,1956,l),
(1093,2005,o),
(1130,2001,q),
(1193,1993,o),
(1223,1957.5,q),
(1253,1922,o),
(1246,1882,q),
(1233,1800,o),
(1167,1776,q),
(772,1639,l),
(750,1679,l)
);
}
);
width = 1534;
}
);
unicode = 262;
},
{
category = Letter;
glyphname = cacute;
layers = (
{
layerId = "2adea82c-006a-4377-a520-f6b591c948da";
name = Fore;
shapes = (
{
closed = 1;
nodes = (
(870,-20,o),
(604,-20,q),
(510,-20,o),
(407,16,q),
(304,52,o),
(228,121,q),
(67,269,o),
(67,513.5,q),
(67,758,o),
(224.5,899,q),
(382,1040,o),
(624,1040,q),
(762,1040,o),
(879.5,978.5,q),
(997,917,o),
(997,805,q),
(997,745,o),
(959,707,q),
(921,669,o),
(878,669,q),
(807,669,o),
(768,702,q),
(729,735,o),
(729,791,q),
(729,882,o),
(802,917,q),
(728,963,o),
(631,963,q),
(343,963,o),
(343,514,q),
(343,198,o),
(517,106,q),
(575,76,o),
(652,76,q),
(834,76,o),
(946,192,q),
(998,144,l)
);
},
{
closed = 1;
nodes = (
(695,1552,l),
(734,1610,o),
(772,1615,q),
(836,1623,o),
(873,1595,q),
(910,1567,o),
(913,1527,q),
(919,1443,o),
(860,1406,q),
(506,1184,l),
(475,1218,l)
);
}
);
width = 1026;
}
);
unicode = 263;
},
{
category = Letter;
glyphname = Ccircumflex;
layers = (
{
layerId = "2adea82c-006a-4377-a520-f6b591c948da";
name = Fore;
shapes = (
{
closed = 1;
nodes = (
(1347,1469,o),
(1349,1530,q),
(1431,1530,l),
(1431,1111,l),
(1346,1111,l),
(1317,1277,o),
(1187.5,1372,q),
(1058,1467,o),
(906,1467,q),
(400,1467,o),
(404,760,q),
(407,479,o),
(516,293,q),
(642,78,o),
(882,78,q),
(1065,78,o),
(1191.5,142.5,q),
(1318,207,o),
(1390,317,q),
(1442,269,l),
(1404,178,o),
(1284,95,q),
(1119,-20,o),
(870,-20,q),
(516,-20,o),
(306,200.5,q),
(96,421,o),
(96,762,q),
(96,1103,o),
(305.5,1326.5,q),
(515,1550,o),
(888,1550,q),
(1090,1550,o),
(1240,1468,q),
(1282,1445,o),
(1307,1422,q)
);
},
{
closed = 1;
nodes = (
(768,1936,l),
(826,2000,o),
(861.5,2000,q),
(897,2000,o),
(914,1992,q),
(946,1979,o),
(973,1950,q),
(1239,1647,l),
(1211,1610,l),
(877,1794,l),
(533,1610,l),
(505,1646,l)
);
}
);
width = 1534;
}
);
unicode = 264;
},
{
category = Letter;
glyphname = ccircumflex;
layers = (
{
layerId = "2adea82c-006a-4377-a520-f6b591c948da";
name = Fore;
shapes = (
{
closed = 1;
nodes = (
(870,-20,o),
(604,-20,q),
(510,-20,o),
(407,16,q),
(304,52,o),
(228,121,q),
(67,269,o),
(67,513.5,q),
(67,758,o),
(224.5,899,q),
(382,1040,o),
(624,1040,q),
(762,1040,o),
(879.5,978.5,q),
(997,917,o),
(997,805,q),
(997,745,o),
(959,707,q),
(921,669,o),
(878,669,q),
(807,669,o),
(768,702,q),
(729,735,o),
(729,791,q),
(729,882,o),
(802,917,q),
(728,963,o),
(631,963,q),
(343,963,o),
(343,514,q),
(343,198,o),
(517,106,q),
(575,76,o),
(652,76,q),
(834,76,o),
(946,192,q),
(998,144,l)
);
},
{
closed = 1;
nodes = (
(471,1535,l),
(518,1599,o),
(582,1599,q),
(646,1599,o),
(696,1528,q),
(947,1210,l),
(914,1179,l),
(580,1383,l),
(236,1179,l),
(205,1212,l)
);
}
);
width = 1026;
}
);
unicode = 265;
},
{
category = Letter;
glyphname = Cdotaccent;
layers = (
{
layerId = "2adea82c-006a-4377-a520-f6b591c948da";
name = Fore;
shapes = (
{
closed = 1;
nodes = (
(1347,1469,o),
(1349,1530,q),
(1431,1530,l),
(1431,1111,l),
(1346,1111,l),
(1317,1277,o),
(1187.5,1372,q),
(1058,1467,o),
(906,1467,q),
(400,1467,o),
(404,760,q),
(407,479,o),
(516,293,q),
(642,78,o),
(882,78,q),
(1065,78,o),
(1191.5,142.5,q),
(1318,207,o),
(1390,317,q),
(1442,269,l),
(1404,178,o),
(1284,95,q),
(1119,-20,o),
(870,-20,q),
(516,-20,o),
(306,200.5,q),
(96,421,o),
(96,762,q),
(96,1103,o),
(305.5,1326.5,q),
(515,1550,o),
(888,1550,q),
(1090,1550,o),
(1240,1468,q),
(1282,1445,o),
(1307,1422,q)
);
},
{
closed = 1;
nodes = (
(1010,1884,o),
(1010,1830.5,q),
(1010,1777,o),
(971.5,1738.5,q),
(933,1700,o),
(878.5,1700,q),
(824,1700,o),
(786,1738,q),
(748,1776,o),
(748,1830.5,q),
(748,1885,o),
(776,1913,q),
(825,1962,o),
(878.5,1962,q),
(932,1962,o),
(971,1923,q)
);
}
);
width = 1534;
}
);
unicode = 266;
},
{
category = Letter;
glyphname = cdotaccent;
layers = (
{
layerId = "2adea82c-006a-4377-a520-f6b591c948da";
name = Fore;
shapes = (
{
closed = 1;
nodes = (
(870,-20,o),
(604,-20,q),
(510,-20,o),
(407,16,q),
(304,52,o),
(228,121,q),
(67,269,o),
(67,513.5,q),
(67,758,o),
(224.5,899,q),
(382,1040,o),
(624,1040,q),
(762,1040,o),
(879.5,978.5,q),
(997,917,o),
(997,805,q),
(997,745,o),
(959,707,q),
(921,669,o),
(878,669,q),
(807,669,o),
(768,702,q),
(729,735,o),
(729,791,q),
(729,882,o),
(802,917,q),
(728,963,o),
(631,963,q),
(343,963,o),
(343,514,q),
(343,198,o),
(517,106,q),
(575,76,o),
(652,76,q),
(834,76,o),
(946,192,q),
(998,144,l)
);
},
{
closed = 1;
nodes = (
(707,1302,o),
(668,1264.5,q),
(629,1227,o),
(575.5,1227,q),
(522,1227,o),
(493,1254,q),
(445,1301,o),
(445,1356,q),
(445,1411,o),
(473,1439,q),
(522,1488,o),
(575.5,1488,q),
(629,1488,o),
(668,1449,q),
(707,1410,o),
(707,1356,q)
);
}
);
width = 1026;
}
);
unicode = 267;
},
{
category = Letter;
glyphname = Ccaron;
layers = (
{
layerId = "2adea82c-006a-4377-a520-f6b591c948da";
name = Fore;
shapes = (
{
closed = 1;
nodes = (
(1347,1469,o),
(1349,1530,q),
(1431,1530,l),
(1431,1111,l),
(1346,1111,l),
(1317,1277,o),
(1187.5,1372,q),
(1058,1467,o),
(906,1467,q),
(400,1467,o),
(404,760,q),
(407,479,o),
(516,293,q),
(642,78,o),
(882,78,q),
(1065,78,o),
(1191.5,142.5,q),
(1318,207,o),
(1390,317,q),
(1442,269,l),
(1404,178,o),
(1284,95,q),
(1119,-20,o),
(870,-20,q),
(516,-20,o),
(306,200.5,q),
(96,421,o),
(96,762,q),
(96,1103,o),
(305.5,1326.5,q),
(515,1550,o),
(888,1550,q),
(1090,1550,o),
(1240,1468,q),
(1282,1445,o),
(1307,1422,q)
);
},
{
closed = 1;
nodes = (
(510,1964,l),
(538,2000,l),
(878,1836,l),
(1216,2000,l),
(1244,1963,l),
(994,1701,l),
(951,1653,o),
(924.5,1641.5,q),
(898,1630,o),
(862.5,1630,q),
(827,1630,o),
(769,1694,q)
);
}
);
width = 1534;
}
);
unicode = 268;
},
{
category = Letter;
glyphname = ccaron;
layers = (
{
layerId = "2adea82c-006a-4377-a520-f6b591c948da";
name = Fore;
shapes = (
{
closed = 1;
nodes = (
(870,-20,o),
(604,-20,q),
(510,-20,o),
(407,16,q),
(304,52,o),
(228,121,q),
(67,269,o),
(67,513.5,q),
(67,758,o),
(224.5,899,q),
(382,1040,o),
(624,1040,q),
(762,1040,o),
(879.5,978.5,q),
(997,917,o),
(997,805,q),
(997,745,o),
(959,707,q),
(921,669,o),
(878,669,q),
(807,669,o),
(768,702,q),
(729,735,o),
(729,791,q),
(729,882,o),
(802,917,q),
(728,963,o),
(631,963,q),
(343,963,o),
(343,514,q),
(343,198,o),
(517,106,q),
(575,76,o),
(652,76,q),
(834,76,o),
(946,192,q),
(998,144,l)
);
},
{
closed = 1;
nodes = (
(200,1571,l),
(231,1604,l),
(575,1392,l),
(909,1604,l),
(942,1573,l),
(691,1255,l),
(641,1184,o),
(577,1184,q),
(513,1184,o),
(466,1248,q)
);
}
);
width = 1026;
}
);
unicode = 269;
},
{
category = Letter;
glyphname = Dcaron;
layers = (
{
layerId = "2adea82c-006a-4377-a520-f6b591c948da";
name = Fore;
shapes = (
{
closed = 1;
nodes = (
(283,78,l),
(284,1452,l),
(83,1452,l),
(83,1530,l),
(757,1530,l),
(1360,1530,o),
(1537,1149,q),
(1610,992,o),
(1610,777,q),
(1610,491,o),
(1444,278,q),
(1310,107,o),
(1055,37,q),
(921,0,o),
(743,0,q),
(83,0,l),
(83,78,l)
);
},
{
closed = 1;
nodes = (
(1046,78,o),
(1182,235,q),
(1318,392,o),
(1318,770,q),
(1318,801,l),
(1312,1163,o),
(1172.5,1307.5,q),
(1033,1452,o),
(744,1452,q),
(553,1452,l),
(553,78,l),
(731,78,l)
);
},
{
closed = 1;
nodes = (
(468,1964,l),
(496,2000,l),
(836,1836,l),
(1174,2000,l),
(1202,1963,l),
(952,1701,l),
(909,1653,o),
(882.5,1641.5,q),
(856,1630,o),
(820.5,1630,q),
(785,1630,o),
(727,1694,q)
);
}
);
width = 1707;
}
);
unicode = 270;
},
{
category = Letter;
glyphname = dcaron;
layers = (
{
layerId = "2adea82c-006a-4377-a520-f6b591c948da";
name = Fore;
shapes = (
{
closed = 1;
nodes = (
(1411,1181,o),
(1433,1377,q),
(1428,1376,o),
(1424,1376,q),
(1415,1376,l),
(1347,1376,o),
(1303.5,1425,q),
(1260,1474,o),
(1260,1545,q),
(1260,1652,o),
(1351,1691,q),
(1381,1704,o),
(1422,1704,q),
(1496,1704,o),
(1533.5,1654,q),
(1571,1604,o),
(1571,1532,q),
(1571,1394,o),
(1516,1256,q),
(1461,1118,o),
(1361,1039,q),
(1305,1086,l)
);
},
{
closed = 1;
nodes = (
(807,-20,o),
(572,-20,q),
(494,-20,o),
(408.5,10.5,q),
(323,41,o),
(258.5,106,q),
(194,171,o),
(156.5,271.5,q),
(119,372,o),
(119,504,q),
(119,752,o),
(264,896,q),
(409,1040,o),
(618,1040,q),
(750,1040,o),
(862,986,q),
(898,969,o),
(925,948,q),
(925,1606,l),
(718,1606,l),
(718,1684,l),
(1185,1684,l),
(1185,78,l),
(1333,78,l),
(1333,0,l),
(925,0,l),
(925,104,l)
);
},
{
closed = 1;
nodes = (
(399,954,o),
(399,514,q),
(399,187,o),
(540,102,q),
(589,72,o),
(664.5,72.5,q),
(740,73,o),
(809.5,114,q),
(879,155,o),
(925,224,q),
(925,842,l),
(848,922,o),
(729,946,q),
(693,954,o),
(660,954,q)
);
}
);
width = 1532;
}
);
unicode = 271;
},
{
category = Letter;
glyphname = Dcroat;
layers = (
{
layerId = "2adea82c-006a-4377-a520-f6b591c948da";
name = Fore;
shapes = (
{
closed = 1;
nodes = (
(283,78,l),
(283,735,l),
(113,735,l),
(113,813,l),
(283,813,l),
(284,1452,l),
(83,1452,l),
(83,1530,l),
(757,1530,l),
(1360,1530,o),
(1537,1149,q),
(1610,992,o),
(1610,777,q),
(1610,491,o),
(1444,278,q),
(1310,107,o),
(1055,37,q),
(921,0,o),
(743,0,q),
(83,0,l),
(83,78,l)
);
},
{
closed = 1;
nodes = (
(1046,78,o),
(1182,235,q),
(1318,392,o),
(1318,770,q),
(1318,801,l),
(1312,1163,o),
(1172.5,1307.5,q),
(1033,1452,o),
(744,1452,q),
(553,1452,l),
(553,813,l),
(943,813,l),
(943,735,l),
(553,735,l),
(553,78,l),
(731,78,l)
);
}
);
width = 1707;
}
);
unicode = 272;
},
{
category = Letter;
glyphname = dcroat;
layers = (
{
layerId = "2adea82c-006a-4377-a520-f6b591c948da";
name = Fore;
shapes = (
{
closed = 1;
nodes = (
(807,-20,o),
(572,-20,q),
(494,-20,o),
(408.5,10.5,q),
(323,41,o),
(258.5,106,q),
(194,171,o),
(156.5,271.5,q),
(119,372,o),
(119,504,q),
(119,752,o),
(264,896,q),
(409,1040,o),
(618,1040,q),
(750,1040,o),
(862,986,q),
(898,969,o),
(925,948,q),
(925,1247,l),
(685,1247,l),
(685,1325,l),
(925,1325,l),
(925,1606,l),
(718,1606,l),
(718,1684,l),
(1185,1684,l),
(1185,1325,l),
(1332,1325,l),
(1332,1247,l),
(1185,1247,l),
(1185,78,l),
(1333,78,l),
(1333,0,l),
(925,0,l),
(925,104,l)
);
},
{
closed = 1;
nodes = (
(399,954,o),
(399,514,q),
(399,187,o),
(540,102,q),
(589,72,o),
(664.5,72.5,q),
(740,73,o),
(809.5,114,q),
(879,155,o),
(925,224,q),
(925,842,l),
(848,922,o),
(729,946,q),
(693,954,o),
(660,954,q)
);
}
);
width = 1365;
}
);
unicode = 273;
},
{
category = Letter;
glyphname = Emacron;
layers = (
{
layerId = "2adea82c-006a-4377-a520-f6b591c948da";
name = Fore;
shapes = (
{
closed = 1;
nodes = (
(271,79,l),
(272,1452,l),
(71,1452,l),
(71,1530,l),
(1364,1530,l),
(1364,1094,l),
(1286,1094,l),
(1281,1177,o),
(1272,1241.5,q),
(1263,1306,o),
(1234,1351,q),
(1176,1443,o),
(998,1452,q),
(541,1452,l),
(541,824,l),
(791,824,l),
(876,824,o),
(921.5,851.5,q),
(967,879,o),
(977,948,q),
(979,968,o),
(980.5,990.5,q),
(982,1013,o),
(984,1035,q),
(1068,1035,l),
(1068,519,l),
(984,519,l),
(982,542,o),
(980.5,572,q),
(979,602,o),
(977,622,q),
(967,691,o),
(920.5,718.5,q),
(874,746,o),
(791,746,q),
(541,746,l),
(541,78,l),
(969,78,l),
(1232,78,o),
(1288,321,q),
(1304,391,o),
(1309,465,q),
(1387,465,l),
(1387,0,l),
(71,0,l),
(71,79,l)
);
},
{
closed = 1;
nodes = (
(1138,1993,l),
(1138,1870,l),
(481,1870,l),
(481,1993,l)
);
}
);
width = 1535;
}
);
unicode = 274;
},
{
category = Letter;
glyphname = emacron;
layers = (
{
layerId = "2adea82c-006a-4377-a520-f6b591c948da";
name = Fore;
shapes = (
{
closed = 1;
nodes = (
(915,-20,o),
(625,-20,q),
(529,-20,o),
(425,20.5,q),
(321,61,o),
(248,132,q),
(97,282,o),
(97,514.5,q),
(97,747,o),
(249,893,q),
(401,1039,o),
(635,1039,q),
(979,1039,o),
(1068,751,q),
(1097,659,o),
(1097,544,q),
(373,544,l),
(373,514,l),
(373,205,o),
(548,108,q),
(607,75,o),
(689,75,q),
(871,75,o),
(1019,223,q),
(1072,175,l)
);
},
{
closed = 1;
nodes = (
(826,786,o),
(779,870.5,q),
(732,955,o),
(625,955,q),
(408,955,o),
(378,626,q),
(828,626,l)
);
},
{
closed = 1;
nodes = (
(944,1414,l),
(944,1291,l),
(287,1291,l),
(287,1414,l)
);
}
);
width = 1194;
}
);
unicode = 275;
},
{
category = Letter;
glyphname = Ebreve;
layers = (
{
layerId = "2adea82c-006a-4377-a520-f6b591c948da";
name = Fore;
shapes = (
{
closed = 1;
nodes = (
(271,79,l),
(272,1452,l),
(71,1452,l),
(71,1530,l),
(1364,1530,l),
(1364,1094,l),
(1286,1094,l),
(1281,1177,o),
(1272,1241.5,q),
(1263,1306,o),
(1234,1351,q),
(1176,1443,o),
(998,1452,q),
(541,1452,l),
(541,824,l),
(791,824,l),
(876,824,o),
(921.5,851.5,q),
(967,879,o),
(977,948,q),
(979,968,o),
(980.5,990.5,q),
(982,1013,o),
(984,1035,q),
(1068,1035,l),
(1068,519,l),
(984,519,l),
(982,542,o),
(980.5,572,q),
(979,602,o),
(977,622,q),
(967,691,o),
(920.5,718.5,q),
(874,746,o),
(791,746,q),
(541,746,l),
(541,78,l),
(969,78,l),
(1232,78,o),
(1288,321,q),
(1304,391,o),
(1309,465,q),
(1387,465,l),
(1387,0,l),
(71,0,l),
(71,79,l)
);
},
{
closed = 1;
nodes = (
(1127,1965,o),
(1127,1923,q),
(1127,1881,o),
(1104.5,1827,q),
(1082,1773,o),
(1040,1733,q),
(948,1647,o),
(801,1647,q),
(654,1647,o),
(564.5,1731,q),
(475,1815,o),
(475,1943,q),
(475,1965,o),
(480,2000,q),
(537,2000,l),
(609,1820,o),
(801,1820,q),
(993,1820,o),
(1065,2000,q),
(1122,2000,l)
);
}
);
width = 1535;
}
);
unicode = 276;
},
{
category = Letter;
glyphname = ebreve;
layers = (
{
layerId = "2adea82c-006a-4377-a520-f6b591c948da";
name = Fore;
shapes = (
{
closed = 1;
nodes = (
(915,-20,o),
(625,-20,q),
(529,-20,o),
(425,20.5,q),
(321,61,o),
(248,132,q),
(97,282,o),
(97,514.5,q),
(97,747,o),
(249,893,q),
(401,1039,o),
(635,1039,q),
(979,1039,o),
(1068,751,q),
(1097,659,o),
(1097,544,q),
(373,544,l),
(373,514,l),
(373,205,o),
(548,108,q),
(607,75,o),
(689,75,q),
(871,75,o),
(1019,223,q),
(1072,175,l)
);
},
{
closed = 1;
nodes = (
(826,786,o),
(779,870.5,q),
(732,955,o),
(625,955,q),
(408,955,o),
(378,626,q),
(828,626,l)
);
},
{
closed = 1;
nodes = (
(931,1541,o),
(931,1498,q),
(931,1455,o),
(908.5,1400.5,q),
(886,1346,o),
(844,1305,q),
(752,1217,o),
(605,1217,q),
(458,1217,o),
(368.5,1303,q),
(279,1389,o),
(279,1518,q),
(279,1541,o),
(284,1576,q),
(341,1576,l),
(415,1389,o),
(605,1389,q),
(795,1389,o),
(869,1576,q),
(926,1576,l)
);
}
);
width = 1194;
}
);
unicode = 277;
},
{
category = Letter;
glyphname = Edotaccent;
layers = (
{
layerId = "2adea82c-006a-4377-a520-f6b591c948da";
name = Fore;
shapes = (
{
closed = 1;
nodes = (
(271,79,l),
(272,1452,l),
(71,1452,l),
(71,1530,l),
(1364,1530,l),
(1364,1094,l),
(1286,1094,l),
(1281,1177,o),
(1272,1241.5,q),
(1263,1306,o),
(1234,1351,q),
(1176,1443,o),
(998,1452,q),
(541,1452,l),
(541,824,l),
(791,824,l),
(876,824,o),
(921.5,851.5,q),
(967,879,o),
(977,948,q),
(979,968,o),
(980.5,990.5,q),
(982,1013,o),
(984,1035,q),
(1068,1035,l),
(1068,519,l),
(984,519,l),
(982,542,o),
(980.5,572,q),
(979,602,o),
(977,622,q),
(967,691,o),
(920.5,718.5,q),
(874,746,o),
(791,746,q),
(541,746,l),
(541,78,l),
(969,78,l),
(1232,78,o),
(1288,321,q),
(1304,391,o),
(1309,465,q),
(1387,465,l),
(1387,0,l),
(71,0,l),
(71,79,l)
);
},
{
closed = 1;
nodes = (
(940,1884,o),
(940,1830.5,q),
(940,1777,o),
(901.5,1738.5,q),
(863,1700,o),
(808.5,1700,q),
(754,1700,o),
(716,1738,q),
(678,1776,o),
(678,1830.5,q),
(678,1885,o),
(706,1913,q),
(755,1962,o),
(808.5,1962,q),
(862,1962,o),
(901,1923,q)
);
}
);
width = 1535;
}
);
unicode = 278;
},
{
category = Letter;
glyphname = edotaccent;
layers = (
{
layerId = "2adea82c-006a-4377-a520-f6b591c948da";
name = Fore;
shapes = (
{
closed = 1;
nodes = (
(915,-20,o),
(625,-20,q),
(529,-20,o),
(425,20.5,q),
(321,61,o),
(248,132,q),
(97,282,o),
(97,514.5,q),
(97,747,o),
(249,893,q),
(401,1039,o),
(635,1039,q),
(979,1039,o),
(1068,751,q),
(1097,659,o),
(1097,544,q),
(373,544,l),
(373,514,l),
(373,205,o),
(548,108,q),
(607,75,o),
(689,75,q),
(871,75,o),
(1019,223,q),
(1072,175,l)
);
},
{
closed = 1;
nodes = (
(826,786,o),
(779,870.5,q),
(732,955,o),
(625,955,q),
(408,955,o),
(378,626,q),
(828,626,l)
);
},
{
closed = 1;
nodes = (
(735,1302,o),
(696,1264.5,q),
(657,1227,o),
(603.5,1227,q),
(550,1227,o),
(521,1254,q),
(473,1301,o),
(473,1356,q),
(473,1411,o),
(501,1439,q),
(550,1488,o),
(603.5,1488,q),
(657,1488,o),
(696,1449,q),
(735,1410,o),
(735,1356,q)
);
}
);
width = 1194;
}
);
unicode = 279;
},
{
category = Letter;
glyphname = Eogonek;
layers = (
{
layerId = "2adea82c-006a-4377-a520-f6b591c948da";
name = Fore;
shapes = (
{
closed = 1;
nodes = (
(789,-555,o),
(789,-352,q),
(789,-252,o),
(882,-157,q),
(975,-62,o),
(1097,0,q),
(71,0,l),
(71,79,l),
(271,79,l),
(272,1452,l),
(71,1452,l),
(71,1530,l),
(1364,1530,l),
(1364,1094,l),
(1286,1094,l),
(1281,1177,o),
(1272,1241.5,q),
(1263,1306,o),
(1234,1351,q),
(1176,1443,o),
(998,1452,q),
(541,1452,l),
(541,824,l),
(791,824,l),
(876,824,o),
(921.5,851.5,q),
(967,879,o),
(977,948,q),
(979,968,o),
(980.5,990.5,q),
(982,1013,o),
(984,1035,q),
(1068,1035,l),
(1068,519,l),
(984,519,l),
(982,542,o),
(980.5,572,q),
(979,602,o),
(977,622,q),
(967,691,o),
(920.5,718.5,q),
(874,746,o),
(791,746,q),
(541,746,l),
(541,78,l),
(969,78,l),
(1232,78,o),
(1288,321,q),
(1304,391,o),
(1309,465,q),
(1387,465,l),
(1387,0,l),
(1240,0,l),
(1072,-120,o),
(1043,-218,q),
(1033,-252,o),
(1033,-287,q),
(1033,-356,o),
(1067,-397.5,q),
(1101,-439,o),
(1142,-439,q),
(1208,-439,o),
(1260,-407,q),
(1312,-375,o),
(1340,-338,q),
(1387,-390,l),
(1361,-434,o),
(1294,-475,q),
(1164,-555,o),
(1062,-555,q)
);
}
);
width = 1535;
}
);
unicode = 280;
},
{
category = Letter;
glyphname = eogonek;
layers = (
{
layerId = "2adea82c-006a-4377-a520-f6b591c948da";
name = Fore;
shapes = (
{
closed = 1;
nodes = (
(679,-20,o),
(649,-20,q),
(399,-20,o),
(248,131,q),
(97,282,o),
(97,514,q),
(97,746,o),
(247.5,892.5,q),
(398,1039,o),
(624,1039,q),
(850,1039,o),
(965.5,909.5,q),
(1081,780,o),
(1081,544,q),
(374,544,l),
(374,514,l),
(374,205,o),
(542,108,q),
(600,75,o),
(680,75,q),
(862,75,o),
(1010,223,q),
(1061,175,l),
(1025,132,o),
(983,98,q),
(840,-28,l),
(729,-131,o),
(702,-205,q),
(687,-244,o),
(687,-283,q),
(687,-356,o),
(721,-397.5,q),
(755,-439,o),
(796,-439,q),
(862,-439,o),
(914,-407,q),
(966,-375,o),
(994,-338,q),
(1041,-390,l),
(1015,-434,o),
(948,-475,q),
(818,-555,o),
(716,-555,q),
(443,-555,o),
(443,-352,q),
(443,-176,o),
(709,-16,q)
);
},
{
closed = 1;
nodes = (
(810,961,o),
(616,961,q),
(408,961,o),
(378,626,q),
(814,626,l)
);
}
);
width = 1194;
}
);
unicode = 281;
},
{
category = Letter;
glyphname = Ecaron;
layers = (
{
layerId = "2adea82c-006a-4377-a520-f6b591c948da";
name = Fore;
shapes = (
{
closed = 1;
nodes = (
(271,79,l),
(272,1452,l),
(71,1452,l),
(71,1530,l),
(1364,1530,l),
(1364,1094,l),
(1286,1094,l),
(1281,1177,o),
(1272,1241.5,q),
(1263,1306,o),
(1234,1351,q),
(1176,1443,o),
(998,1452,q),
(541,1452,l),
(541,824,l),
(791,824,l),
(876,824,o),
(921.5,851.5,q),
(967,879,o),
(977,948,q),
(979,968,o),
(980.5,990.5,q),
(982,1013,o),
(984,1035,q),
(1068,1035,l),
(1068,519,l),
(984,519,l),
(982,542,o),
(980.5,572,q),
(979,602,o),
(977,622,q),
(967,691,o),
(920.5,718.5,q),
(874,746,o),
(791,746,q),
(541,746,l),
(541,78,l),
(969,78,l),
(1232,78,o),
(1288,321,q),
(1304,391,o),
(1309,465,q),
(1387,465,l),
(1387,0,l),
(71,0,l),
(71,79,l)
);
},
{
closed = 1;
nodes = (
(440,1964,l),
(468,2000,l),
(808,1836,l),
(1146,2000,l),
(1174,1963,l),
(924,1701,l),
(881,1653,o),
(854.5,1641.5,q),
(828,1630,o),
(792.5,1630,q),
(757,1630,o),
(699,1694,q)
);
}
);
width = 1535;
}
);
unicode = 282;
},
{
category = Letter;
glyphname = ecaron;
layers = (
{
layerId = "2adea82c-006a-4377-a520-f6b591c948da";
name = Fore;
shapes = (
{
closed = 1;
nodes = (
(915,-20,o),
(625,-20,q),
(529,-20,o),
(425,20.5,q),
(321,61,o),
(248,132,q),
(97,282,o),
(97,514.5,q),
(97,747,o),
(249,893,q),
(401,1039,o),
(635,1039,q),
(979,1039,o),
(1068,751,q),
(1097,659,o),
(1097,544,q),
(373,544,l),
(373,514,l),
(373,205,o),
(548,108,q),
(607,75,o),
(689,75,q),
(871,75,o),
(1019,223,q),
(1072,175,l)
);
},
{
closed = 1;
nodes = (
(826,786,o),
(779,870.5,q),
(732,955,o),
(625,955,q),
(408,955,o),
(378,626,q),
(828,626,l)
);
},
{
closed = 1;
nodes = (
(228,1571,l),
(259,1604,l),
(603,1392,l),
(937,1604,l),
(970,1573,l),
(719,1255,l),
(669,1184,o),
(605,1184,q),
(541,1184,o),
(494,1248,q)
);
}
);
width = 1194;
}
);
unicode = 283;
},
{
category = Letter;
glyphname = Gcircumflex;
layers = (
{
layerId = "2adea82c-006a-4377-a520-f6b591c948da";
name = Fore;
shapes = (
{
closed = 1;
nodes = (
(1240,1550,o),
(1382,1421,q),
(1404,1446,o),
(1426,1530,q),
(1507,1530,l),
(1507,1111,l),
(1422,1111,l),
(1374,1290,o),
(1240,1378.5,q),
(1106,1467,o),
(917,1467,q),
(566,1467,o),
(450,1108,q),
(380,892,o),
(416,602,q),
(467,198,o),
(752,92,q),
(832,63,o),
(922,63,q),
(1012,63,o),
(1075,79,q),
(1138,95,o),
(1184.5,118.5,q),
(1231,142,o),
(1258,168.5,q),
(1285,195,o),
(1288,216,q),
(1288,601,l),
(1027,601,l),
(1027,679,l),
(1659,679,l),
(1659,601,l),
(1530,601,l),
(1530,192,l),
(1469,107,o),
(1292,43.5,q),
(1115,-20,o),
(926.5,-20,q),
(738,-20,o),
(584.5,41.5,q),
(431,103,o),
(325,210,q),
(107,430,o),
(107,759.5,q),
(107,1089,o),
(326,1314,q),
(471,1464,o),
(688,1521,q),
(798,1550,o),
(896,1550,q)
);
},
{
closed = 1;
nodes = (
(801,1936,l),
(859,2000,o),
(894.5,2000,q),
(930,2000,o),
(947,1992,q),
(979,1979,o),
(1006,1950,q),
(1272,1647,l),
(1244,1610,l),
(910,1794,l),
(566,1610,l),
(538,1646,l)
);
}
);
width = 1707;
}
);
unicode = 284;
},
{
category = Letter;
glyphname = gcircumflex;
layers = (
{
layerId = "2adea82c-006a-4377-a520-f6b591c948da";
name = Fore;
shapes = (
{
closed = 1;
nodes = (
(1161,130,o),
(1161,-181,q),
(1161,-367,o),
(1002,-463.5,q),
(843,-560,o),
(612,-560,q),
(262,-560,o),
(142,-421,q),
(98,-371,o),
(98,-314,q),
(98,-220,o),
(158,-156,q),
(218,-92,o),
(311,-65,q),
(230,-51,o),
(176,3,q),
(122,57,o),
(122,112,q),
(122,202,o),
(172.5,265.5,q),
(223,329,o),
(299,368,q),
(144,473,o),
(144,647,q),
(144,821,o),
(275.5,930,q),
(407,1039,o),
(579.5,1039,q),
(752,1039,o),
(871,964,q),
(928,974,o),
(961,1001,q),
(897,1038,o),
(897,1096.5,q),
(897,1155,o),
(923,1182,q),
(970,1232,o),
(1022,1232,q),
(1074,1232,o),
(1110.5,1197,q),
(1147,1162,o),
(1147,1099,q),
(1147,1036,o),
(1078.5,979.5,q),
(1010,923,o),
(941,909,q),
(1052,800,o),
(1052,646,q),
(1052,492,o),
(919.5,388.5,q),
(787,285,o),
(593,285,q),
(464,285,o),
(362,332,q),
(256,287,o),
(256,215,q),
(256,130,o),
(406,130,q),
(687,130,l)
);
},
{
closed = 1;
nodes = (
(808,368,o),
(808,662,q),
(808,956,o),
(597,956,q),
(429,956,o),
(398,772,q),
(388,717,o),
(388,655,q),
(388,445,o),
(490,390,q),
(530,368,o),
(592,368,q)
);
},
{
closed = 1;
nodes = (
(293,-477,o),
(622,-477,q),
(790,-477,o),
(882.5,-417,q),
(975,-357,o),
(975,-267,q),
(975,-143,o),
(856,-95,q),
(813,-78,o),
(751,-78,q),
(446,-78,l),
(378,-96,o),
(335.5,-152,q),
(293,-208,o),
(293,-284,q)
);
},
{
closed = 1;
nodes = (
(493,1535,l),
(540,1599,o),
(604,1599,q),
(668,1599,o),
(718,1528,q),
(969,1210,l),
(936,1179,l),
(602,1383,l),
(258,1179,l),
(227,1212,l)
);
}
);
width = 1194;
}
);
unicode = 285;
},
{
category = Letter;
glyphname = Gbreve;
layers = (
{
layerId = "2adea82c-006a-4377-a520-f6b591c948da";
name = Fore;
shapes = (
{
closed = 1;
nodes = (
(1240,1550,o),
(1382,1421,q),
(1404,1446,o),
(1426,1530,q),
(1507,1530,l),
(1507,1111,l),
(1422,1111,l),
(1374,1290,o),
(1240,1378.5,q),
(1106,1467,o),
(917,1467,q),
(566,1467,o),
(450,1108,q),
(380,892,o),
(416,602,q),
(467,198,o),
(752,92,q),
(832,63,o),
(922,63,q),
(1012,63,o),
(1075,79,q),
(1138,95,o),
(1184.5,118.5,q),
(1231,142,o),
(1258,168.5,q),
(1285,195,o),
(1288,216,q),
(1288,601,l),
(1027,601,l),
(1027,679,l),
(1659,679,l),
(1659,601,l),
(1530,601,l),
(1530,192,l),
(1469,107,o),
(1292,43.5,q),
(1115,-20,o),
(926.5,-20,q),
(738,-20,o),
(584.5,41.5,q),
(431,103,o),
(325,210,q),
(107,430,o),
(107,759.5,q),
(107,1089,o),
(326,1314,q),
(471,1464,o),
(688,1521,q),
(798,1550,o),
(896,1550,q)
);
},
{
closed = 1;
nodes = (
(1230,1965,o),
(1230,1923,q),
(1230,1881,o),
(1207.5,1827,q),
(1185,1773,o),
(1143,1733,q),
(1051,1647,o),
(904,1647,q),
(757,1647,o),
(667.5,1731,q),
(578,1815,o),
(578,1943,q),
(578,1965,o),
(583,2000,q),
(640,2000,l),
(712,1820,o),
(904,1820,q),
(1096,1820,o),
(1168,2000,q),
(1225,2000,l)
);
}
);
width = 1707;
}
);
unicode = 286;
},
{
category = Letter;
glyphname = gbreve;
layers = (
{
layerId = "2adea82c-006a-4377-a520-f6b591c948da";
name = Fore;
shapes = (
{
closed = 1;
nodes = (
(1161,130,o),
(1161,-181,q),
(1161,-367,o),
(1002,-463.5,q),
(843,-560,o),
(612,-560,q),
(262,-560,o),
(142,-421,q),
(98,-371,o),
(98,-314,q),
(98,-220,o),
(158,-156,q),
(218,-92,o),
(311,-65,q),
(230,-51,o),
(176,3,q),
(122,57,o),
(122,112,q),
(122,202,o),
(172.5,265.5,q),
(223,329,o),
(299,368,q),
(144,473,o),
(144,647,q),
(144,821,o),
(275.5,930,q),
(407,1039,o),
(579.5,1039,q),
(752,1039,o),
(871,964,q),
(928,974,o),
(961,1001,q),
(897,1038,o),
(897,1096.5,q),
(897,1155,o),
(923,1182,q),
(970,1232,o),
(1022,1232,q),
(1074,1232,o),
(1110.5,1197,q),
(1147,1162,o),
(1147,1099,q),
(1147,1036,o),
(1078.5,979.5,q),
(1010,923,o),
(941,909,q),
(1052,800,o),
(1052,646,q),
(1052,492,o),
(919.5,388.5,q),
(787,285,o),
(593,285,q),
(464,285,o),
(362,332,q),
(256,287,o),
(256,215,q),
(256,130,o),
(406,130,q),
(687,130,l)
);
},
{
closed = 1;
nodes = (
(808,368,o),
(808,662,q),
(808,956,o),
(597,956,q),
(429,956,o),
(398,772,q),
(388,717,o),
(388,655,q),
(388,445,o),
(490,390,q),
(530,368,o),
(592,368,q)
);
},
{
closed = 1;
nodes = (
(293,-477,o),
(622,-477,q),
(790,-477,o),
(882.5,-417,q),
(975,-357,o),
(975,-267,q),
(975,-143,o),
(856,-95,q),
(813,-78,o),
(751,-78,q),
(446,-78,l),
(378,-96,o),
(335.5,-152,q),
(293,-208,o),
(293,-284,q)
);
},
{
closed = 1;
nodes = (
(925,1541,o),
(925,1498,q),
(925,1455,o),
(902.5,1400.5,q),
(880,1346,o),
(838,1305,q),
(746,1217,o),
(599,1217,q),
(452,1217,o),
(362.5,1303,q),
(273,1389,o),
(273,1518,q),
(273,1541,o),
(278,1576,q),
(335,1576,l),
(409,1389,o),
(599,1389,q),
(789,1389,o),
(863,1576,q),
(920,1576,l)
);
}
);
width = 1194;
}
);
unicode = 287;
},
{
category = Letter;
glyphname = Gdotaccent;
layers = (
{
layerId = "2adea82c-006a-4377-a520-f6b591c948da";
name = Fore;
shapes = (
{
closed = 1;
nodes = (
(1240,1550,o),
(1382,1421,q),
(1404,1446,o),
(1426,1530,q),
(1507,1530,l),
(1507,1111,l),
(1422,1111,l),
(1374,1290,o),
(1240,1378.5,q),
(1106,1467,o),
(917,1467,q),
(566,1467,o),
(450,1108,q),
(380,892,o),
(416,602,q),
(467,198,o),
(752,92,q),
(832,63,o),
(922,63,q),
(1012,63,o),
(1075,79,q),
(1138,95,o),
(1184.5,118.5,q),
(1231,142,o),
(1258,168.5,q),
(1285,195,o),
(1288,216,q),
(1288,601,l),
(1027,601,l),
(1027,679,l),
(1659,679,l),
(1659,601,l),
(1530,601,l),
(1530,192,l),
(1469,107,o),
(1292,43.5,q),
(1115,-20,o),
(926.5,-20,q),
(738,-20,o),
(584.5,41.5,q),
(431,103,o),
(325,210,q),
(107,430,o),
(107,759.5,q),
(107,1089,o),
(326,1314,q),
(471,1464,o),
(688,1521,q),
(798,1550,o),
(896,1550,q)
);
},
{
closed = 1;
nodes = (
(1043,1884,o),
(1043,1830.5,q),
(1043,1777,o),
(1004.5,1738.5,q),
(966,1700,o),
(911.5,1700,q),
(857,1700,o),
(819,1738,q),
(781,1776,o),
(781,1830.5,q),
(781,1885,o),
(809,1913,q),
(858,1962,o),
(911.5,1962,q),
(965,1962,o),
(1004,1923,q)
);
}
);
width = 1707;
}
);
unicode = 288;
},
{
category = Letter;
glyphname = gdotaccent;
layers = (
{
layerId = "2adea82c-006a-4377-a520-f6b591c948da";
name = Fore;
shapes = (
{
closed = 1;
nodes = (
(1161,130,o),
(1161,-181,q),
(1161,-367,o),
(1002,-463.5,q),
(843,-560,o),
(612,-560,q),
(262,-560,o),
(142,-421,q),
(98,-371,o),
(98,-314,q),
(98,-220,o),
(158,-156,q),
(218,-92,o),
(311,-65,q),
(230,-51,o),
(176,3,q),
(122,57,o),
(122,112,q),
(122,202,o),
(172.5,265.5,q),
(223,329,o),
(299,368,q),
(144,473,o),
(144,647,q),
(144,821,o),
(275.5,930,q),
(407,1039,o),
(579.5,1039,q),
(752,1039,o),
(871,964,q),
(928,974,o),
(961,1001,q),
(897,1038,o),
(897,1096.5,q),
(897,1155,o),
(923,1182,q),
(970,1232,o),
(1022,1232,q),
(1074,1232,o),
(1110.5,1197,q),
(1147,1162,o),
(1147,1099,q),
(1147,1036,o),
(1078.5,979.5,q),
(1010,923,o),
(941,909,q),
(1052,800,o),
(1052,646,q),
(1052,492,o),
(919.5,388.5,q),
(787,285,o),
(593,285,q),
(464,285,o),
(362,332,q),
(256,287,o),
(256,215,q),
(256,130,o),
(406,130,q),
(687,130,l)
);
},
{
closed = 1;
nodes = (
(808,368,o),
(808,662,q),
(808,956,o),
(597,956,q),
(429,956,o),
(398,772,q),
(388,717,o),
(388,655,q),
(388,445,o),
(490,390,q),
(530,368,o),
(592,368,q)
);
},
{
closed = 1;
nodes = (
(293,-477,o),
(622,-477,q),
(790,-477,o),
(882.5,-417,q),
(975,-357,o),
(975,-267,q),
(975,-143,o),
(856,-95,q),
(813,-78,o),
(751,-78,q),
(446,-78,l),
(378,-96,o),
(335.5,-152,q),
(293,-208,o),
(293,-284,q)
);
},
{
closed = 1;
nodes = (
(729,1302,o),
(690,1264.5,q),
(651,1227,o),
(597.5,1227,q),
(544,1227,o),
(515,1254,q),
(467,1301,o),
(467,1356,q),
(467,1411,o),
(495,1439,q),
(544,1488,o),
(597.5,1488,q),
(651,1488,o),
(690,1449,q),
(729,1410,o),
(729,1356,q)
);
}
);
width = 1194;
}
);
unicode = 289;
},
{
category = Letter;
glyphname = Gcommaaccent;
layers = (
{
layerId = "2adea82c-006a-4377-a520-f6b591c948da";
name = Fore;
shapes = (
{
closed = 1;
nodes = (
(1240,1550,o),
(1382,1421,q),
(1404,1446,o),
(1426,1530,q),
(1507,1530,l),
(1507,1111,l),
(1422,1111,l),
(1374,1290,o),
(1240,1378.5,q),
(1106,1467,o),
(917,1467,q),
(566,1467,o),
(450,1108,q),
(380,892,o),
(416,602,q),
(467,198,o),
(752,92,q),
(832,63,o),
(922,63,q),
(1012,63,o),
(1075,79,q),
(1138,95,o),
(1184.5,118.5,q),
(1231,142,o),
(1258,168.5,q),
(1285,195,o),
(1288,216,q),
(1288,601,l),
(1027,601,l),
(1027,679,l),
(1659,679,l),
(1659,601,l),
(1530,601,l),
(1530,192,l),
(1469,107,o),
(1292,43.5,q),
(1115,-20,o),
(926.5,-20,q),
(738,-20,o),
(584.5,41.5,q),
(431,103,o),
(325,210,q),
(107,430,o),
(107,759.5,q),
(107,1089,o),
(326,1314,q),
(471,1464,o),
(688,1521,q),
(798,1550,o),
(896,1550,q)
);
},
{
closed = 1;
nodes = (
(746,-179,o),
(786,-141.5,q),
(826,-104,o),
(899.5,-104,q),
(973,-104,o),
(1014,-153.5,q),
(1055,-203,o),
(1055,-281.5,q),
(1055,-360,o),
(994,-438.5,q),
(933,-517,o),
(847,-560,q),
(799,-500,l),
(851,-472,o),
(887,-421,q),
(899,-404,o),
(905,-386,q),
(901,-386,l),
(746,-386,o),
(746,-230,q)
);
}
);
width = 1707;
}
);
unicode = 290;
},
{
category = Letter;
glyphname = gcommaaccent;
layers = (
{
layerId = "2adea82c-006a-4377-a520-f6b591c948da";
name = Fore;
shapes = (
{
closed = 1;
nodes = (
(1161,130,o),
(1161,-181,q),
(1161,-367,o),
(1002,-463.5,q),
(843,-560,o),
(612,-560,q),
(262,-560,o),
(142,-421,q),
(98,-371,o),
(98,-314,q),
(98,-220,o),
(158,-156,q),
(218,-92,o),
(311,-65,q),
(230,-51,o),
(176,3,q),
(122,57,o),
(122,112,q),
(122,202,o),
(172.5,265.5,q),
(223,329,o),
(299,368,q),
(144,473,o),
(144,647,q),
(144,821,o),
(275.5,930,q),
(407,1039,o),
(579.5,1039,q),
(752,1039,o),
(871,964,q),
(928,974,o),
(961,1001,q),
(897,1038,o),
(897,1096.5,q),
(897,1155,o),
(923,1182,q),
(970,1232,o),
(1022,1232,q),
(1074,1232,o),
(1110.5,1197,q),
(1147,1162,o),
(1147,1099,q),
(1147,1036,o),
(1078.5,979.5,q),
(1010,923,o),
(941,909,q),
(1052,800,o),
(1052,646,q),
(1052,492,o),
(919.5,388.5,q),
(787,285,o),
(593,285,q),
(464,285,o),
(362,332,q),
(256,287,o),
(256,215,q),
(256,130,o),
(406,130,q),
(687,130,l)
);
},
{
closed = 1;
nodes = (
(808,368,o),
(808,662,q),
(808,956,o),
(597,956,q),
(429,956,o),
(398,772,q),
(388,717,o),
(388,655,q),
(388,445,o),
(490,390,q),
(530,368,o),
(592,368,q)
);
},
{
closed = 1;
nodes = (
(293,-477,o),
(622,-477,q),
(790,-477,o),
(882.5,-417,q),
(975,-357,o),
(975,-267,q),
(975,-143,o),
(856,-95,q),
(813,-78,o),
(751,-78,q),
(446,-78,l),
(378,-96,o),
(335.5,-152,q),
(293,-208,o),
(293,-284,q)
);
},
{
closed = 1;
nodes = (
(737,1198,o),
(697,1160.5,q),
(657,1123,o),
(583.5,1123,q),
(510,1123,o),
(469,1172.5,q),
(428,1222,o),
(428,1300.5,q),
(428,1379,o),
(489,1457.5,q),
(550,1536,o),
(636,1579,q),
(684,1519,l),
(632,1491,o),
(596,1440,q),
(584,1423,o),
(578,1405,q),
(582,1405,l),
(737,1405,o),
(737,1249,q)
);
}
);
width = 1194;
}
);
unicode = 291;
},
{
category = Letter;
glyphname = Hcircumflex;
layers = (
{
layerId = "2adea82c-006a-4377-a520-f6b591c948da";
name = Fore;
shapes = (
{
closed = 1;
nodes = (
(211,78,l),
(212,1452,l),
(55,1452,l),
(55,1530,l),
(650,1530,l),
(650,1452,l),
(481,1452,l),
(481,806,l),
(1225,806,l),
(1226,1452,l),
(1057,1452,l),
(1057,1530,l),
(1652,1530,l),
(1652,1452,l),
(1495,1452,l),
(1495,78,l),
(1651,78,l),
(1651,0,l),
(1057,0,l),
(1057,78,l),
(1225,78,l),
(1225,728,l),
(481,728,l),
(481,78,l),
(649,78,l),
(649,0,l),
(55,0,l),
(55,78,l)
);
},
{
closed = 1;
nodes = (
(761,1936,l),
(819,2000,o),
(854.5,2000,q),
(890,2000,o),
(907,1992,q),
(939,1979,o),
(966,1950,q),
(1232,1647,l),
(1204,1610,l),
(870,1794,l),
(526,1610,l),
(498,1646,l)
);
}
);
width = 1707;
}
);
unicode = 292;
},
{
category = Letter;
glyphname = hcircumflex;
layers = (
{
layerId = "2adea82c-006a-4377-a520-f6b591c948da";
name = Fore;
shapes = (
{
closed = 1;
nodes = (
(217,78,l),
(217,1606,l),
(45,1606,l),
(45,1684,l),
(477,1684,l),
(477,899,l),
(623,1040,o),
(821,1040,q),
(954,1040,o),
(1058,972,q),
(1190,884,o),
(1190,692,q),
(1190,78,l),
(1352,78,l),
(1352,0,l),
(768,0,l),
(768,78,l),
(930,78,l),
(930,712,l),
(930,829,o),
(905.5,871,q),
(881,913,o),
(850.5,929,q),
(820,945,o),
(757.5,945,q),
(695,945,o),
(617,907,q),
(539,869,o),
(477,793,q),
(477,78,l),
(639,78,l),
(639,0,l),
(55,0,l),
(55,78,l)
);
},
{
closed = 1;
nodes = (
(680,1936,l),
(738,2000,o),
(773.5,2000,q),
(809,2000,o),
(826,1992,q),
(858,1979,o),
(885,1950,q),
(1151,1647,l),
(1123,1610,l),
(789,1794,l),
(445,1610,l),
(417,1646,l)
);
}
);
width = 1363;
}
);
unicode = 293;
},
{
category = Letter;
glyphname = Hbar;
layers = (
{
layerId = "2adea82c-006a-4377-a520-f6b591c948da";
name = Fore;
shapes = (
{
closed = 1;
nodes = (
(211,78,l),
(211,1069,l),
(56,1069,l),
(56,1147,l),
(211,1147,l),
(212,1452,l),
(55,1452,l),
(55,1530,l),
(650,1530,l),
(650,1452,l),
(481,1452,l),
(481,1147,l),
(1225,1147,l),
(1226,1452,l),
(1057,1452,l),
(1057,1530,l),
(1652,1530,l),
(1652,1452,l),
(1495,1452,l),
(1495,1147,l),
(1648,1147,l),
(1648,1069,l),
(1495,1069,l),
(1495,78,l),
(1651,78,l),
(1651,0,l),
(1057,0,l),
(1057,78,l),
(1225,78,l),
(1225,728,l),
(481,728,l),
(481,78,l),
(649,78,l),
(649,0,l),
(55,0,l),
(55,78,l)
);
},
{
closed = 1;
nodes = (
(1225,1069,l),
(481,1069,l),
(481,806,l),
(1225,806,l)
);
}
);
width = 1707;
}
);
unicode = 294;
},
{
category = Letter;
glyphname = hbar;
layers = (
{
layerId = "2adea82c-006a-4377-a520-f6b591c948da";
name = Fore;
shapes = (
{
closed = 1;
nodes = (
(217,78,l),
(217,1190,l),
(45,1190,l),
(45,1267,l),
(217,1267,l),
(217,1606,l),
(45,1606,l),
(45,1684,l),
(477,1684,l),
(477,1267,l),
(692,1267,l),
(692,1190,l),
(477,1190,l),
(477,899,l),
(623,1040,o),
(821,1040,q),
(954,1040,o),
(1058,972,q),
(1190,884,o),
(1190,692,q),
(1190,78,l),
(1352,78,l),
(1352,0,l),
(768,0,l),
(768,78,l),
(930,78,l),
(930,712,l),
(930,829,o),
(905.5,871,q),
(881,913,o),
(850.5,929,q),
(820,945,o),
(757.5,945,q),
(695,945,o),
(617,907,q),
(539,869,o),
(477,793,q),
(477,78,l),
(639,78,l),
(639,0,l),
(55,0,l),
(55,78,l)
);
}
);
width = 1363;
}
);
unicode = 295;
},
{
category = Letter;
glyphname = Itilde;
layers = (
{
layerId = "2adea82c-006a-4377-a520-f6b591c948da";
name = Fore;
shapes = (
{
closed = 1;
nodes = (
(292,78,l),
(293,1452,l),
(95,1452,l),
(95,1530,l),
(759,1530,l),
(759,1452,l),
(562,1452,l),
(562,78,l),
(759,78,l),
(759,0,l),
(95,0,l),
(95,78,l)
);
},
{
closed = 1;
nodes = (
(109,1834,o),
(148,1877,q),
(228,1965,o),
(297.5,1965,q),
(367,1965,o),
(436,1932,q),
(539,1882,l),
(573,1867,o),
(609.5,1867,q),
(646,1867,o),
(678.5,1891.5,q),
(711,1916,o),
(747,1956,q),
(793,1923,l),
(737,1823,o),
(698,1780,q),
(618,1692,o),
(537,1692,q),
(481,1689,o),
(414,1723.5,q),
(347,1758,o),
(311,1774,q),
(275,1790,o),
(237.5,1790,q),
(200,1790,o),
(167.5,1765.5,q),
(135,1741,o),
(99,1701,q),
(53,1734,l)
);
}
);
width = 854;
}
);
unicode = 296;
},
{
category = Letter;
glyphname = itilde;
layers = (
{
layerId = "2adea82c-006a-4377-a520-f6b591c948da";
name = Fore;
shapes = (
{
closed = 1;
nodes = (
(564,1239,o),
(414,1239,q),
(371,1239,o),
(317.5,1274.5,q),
(264,1310,o),
(236,1326,q),
(208,1342,o),
(174,1342,q),
(120,1342,o),
(40,1253,q),
(-6,1286,l),
(50,1386,o),
(89,1429,q),
(169,1517,o),
(250,1517,q),
(294,1517,o),
(347,1484,q),
(426,1434,l),
(452,1419,o),
(480,1419,q),
(533,1419,o),
(565.5,1441.5,q),
(598,1464,o),
(628,1506,q),
(675,1475,l)
);
},
{
closed = 1;
nodes = (
(223,78,l),
(223,945,l),
(75,945,l),
(75,1023,l),
(488,1023,l),
(488,78,l),
(650,78,l),
(650,0,l),
(61,0,l),
(61,78,l)
);
}
);
width = 683;
}
);
unicode = 297;
},
{
category = Letter;
glyphname = Imacron;
layers = (
{
layerId = "2adea82c-006a-4377-a520-f6b591c948da";
name = Fore;
shapes = (
{
closed = 1;
nodes = (
(292,78,l),
(293,1452,l),
(95,1452,l),
(95,1530,l),
(759,1530,l),
(759,1452,l),
(562,1452,l),
(562,78,l),
(759,78,l),
(759,0,l),
(95,0,l),
(95,78,l)
);
},
{
closed = 1;
nodes = (
(758,1993,l),
(758,1870,l),
(101,1870,l),
(101,1993,l)
);
}
);
width = 854;
}
);
unicode = 298;
},
{
category = Letter;
glyphname = imacron;
layers = (
{
layerId = "2adea82c-006a-4377-a520-f6b591c948da";
name = Fore;
shapes = (
{
closed = 1;
nodes = (
(223,78,l),
(223,945,l),
(75,945,l),
(75,1023,l),
(488,1023,l),
(488,78,l),
(650,78,l),
(650,0,l),
(61,0,l),
(61,78,l)
);
},
{
closed = 1;
nodes = (
(681,1414,l),
(681,1291,l),
(24,1291,l),
(24,1414,l)
);
}
);
width = 683;
}
);
unicode = 299;
},
{
category = Letter;
glyphname = Ibreve;
layers = (
{
layerId = "2adea82c-006a-4377-a520-f6b591c948da";
name = Fore;
shapes = (
{
closed = 1;
nodes = (
(292,78,l),
(293,1452,l),
(95,1452,l),
(95,1530,l),
(759,1530,l),
(759,1452,l),
(562,1452,l),
(562,78,l),
(759,78,l),
(759,0,l),
(95,0,l),
(95,78,l)
);
},
{
closed = 1;
nodes = (
(747,1965,o),
(747,1923,q),
(747,1881,o),
(724.5,1827,q),
(702,1773,o),
(660,1733,q),
(568,1647,o),
(421,1647,q),
(274,1647,o),
(184.5,1731,q),
(95,1815,o),
(95,1943,q),
(95,1965,o),
(100,2000,q),
(157,2000,l),
(229,1820,o),
(421,1820,q),
(613,1820,o),
(685,2000,q),
(742,2000,l)
);
}
);
width = 854;
}
);
unicode = 300;
},
{
category = Letter;
glyphname = ibreve;
layers = (
{
layerId = "2adea82c-006a-4377-a520-f6b591c948da";
name = Fore;
shapes = (
{
closed = 1;
nodes = (
(223,78,l),
(223,945,l),
(75,945,l),
(75,1023,l),
(488,1023,l),
(488,78,l),
(650,78,l),
(650,0,l),
(61,0,l),
(61,78,l)
);
},
{
closed = 1;
nodes = (
(668,1541,o),
(668,1498,q),
(668,1455,o),
(645.5,1400.5,q),
(623,1346,o),
(581,1305,q),
(489,1217,o),
(342,1217,q),
(195,1217,o),
(105.5,1303,q),
(16,1389,o),
(16,1518,q),
(16,1541,o),
(21,1576,q),
(78,1576,l),
(152,1389,o),
(342,1389,q),
(532,1389,o),
(606,1576,q),
(663,1576,l)
);
}
);
width = 683;
}
);
unicode = 301;
},
{
category = Letter;
glyphname = Iogonek;
layers = (
{
layerId = "2adea82c-006a-4377-a520-f6b591c948da";
name = Fore;
shapes = (
{
closed = 1;
nodes = (
(74,-555,o),
(74,-352,q),
(74,-252,o),
(159,-157.5,q),
(244,-63,o),
(358,0,q),
(95,0,l),
(95,78,l),
(292,78,l),
(293,1452,l),
(95,1452,l),
(95,1530,l),
(759,1530,l),
(759,1452,l),
(562,1452,l),
(562,78,l),
(759,78,l),
(759,0,l),
(526,0,l),
(384,-97,o),
(334,-215,q),
(318,-253,o),
(318,-288,q),
(318,-356,o),
(349,-397.5,q),
(380,-439,o),
(418,-439,q),
(478,-439,o),
(528.5,-407,q),
(579,-375,o),
(605,-338,q),
(652,-390,l),
(625,-435,o),
(561,-476,q),
(435,-555,o),
(337,-555,q)
);
}
);
width = 854;
}
);
unicode = 302;
},
{
category = Letter;
glyphname = iogonek;
layers = (
{
layerId = "2adea82c-006a-4377-a520-f6b591c948da";
name = Fore;
shapes = (
{
closed = 1;
nodes = (
(299,1227,o),
(258,1266.5,q),
(217,1306,o),
(217,1350,q),
(217,1424,o),
(257,1464,q),
(297,1504,o),
(355,1504,q),
(447,1504,o),
(482,1420,q),
(493,1395,o),
(493,1366,q),
(493,1307,o),
(453,1267,q),
(413,1227,o),
(356,1227,q)
);
},
{
closed = 1;
nodes = (
(34,-555,o),
(34,-352,q),
(34,-253,o),
(122,-157.5,q),
(210,-62,o),
(327,0,q),
(61,0,l),
(61,78,l),
(223,78,l),
(223,945,l),
(75,945,l),
(75,1023,l),
(488,1023,l),
(488,80,l),
(500,87,l),
(511,78,l),
(650,78,l),
(650,0,l),
(495,0,l),
(347,-95,o),
(294,-215,q),
(278,-253,o),
(278,-288,q),
(278,-356,o),
(309,-397.5,q),
(340,-439,o),
(378,-439,q),
(438,-439,o),
(488.5,-407,q),
(539,-375,o),
(565,-338,q),
(612,-390,l),
(585,-435,o),
(521,-476,q),
(395,-555,o),
(297,-555,q)
);
}
);
width = 683;
}
);
unicode = 303;
},
{
category = Letter;
glyphname = Idotaccent;
layers = (
{
layerId = "2adea82c-006a-4377-a520-f6b591c948da";
name = Fore;
shapes = (
{
closed = 1;
nodes = (
(292,78,l),
(293,1452,l),
(95,1452,l),
(95,1530,l),
(759,1530,l),
(759,1452,l),
(562,1452,l),
(562,78,l),
(759,78,l),
(759,0,l),
(95,0,l),
(95,78,l)
);
},
{
closed = 1;
nodes = (
(560,1884,o),
(560,1830.5,q),
(560,1777,o),
(521.5,1738.5,q),
(483,1700,o),
(428.5,1700,q),
(374,1700,o),
(336,1738,q),
(298,1776,o),
(298,1830.5,q),
(298,1885,o),
(326,1913,q),
(375,1962,o),
(428.5,1962,q),
(482,1962,o),
(521,1923,q)
);
}
);
width = 854;
}
);
unicode = 304;
},
{
category = Letter;
glyphname = dotlessi;
layers = (
{
layerId = "2adea82c-006a-4377-a520-f6b591c948da";
name = Fore;
shapes = (
{
closed = 1;
nodes = (
(223,78,l),
(223,945,l),
(75,945,l),
(75,1023,l),
(488,1023,l),
(488,78,l),
(650,78,l),
(650,0,l),
(61,0,l),
(61,78,l)
);
}
);
width = 683;
}
);
unicode = 305;
},
{
category = Letter;
glyphname = IJ;
layers = (
{
layerId = "2adea82c-006a-4377-a520-f6b591c948da";
name = Fore;
shapes = (
{
closed = 1;
nodes = (
(292,78,l),
(293,1452,l),
(95,1452,l),
(95,1530,l),
(759,1530,l),
(759,1452,l),
(562,1452,l),
(562,78,l),
(759,78,l),
(759,0,l),
(95,0,l),
(95,78,l)
);
},
{
closed = 1;
nodes = (
(1102,-190,o),
(1122.5,-88.5,q),
(1143,13,o),
(1143,381,q),
(1143,1452,l),
(955,1452,l),
(955,1530,l),
(1610,1530,l),
(1610,1452,l),
(1413,1452,l),
(1413,135,l),
(1413,-81,o),
(1299.5,-213,q),
(1186,-345,o),
(1013,-391,q),
(972,-318,l),
(1033,-290,o),
(1067.5,-240,q)
);
}
);
width = 1708;
}
);
unicode = 306;
},
{
category = Letter;
glyphname = ij;
layers = (
{
layerId = "2adea82c-006a-4377-a520-f6b591c948da";
name = Fore;
shapes = (
{
closed = 1;
nodes = (
(299,1227,o),
(258,1266.5,q),
(217,1306,o),
(217,1350,q),
(217,1424,o),
(257,1464,q),
(297,1504,o),
(355,1504,q),
(447,1504,o),
(482,1420,q),
(493,1395,o),
(493,1366,q),
(493,1307,o),
(453,1267,q),
(413,1227,o),
(356,1227,q)
);
},
{
closed = 1;
nodes = (
(223,78,l),
(223,945,l),
(75,945,l),
(75,1023,l),
(488,1023,l),
(488,78,l),
(650,78,l),
(650,0,l),
(61,0,l),
(61,78,l)
);
},
{
closed = 1;
nodes = (
(995,1227,o),
(954,1266.5,q),
(913,1306,o),
(913,1350,q),
(913,1424,o),
(953,1464,q),
(993,1504,o),
(1051,1504,q),
(1143,1504,o),
(1179,1420,q),
(1189,1395,o),
(1189,1366,q),
(1189,1306,o),
(1149,1266.5,q),
(1109,1227,o),
(1052,1227,q)
);
},
{
closed = 1;
nodes = (
(769,945,l),
(769,1023,l),
(1181,1023,l),
(1181,-45,l),
(1181,-410,o),
(959,-518,q),
(874,-560,o),
(766,-560,q),
(746,-484,l),
(802,-484,o),
(835.5,-458.5,q),
(869,-433,o),
(892.5,-358,q),
(916,-283,o),
(916,7,q),
(916,945,l)
);
}
);
width = 1366;
}
);
unicode = 307;
},
{
category = Letter;
glyphname = Jcircumflex;
layers = (
{
layerId = "2adea82c-006a-4377-a520-f6b591c948da";
name = Fore;
shapes = (
{
closed = 1;
nodes = (
(248,-190,o),
(268.5,-88.5,q),
(289,13,o),
(289,381,q),
(289,1452,l),
(101,1452,l),
(101,1530,l),
(756,1530,l),
(756,1452,l),
(559,1452,l),
(559,135,l),
(559,-81,o),
(445.5,-213,q),
(332,-345,o),
(159,-391,q),
(118,-318,l),
(179,-290,o),
(213.5,-240,q)
);
},
{
closed = 1;
nodes = (
(312,1936,l),
(370,2000,o),
(405.5,2000,q),
(441,2000,o),
(458,1992,q),
(490,1979,o),
(517,1950,q),
(783,1647,l),
(755,1610,l),
(421,1794,l),
(77,1610,l),
(49,1646,l)
);
}
);
width = 854;
}
);
unicode = 308;
},
